<?xml version="1.0" standalone="no"?>
<!DOCTYPE svg PUBLIC "-//W3C//DTD SVG 1.1//EN" "http://www.w3.org/Graphics/SVG/1.1/DTD/svg11.dtd" >
<svg>
<metadata>
Created by FontForge 20090914 at Tue May  8 09:17:52 2018
 By www-data
Copyright (c) 2002, 2005 Parachute&#194;&#168;, www.parachute.gr.  All rights reserved.
</metadata>
<defs>
<font id="PFDinDisplayPro-Regular" horiz-adv-x="1818" >
  <font-face 
    font-family="PF DinDisplay Pro"
    font-weight="400"
    font-stretch="normal"
    units-per-em="1000"
    panose-1="2 0 5 6 3 0 0 2 0 4"
    ascent="750"
    descent="-250"
    x-height="495"
    cap-height="689"
    bbox="-171 -279 1760 933"
    underline-thickness="60"
    underline-position="-40"
    unicode-range="U+0020-U+FB05"
  />
<missing-glyph horiz-adv-x="440" 
d="M0 700h440v-700h-440v700zM360 650h-280l140 -255zM390 95v510l-140 -255zM360 50l-140 255l-140 -255h280zM50 95l140 255l-140 255v-510z" />
    <glyph glyph-name="fj" unicode="fj" horiz-adv-x="478" 
d="M334 419h-162v-419h-85v419h-61v77h61v88c0 44 12.667 76.667 38 98s56 32 92 32h74v-76h-66c-21.333 0 -35.5 -6.33301 -42.5 -19s-10.5 -27.667 -10.5 -45v-78h247v-548c0 -55.333 -12.667 -94.5 -38 -117.5s-61 -34.5 -107 -34.5h-49v78h39
c26.667 0 45 5.83301 55 17.5s15 34.5 15 68.5v459zM426 643c0 -14 -4.83301 -26 -14.5 -36s-21.5 -15 -35.5 -15s-25.833 5 -35.5 15s-14.5 22 -14.5 36s4.83301 25.833 14.5 35.5s21.5 14.5 35.5 14.5s25.833 -4.83301 35.5 -14.5s14.5 -21.5 14.5 -35.5z" />
    <glyph glyph-name="ffj" unicode="ffj" horiz-adv-x="724" 
d="M580 419h-162v-419h-85v419h-161v-419h-85v419h-61v77h61v68c0 44 12.667 76.667 38 98s56 32 92 32h69v-76h-61c-21.333 0 -35.5 -6.33301 -42.5 -19s-10.5 -27.667 -10.5 -45v-58h161v88c0 44 12.667 76.667 38 98s56 32 92 32h74v-76h-66
c-21.333 0 -35.5 -6.33301 -42.5 -19s-10.5 -27.667 -10.5 -45v-78h247v-548c0 -55.333 -12.667 -94.5 -38 -117.5s-61 -34.5 -107 -34.5h-49v78h39c26.667 0 45 5.83301 55 17.5s15 34.5 15 68.5v459zM672 643c0 -14 -4.83301 -26 -14.5 -36s-21.5 -15 -35.5 -15
s-25.833 5 -35.5 15s-14.5 22 -14.5 36s4.83301 25.833 14.5 35.5s21.5 14.5 35.5 14.5s25.833 -4.83301 35.5 -14.5s14.5 -21.5 14.5 -35.5z" />
    <glyph glyph-name="ff" unicode="ff" horiz-adv-x="550" 
d="M419 419v-419h-85v419h-162v-419h-85v419h-61v77h61v70c0 44 12.667 76.667 38 98s56 32 92 32h89v-76h-81c-21.333 0 -35.5 -6.33301 -42.5 -19s-10.5 -27.667 -10.5 -45v-60h162v90c0 44 12.667 76.667 38 98s56 32 92 32h89v-76h-81
c-21.333 0 -35.5 -6.33301 -42.5 -19s-10.5 -27.667 -10.5 -45v-80h134v-77h-134z" />
    <glyph glyph-name="fi" unicode="fi" horiz-adv-x="478" 
d="M334 0v419h-162v-419h-85v419h-61v77h61v88c0 44 12.667 76.667 38 98s56 32 92 32h74v-76h-66c-21.333 0 -35.5 -6.33301 -42.5 -19s-10.5 -27.667 -10.5 -45v-78h247v-496h-85zM426 643c0 -14 -4.83301 -26 -14.5 -36s-21.5 -15 -35.5 -15s-25.833 5 -35.5 15
s-14.5 22 -14.5 36s4.83301 25.833 14.5 35.5s21.5 14.5 35.5 14.5s25.833 -4.83301 35.5 -14.5s14.5 -21.5 14.5 -35.5z" />
    <glyph glyph-name="fl" unicode="fl" horiz-adv-x="527" 
d="M418 132c0 -26 5.83105 -42.167 17.498 -48.5s31.167 -8.83301 58.5 -7.5l2 -78c-9.33301 -1.33301 -18.166 -2.33301 -26.499 -3s-16.166 -1 -23.499 -1c-23.333 0 -42.166 2.83301 -56.499 8.5s-25.833 14 -34.5 25s-14.5 24.333 -17.5 40s-4.5 33.5 -4.5 53.5v528
c-12 3.33301 -23.833 5.83301 -35.5 7.5s-25.5 2.5 -41.5 2.5c-56 0 -84 -27 -84 -81v-82h107v-77h-107v-419h-85v419h-61v77h61v80c0 31.333 4.83301 57.333 14.5 78s22.5 37 38.5 49s34.5 20.5 55.5 25.5s42.833 7.5 65.5 7.5c13.333 0 32.666 -1 57.999 -3
s58.333 -8 99 -18v-583z" />
    <glyph glyph-name="ffi" unicode="ffi" horiz-adv-x="724" 
d="M580 0v419h-162v-419h-85v419h-161v-419h-85v419h-61v77h61v68c0 44 12.667 76.667 38 98s56 32 92 32h69v-76h-61c-21.333 0 -35.5 -6.33301 -42.5 -19s-10.5 -27.667 -10.5 -45v-58h161v88c0 44 12.667 76.667 38 98s56 32 92 32h74v-76h-66
c-21.333 0 -35.5 -6.33301 -42.5 -19s-10.5 -27.667 -10.5 -45v-78h247v-496h-85zM672 643c0 -14 -4.83301 -26 -14.5 -36s-21.5 -15 -35.5 -15s-25.833 5 -35.5 15s-14.5 22 -14.5 36s4.83301 25.833 14.5 35.5s21.5 14.5 35.5 14.5s25.833 -4.83301 35.5 -14.5
s14.5 -21.5 14.5 -35.5z" />
    <glyph glyph-name="ffl" unicode="ffl" horiz-adv-x="772" 
d="M663 132c0 -26 5.83105 -42.167 17.498 -48.5s31.167 -8.83301 58.5 -7.5l2 -78c-9.33301 -1.33301 -18.166 -2.33301 -26.499 -3s-16.166 -1 -23.499 -1c-23.333 0 -42.166 2.83301 -56.499 8.5s-25.833 14 -34.5 25s-14.5 24.333 -17.5 40s-4.5 33.5 -4.5 53.5v528
c-12 3.33301 -23.833 5.83301 -35.5 7.5s-25.5 2.5 -41.5 2.5c-56 0 -84 -27 -84 -81v-82h107v-77h-107v-419h-85v419h-160v-419h-85v419h-61v77h61v80c0 44 12.667 76.667 38 98s56 32 92 32h75v-76h-67c-21.333 0 -35.5 -6.33301 -42.5 -19s-10.5 -27.667 -10.5 -45v-70
h160v80c0 31.333 4.83301 57.333 14.5 78s22.5 37 38.5 49s34.5 20.5 55.5 25.5s42.833 7.5 65.5 7.5c13.333 0 32.666 -1 57.999 -3s58.333 -8 99 -18v-583z" />
    <glyph glyph-name="ft" unicode="ft" horiz-adv-x="597" 
d="M591 12c-19.333 -6.66699 -39.499 -11.166 -60.499 -13.499s-36.5 -3.5 -46.5 -3.5c-52.667 0 -90.667 12 -114 36s-35 64 -35 120v268h-163v-419h-85v419h-61v77h61v90c0 44 12.667 76.667 38 98s56 32 92 32h69v-76h-61c-21.333 0 -35.5 -6.33301 -42.5 -19
s-10.5 -27.667 -10.5 -45v-80h165l20 115h63v-115h138v-77h-138v-242c0 -20 1.83301 -36.5 5.5 -49.5s8.66699 -23.333 15 -31s14.166 -12.834 23.499 -15.501s20 -4 32 -4c11.333 0 23.833 0.833008 37.5 2.5l43.5 5.5z" />
    <glyph glyph-name=".notdef" horiz-adv-x="440" 
d="M0 700h440v-700h-440v700zM360 650h-280l140 -255zM390 95v510l-140 -255zM360 50l-140 255l-140 -255h280zM50 95l140 255l-140 255v-510z" />
    <glyph glyph-name="space" unicode=" " horiz-adv-x="240" 
 />
    <glyph glyph-name="exclam" unicode="!" horiz-adv-x="237" 
d="M156 189h-75l-7 507h89zM60 55c0 14 4.83301 27.002 14.5 39.002s23.834 18 42.501 18c19.333 0 34.333 -6 45 -18s16 -25 16 -39c0 -16.667 -5.33301 -30.834 -16 -42.501s-25.667 -17.5 -45 -17.5c-18.667 0 -32.834 5.66699 -42.501 17s-14.5 25.666 -14.5 42.999z
" />
    <glyph glyph-name="quotedbl" unicode="&#x22;" horiz-adv-x="306" 
d="M178 509v187h69v-187h-69zM56 509v187h69v-187h-69z" />
    <glyph glyph-name="numbersign" unicode="#" horiz-adv-x="526" 
d="M398 421l-19 -143h94v-65h-103l-29 -213h-73l30 213h-111l-29 -213h-74l31 213h-90v65h99l20 143h-91v64h100l30 210h69l-28 -210h113l29 210h70l-29 -210h94v-64h-103zM215 421l-19 -143h111l20 143h-112z" />
    <glyph glyph-name="dollar" unicode="$" horiz-adv-x="500" 
d="M283 -1l0.000976562 -97.0029h-60v97c-36 2.66699 -70.333 10.5 -103 23.5s-64 32.5 -94 58.5l48 65c27.333 -20.667 56.5 -37 87.5 -49s62.5 -18 94.5 -18c44.667 0 78.167 9.83301 100.5 29.5s33.5 47.167 33.5 82.5c0 22.667 -4.66699 40.834 -14 54.501
s-21.333 24.5 -36 32.5s-30.834 14.167 -48.501 18.5s-34.834 8.16602 -51.501 11.499c-24.667 5.33301 -48.667 12.333 -72 21s-44.166 20.334 -62.499 35.001s-33 32.667 -44 54s-16.5 47.666 -16.5 78.999c0 26 4.5 50.167 13.5 72.5s21.5 41.833 37.5 58.5
s34.833 30.334 56.5 41.001s45.167 17.334 70.5 20.001v83h60l-2 -82c30 -1.33301 59.5 -6.16602 88.5 -14.499s57.5 -21.166 85.5 -38.499l-39 -74c-25.333 15.333 -51.333 27.166 -78 35.499s-54 12.5 -82 12.5c-16 0 -31.667 -2.5 -47 -7.5s-28.666 -12.333 -39.999 -22
s-20.5 -21.667 -27.5 -36s-10.5 -31.166 -10.5 -50.499c0 -18.667 4.5 -34 13.5 -46s20.5 -22 34.5 -30s29.167 -14.333 45.5 -19s31.5 -8.66699 45.5 -12c26 -6.66699 51.167 -13.834 75.5 -21.501s46.166 -18.5 65.499 -32.5s34.833 -32.333 46.5 -55s17.5 -52 17.5 -88
c0 -56.667 -17.667 -101.667 -53 -135s-82.333 -52.333 -141 -57h2z" />
    <glyph glyph-name="percent" unicode="%" horiz-adv-x="800" 
d="M332 386c0 -18 -3.83301 -34.167 -11.5 -48.5s-18 -26.5 -31 -36.5s-28 -17.667 -45 -23s-35.167 -8 -54.5 -8c-20 0 -38.667 2.66699 -56 8s-32.333 13 -45 23s-22.667 22.167 -30 36.5s-11 30.5 -11 48.5v191c0 18 3.83301 34.167 11.5 48.5s18 26.5 31 36.5
s28 17.667 45 23s35.167 8 54.5 8c18.667 0 36.667 -2.66699 54 -8s32.5 -13 45.5 -23s23.333 -22.167 31 -36.5s11.5 -30.5 11.5 -48.5v-191zM261 567c0 11.333 -2.33301 20.833 -7 28.5s-10.5 14 -17.5 19s-14.667 8.5 -23 10.5s-16.166 3 -23.499 3s-15 -1 -23 -3
s-15.5 -5.5 -22.5 -10.5s-12.667 -11.333 -17 -19s-6.5 -17.167 -6.5 -28.5v-173c0 -11.333 2.16699 -20.833 6.5 -28.5s10 -13.834 17 -18.501s14.5 -8 22.5 -10s15.667 -3 23 -3s15.166 1 23.499 3s16 5.33301 23 10s12.833 10.834 17.5 18.501s7 17.167 7 28.5v173z
M751 112c0 -18 -3.83301 -34.167 -11.5 -48.5s-18 -26.5 -31 -36.5s-28 -17.667 -45 -23s-35.167 -8 -54.5 -8c-20 0 -38.667 2.66699 -56 8s-32.333 13 -45 23s-22.667 22.167 -30 36.5s-11 30.5 -11 48.5v191c0 18 3.83301 34.167 11.5 48.5s18 26.5 31 36.5
s28 17.667 45 23s35.167 8 54.5 8c18.667 0 36.667 -2.66699 54 -8s32.5 -13 45.5 -23s23.333 -22.167 31 -36.5s11.5 -30.5 11.5 -48.5v-191zM680 293c0 11.333 -2.33301 20.833 -7 28.5s-10.5 14 -17.5 19s-14.667 8.5 -23 10.5s-16.166 3 -23.499 3s-15 -1 -23 -3
s-15.5 -5.5 -22.5 -10.5s-12.667 -11.333 -17 -19s-6.5 -17.167 -6.5 -28.5v-173c0 -11.333 2.16699 -20.833 6.5 -28.5s10 -13.834 17 -18.501s14.5 -8 22.5 -10s15.667 -3 23 -3s15.166 1 23.499 3s16 5.33301 23 10s12.833 10.834 17.5 18.501s7 17.167 7 28.5v173z
M221 -17h-66l425 730h67z" />
    <glyph glyph-name="ampersand" unicode="&#x26;" horiz-adv-x="831" 
d="M739 -53c-30 13.333 -60.998 30.8311 -92.998 52.498s-60 44.167 -84 67.5c-29.333 -22.667 -62.833 -40.667 -100.5 -54s-74.834 -20 -111.501 -20c-30 0 -58.167 4.16699 -84.5 12.5s-49.333 20.833 -69 37.5s-35.167 37.334 -46.5 62.001s-17 53.334 -17 86.001
c0 47.333 15.167 88.5 45.5 123.5s69.5 66.167 117.5 93.5c-18 25.333 -31 48 -39 68s-12 40.667 -12 62c0 20.667 3.16699 40.167 9.5 58.5s15.5 34 27.5 47s26.833 23.333 44.5 31s37.834 11.5 60.501 11.5c21.333 0 41 -3.5 59 -10.5s33.5 -16.667 46.5 -29
s23.167 -26.666 30.5 -42.999s11 -33.833 11 -52.5c0 -38.667 -11.833 -71 -35.5 -97s-54.834 -50.667 -93.501 -74c23.333 -34 49.166 -69.833 77.499 -107.5s58.166 -74.5 89.499 -110.5c34 34 61.333 73.167 82 117.5s31 92.5 31 144.5c0 42 -6.16699 82 -18.5 120
s-30.833 71.333 -55.5 100s-55 51.5 -91 68.5s-77.333 25.5 -124 25.5c-42.667 0 -81.167 -6.33301 -115.5 -19s-63.666 -29.834 -87.999 -51.501s-43 -46.667 -56 -75s-19.5 -58.5 -19.5 -90.5c0 -22.667 3.33301 -45.5 10 -68.5s17.334 -45.833 32.001 -68.5l-60 -35
c-18 26.667 -31.167 54.167 -39.5 82.5s-12.5 56.5 -12.5 84.5c0 40 8 78.667 24 116s39 70.166 69 98.499s66.333 51 109 68s90.334 25.5 143.001 25.5c59.333 0 111.666 -10 156.999 -30s83.166 -47.333 113.499 -82s53.333 -75 69 -121s23.5 -95 23.5 -147
c0 -62.667 -12.5 -120.5 -37.5 -173.5s-57.5 -99.167 -97.5 -138.5c24 -22.667 48.5 -42.667 73.5 -60s51.5 -31.666 79.5 -42.999zM459.002 550.998c0 19.333 -7.16895 35.335 -21.502 48.002s-31.166 19 -50.499 19c-12 0 -22 -2.33301 -30 -7
s-14.5 -10.834 -19.5 -18.501s-8.66699 -15.834 -11 -24.501s-3.5 -17 -3.5 -25c0 -16 3.83301 -31.833 11.5 -47.5s18.167 -33.167 31.5 -52.5c26.667 14.667 48.834 30 66.501 46s26.5 36.667 26.5 62zM515 117c-16.667 18 -33.3311 37.001 -49.998 57.001
s-32.5 40 -47.5 60l-43 59c-13.667 19.333 -25.834 37.333 -36.501 54c-18 -10 -35 -20.333 -51 -31s-29.833 -22.334 -41.5 -35.001s-21 -26.167 -28 -40.5s-10.5 -30.166 -10.5 -47.499c0 -22 3.5 -41.333 10.5 -58s16.667 -30.5 29 -41.5s26.666 -19.333 42.999 -25
s33.833 -8.5 52.5 -8.5c28 0 56.667 4.66699 86 14s58.333 23.666 87 42.999z" />
    <glyph glyph-name="quotesingle" unicode="'" horiz-adv-x="257" 
d="M97 509v187h69v-187h-69z" />
    <glyph glyph-name="parenleft" unicode="(" horiz-adv-x="290" 
d="M238 -120c-24.667 26.667 -48.1689 55.999 -70.502 87.999s-42.166 66 -59.499 102s-31.166 73.667 -41.499 113s-15.5 80 -15.5 122c0 42.667 5 83.834 15 123.501s23.5 77.5 40.5 113.5s36.5 69.667 58.5 101s45.333 60.333 70 87l46 -28
c-21.333 -27.333 -40.5 -56.833 -57.5 -88.5s-31.667 -64.5 -44 -98.5s-21.833 -68.333 -28.5 -103s-10 -68.667 -10 -102c0 -36 3.5 -72 10.5 -108s16.667 -71 29 -105s27 -66.667 44 -98s35.5 -60.333 55.5 -87l-42 -32v0z" />
    <glyph glyph-name="parenright" unicode=")" horiz-adv-x="290" 
d="M20 -88c20 26.667 38.5 55.668 55.5 87.001s31.667 64 44 98s22 69 29 105s10.5 72 10.5 108c0 33.333 -3.33301 67.333 -10 102s-16 69 -28 103s-26.667 66.833 -44 98.5s-36.333 61.167 -57 88.5l45 28c24.667 -26.667 48.167 -55.667 70.5 -87s42 -65 59 -101
s30.5 -73.833 40.5 -113.5s15 -80.834 15 -123.501c0 -42 -5.16699 -82.667 -15.5 -122s-24.166 -77 -41.499 -113s-37.333 -70 -60 -102s-46.334 -61.333 -71.001 -88z" />
    <glyph glyph-name="asterisk" unicode="*" horiz-adv-x="361" 
d="M300 442l-27.5 -21.5l-28.5 -21.5l-62 104l-63 -105l-28 21.5l-28 21.5l78 91c-18.667 4.66699 -37.5 9.66699 -56.5 15s-37.833 10.333 -56.5 15l19 65l111 -47l-10 120h68l-10 -120l55.5 23l55.5 24l19 -66l-114 -29z" />
    <glyph glyph-name="plus" unicode="+" horiz-adv-x="500" 
d="M282 262v-192h-64v192h-189v64h189v190h64v-190h188v-64h-188z" />
    <glyph glyph-name="comma" unicode="," horiz-adv-x="250" 
d="M64 52c0 14.667 5.33496 28.002 16.002 40.002s25.334 18 44.001 18c12.667 0 23.334 -2.5 32.001 -7.5s15.667 -11.333 21 -19s9.16602 -16.334 11.499 -26.001s3.5 -18.834 3.5 -27.501c0 -18.667 -3 -36.5 -9 -53.5s-13.833 -32.5 -23.5 -46.5
s-20.834 -26.5 -33.501 -37.5s-25.667 -19.5 -39 -25.5l-30 39c15.333 11.333 27.666 23.833 36.999 37.5s14.666 30.5 15.999 50.5c-14 1.33301 -25.167 7.5 -33.5 18.5s-12.5 24.167 -12.5 39.5z" />
    <glyph glyph-name="hyphen" unicode="-" horiz-adv-x="392" 
d="M52 230v75h288v-75h-288z" />
    <glyph glyph-name="period" unicode="." horiz-adv-x="219" 
d="M53 55c0 14 4.83301 27.002 14.5 39.002s23.834 18 42.501 18c19.333 0 34.333 -6 45 -18s16 -25 16 -39c0 -16.667 -5.33301 -30.834 -16 -42.501s-25.667 -17.5 -45 -17.5c-18.667 0 -32.834 5.66699 -42.501 17s-14.5 25.666 -14.5 42.999z" />
    <glyph glyph-name="slash" unicode="/" horiz-adv-x="317" 
d="M64 -42h-65l251 767h65z" />
    <glyph glyph-name="zero" unicode="0" horiz-adv-x="500" 
d="M460 172c0 -28 -6.16699 -53 -18.5 -75s-28.5 -40.5 -48.5 -55.5s-42.5 -26.5 -67.5 -34.5s-50.167 -12 -75.5 -12c-26 0 -51.5 4 -76.5 12s-47.333 19.5 -67 34.5s-35.667 33.5 -48 55.5s-18.5 47 -18.5 75v344c0 28 6.16699 53.167 18.5 75.5s28.5 41.333 48.5 57
s42.5 27.5 67.5 35.5s50.167 12 75.5 12s50.5 -4 75.5 -12s47.5 -19.833 67.5 -35.5s36.167 -34.667 48.5 -57s18.5 -47.5 18.5 -75.5v-344zM373 494c0 22 -4 40.667 -12 56s-18 27.833 -30 37.5s-25.167 16.5 -39.5 20.5s-28.166 6 -41.499 6s-27.166 -2 -41.499 -6
s-27.5 -10.833 -39.5 -20.5s-21.833 -22.167 -29.5 -37.5s-11.5 -34 -11.5 -56v-300c0 -22 3.83301 -40.5 11.5 -55.5s17.5 -27.333 29.5 -37s25.167 -16.5 39.5 -20.5s28.166 -6 41.499 -6s27.166 2 41.499 6s27.5 10.833 39.5 20.5s22 22 30 37s12 33.5 12 55.5v300z" />
    <glyph glyph-name="one" unicode="1" horiz-adv-x="500" 
d="M235 0v583l-94 -77l-46 63l145 120h81v-689h-86z" />
    <glyph glyph-name="two" unicode="2" horiz-adv-x="500" 
d="M458 515c0 -25.333 -6.16895 -49.668 -18.502 -73.001s-27.666 -45.166 -45.999 -65.499s-38 -38.833 -59 -55.5s-40.5 -31 -58.5 -43l-43.5 -31c-16.333 -12 -32 -25.333 -47 -40s-27.667 -30.667 -38 -48s-15.5 -36 -15.5 -56v-26h324v-77h-414v81
c0 28 4.66699 54 14 78s22 46.333 38 67s34.333 39.834 55 57.501s42.334 34.167 65.001 49.5c19.333 12 38.166 25 56.499 39s34.833 28.5 49.5 43.5s26.334 30.5 35.001 46.5s13 32.333 13 49c0 18 -3.83301 33.5 -11.5 46.5s-17.834 23.667 -30.501 32
s-26.834 14.5 -42.501 18.5s-31.5 6 -47.5 6c-28 0 -54 -4.83301 -78 -14.5s-45 -22.167 -63 -37.5l-45 65c22.667 19.333 49.667 35.666 81 48.999s66.333 20 105 20c28 0 55.333 -3.33301 82 -10s50.334 -17.167 71.001 -31.5s37.334 -33 50.001 -56s19 -50.833 19 -83.5z
" />
    <glyph glyph-name="three" unicode="3" horiz-adv-x="500" 
d="M226 695c24.667 0 49.166 -2.99707 73.499 -8.99707s46.333 -15.833 66 -29.5s35.5 -31.834 47.5 -54.501s18 -50.334 18 -83.001c0 -34 -8.16699 -65.167 -24.5 -93.5s-40.5 -48.5 -72.5 -60.5c16 -6.66699 30.167 -15.834 42.5 -27.501s22.666 -24.834 30.999 -39.501
s14.666 -30.334 18.999 -47.001s6.5 -33 6.5 -49c0 -34.667 -6.16699 -65 -18.5 -91s-28.666 -47.833 -48.999 -65.5s-44 -30.834 -71 -39.501s-55.5 -13 -85.5 -13c-42 0 -80.167 6.83301 -114.5 20.5s-62.166 29.834 -83.499 48.501l46 68
c19.333 -17.333 42.5 -31 69.5 -41s52.833 -15 77.5 -15c42.667 0 76.834 10.5 102.501 31.5s38.5 50.5 38.5 88.5s-10.333 68.667 -31 92s-47.667 35 -81 35h-78v77h80c12.667 0 25.5 2.33301 38.5 7s24.667 11.834 35 21.501s18.666 21.834 24.999 36.501s9.5 32 9.5 52
c0 18 -3.66699 33.333 -11 46s-17.166 23 -29.499 31s-26.166 13.667 -41.499 17s-31 5 -47 5c-24.667 0 -49.834 -5.33301 -75.501 -16s-47.5 -23.667 -65.5 -39l-47 66c21.333 18.667 49.5 35 84.5 49s73.5 21 115.5 21z" />
    <glyph glyph-name="four" unicode="4" horiz-adv-x="500" 
d="M414 106v-106h-88v106h-300v74l114.5 254l114.5 255h92l-224 -505h203v206h88v-206h59v-78h-59z" />
    <glyph glyph-name="five" unicode="5" horiz-adv-x="500" 
d="M453 177c0 -28 -5.83008 -53.166 -17.4971 -75.499s-27.334 -41.5 -47.001 -57.5s-42.5 -28.167 -68.5 -36.5s-53.333 -12.5 -82 -12.5c-43.333 0 -80.5 6.83301 -111.5 20.5s-57.5 30.167 -79.5 49.5l50 69c42 -38.667 88.333 -58 139 -58c9.33301 0 21.333 1.5 36 4.5
s29 8.66699 43 17s26 19.833 36 34.5s15 33.667 15 57v89c0 33.333 -8.33301 58 -25 74s-38.334 24 -65.001 24c-10.667 0 -22.667 -2 -36 -6s-26.666 -8.83301 -39.999 -14.5s-25.833 -12 -37.5 -19s-21.167 -13.5 -28.5 -19.5l-81 32v340h380v-81h-291v-196
c25.333 17.333 50.666 30.333 75.999 39s47.666 13 66.999 13c26 0 49.333 -4.16699 70 -12.5s38.167 -20.333 52.5 -36s25.5 -34.334 33.5 -56.001s12 -45.5 12 -71.5v-111v0z" />
    <glyph glyph-name="six" unicode="6" horiz-adv-x="500" 
d="M44 513c0 28.667 5.66895 54.335 17.002 77.002s26.5 41.834 45.5 57.501s41.333 27.667 67 36s52.5 12.5 80.5 12.5c43.333 0 80.166 -6.83301 110.499 -20.5s56.5 -30.167 78.5 -49.5l-50 -70c-20.667 18.667 -42.167 32.834 -64.5 42.501s-46.5 14.5 -72.5 14.5
c-12.667 0 -26.167 -2 -40.5 -6s-27.666 -10.667 -39.999 -20s-22.666 -21.5 -30.999 -36.5s-12.5 -33.5 -12.5 -55.5v-113c32 20.667 61.5 35.167 88.5 43.5s50.5 12.5 70.5 12.5c25.333 0 48.166 -4.33301 68.499 -13s37.666 -20.834 51.999 -36.501
s25.333 -34.334 33 -56.001s11.5 -45.5 11.5 -71.5v-82c0 -28.667 -5.66699 -54.334 -17 -77.001s-26.5 -42 -45.5 -58s-41 -28.167 -66 -36.5s-51.167 -12.5 -78.5 -12.5c-29.333 0 -56.333 4 -81 12s-46.334 19.667 -65.001 35s-33.167 34.166 -43.5 56.499
s-15.5 47.833 -15.5 76.5v338zM368.002 253.001c0 34.667 -8.49805 59.998 -25.498 75.998s-38.167 24 -63.5 24c-23.333 0 -46.833 -5 -70.5 -15s-49.167 -24 -76.5 -42v-102c0 -21.333 3.66699 -39.5 11 -54.5s16.666 -27.167 27.999 -36.5s23.833 -16.166 37.5 -20.499
s27.167 -6.5 40.5 -6.5c12.667 0 26.167 2.16699 40.5 6.5s27.166 11.333 38.499 21s20.833 21.834 28.5 36.501s11.5 32.667 11.5 54v59z" />
    <glyph glyph-name="seven" unicode="7" horiz-adv-x="500" 
d="M203 0h-94l248 609h-229v-103h-83v183h410v-77z" />
    <glyph glyph-name="eight" unicode="8" horiz-adv-x="500" 
d="M249 695c25.333 0 50.1689 -3.99707 74.502 -11.9971s46.166 -20.333 65.499 -37s34.833 -37.167 46.5 -61.5s17.5 -52.833 17.5 -85.5c0 -32 -7 -61.5 -21 -88.5s-34.667 -46.833 -62 -59.5c17.333 -7.33301 32.166 -16.666 44.499 -27.999s22.333 -24 30 -38
s13.334 -28.833 17.001 -44.5s5.5 -30.834 5.5 -45.501c0 -34.667 -6.33301 -64.667 -19 -90s-29.334 -46.166 -50.001 -62.499s-44.167 -28.5 -70.5 -36.5s-52.833 -12 -79.5 -12c-29.333 0 -57.166 4 -83.499 12s-49.333 20 -69 36s-35.334 36.167 -47.001 60.5
s-17.5 53.166 -17.5 86.499c0 17.333 2.66699 34.333 8 51s12.5 32.167 21.5 46.5s19.667 27.166 32 38.499s25.5 20 39.5 26c-28 10.667 -49.333 29.667 -64 57s-22 58 -22 92c0 32 5.83301 60.167 17.5 84.5s27.167 44.666 46.5 60.999s41 28.666 65 36.999
s48.667 12.5 74 12.5zM250.003 612.003c-14.667 0 -29.1689 -2.33301 -43.502 -7s-27 -11.667 -38 -21s-19.833 -21 -26.5 -35s-10 -30.333 -10 -49c0 -17.333 3.33301 -33 10 -47s15.5 -25.833 26.5 -35.5s23.5 -17.167 37.5 -22.5s28.667 -8 44 -8
c14.667 0 29.167 2.66699 43.5 8s26.833 13 37.5 23s19.334 22 26.001 36s10 29.667 10 47c0 18 -3.16699 34 -9.5 48s-14.833 25.667 -25.5 35s-23.167 16.333 -37.5 21s-29.166 7 -44.499 7zM250.001 307.003c-17.333 0 -33.6709 -2.66699 -49.0039 -8
s-28.666 -13 -39.999 -23s-20.5 -22.167 -27.5 -36.5s-10.5 -30.5 -10.5 -48.5c0 -36.667 11.167 -65 33.5 -85s53.5 -30 93.5 -30c38.667 0 69.334 10 92.001 30s34 49 34 87c0 17.333 -3.33301 33 -10 47s-15.667 26 -27 36s-24.666 17.667 -39.999 23
s-31.666 8 -48.999 8z" />
    <glyph glyph-name="nine" unicode="9" horiz-adv-x="500" 
d="M447 177c0 -28.667 -5.66602 -54.335 -16.999 -77.002s-26.5 -41.667 -45.5 -57s-41.333 -27.166 -67 -35.499s-52.5 -12.5 -80.5 -12.5c-44 0 -81 6.83301 -111 20.5s-56 30.167 -78 49.5l50 70c20.667 -18.667 42.167 -32.834 64.5 -42.501s46.166 -14.5 71.499 -14.5
c12.667 0 26.167 2 40.5 6s27.666 10.667 39.999 20s22.666 21.5 30.999 36.5s12.5 33.5 12.5 55.5v116c-32.667 -19.333 -62.167 -33.333 -88.5 -42s-49.5 -13 -69.5 -13c-51.333 0 -91.666 15.333 -120.999 46s-44 74.334 -44 131.001v77c0 28.667 5.66699 54.5 17 77.5
s26.5 42.5 45.5 58.5s41 28.167 66 36.5s51.167 12.5 78.5 12.5c26.667 0 52.334 -4 77.001 -12s46.5 -19.667 65.5 -35s34.167 -34.166 45.5 -56.499s17 -47.833 17 -76.5v-339zM122.001 441.999c0 -35.333 8.66797 -60.833 26.001 -76.5s38.666 -23.5 63.999 -23.5
c23.333 0 46.833 5.16699 70.5 15.5s48.834 23.833 75.501 40.5v99c0 21.333 -3.5 39.333 -10.5 54s-16.167 26.667 -27.5 36s-23.833 16.166 -37.5 20.499s-27.167 6.5 -40.5 6.5s-27 -2.16699 -41 -6.5s-26.833 -11.166 -38.5 -20.499s-21.334 -21.5 -29.001 -36.5
s-11.5 -32.833 -11.5 -53.5v-55z" />
    <glyph glyph-name="colon" unicode=":" horiz-adv-x="250" 
d="M65 55c0 14 4.83301 27.002 14.5 39.002s23.834 18 42.501 18c19.333 0 34.333 -6 45 -18s16 -25 16 -39c0 -16.667 -5.33301 -30.834 -16 -42.501s-25.667 -17.5 -45 -17.5c-18.667 0 -32.834 5.66699 -42.501 17s-14.5 25.666 -14.5 42.999zM65 358.002
c0 14 4.83301 27.002 14.5 39.002s23.834 18 42.501 18c19.333 0 34.333 -6 45 -18s16 -25 16 -39c0 -16.667 -5.33301 -30.834 -16 -42.501s-25.667 -17.5 -45 -17.5c-18.667 0 -32.834 5.66699 -42.501 17s-14.5 25.666 -14.5 42.999z" />
    <glyph glyph-name="semicolon" unicode=";" horiz-adv-x="250" 
d="M65 358c0 14 4.83301 27.002 14.5 39.002s23.834 18 42.501 18c19.333 0 34.333 -6 45 -18s16 -25 16 -39c0 -16.667 -5.33301 -30.834 -16 -42.501s-25.667 -17.5 -45 -17.5c-18.667 0 -32.834 5.66699 -42.501 17s-14.5 25.666 -14.5 42.999zM60 52.002
c0 14.667 5.33496 28.002 16.002 40.002s25.334 18 44.001 18c12.667 0 23.334 -2.5 32.001 -7.5s15.667 -11.333 21 -19s9.16602 -16.334 11.499 -26.001s3.5 -18.834 3.5 -27.501c0 -18.667 -3 -36.5 -9 -53.5s-13.833 -32.5 -23.5 -46.5s-20.834 -26.5 -33.501 -37.5
s-25.667 -19.5 -39 -25.5l-30 39c15.333 11.333 27.666 23.833 36.999 37.5s14.666 30.5 15.999 50.5c-14 1.33301 -25.167 7.5 -33.5 18.5s-12.5 24.167 -12.5 39.5z" />
    <glyph glyph-name="less" unicode="&#x3c;" horiz-adv-x="500" 
d="M453 63l-407 202v60l407 203v-71l-326 -162l326 -161v-71z" />
    <glyph glyph-name="equal" unicode="=" horiz-adv-x="500" 
d="M29 357v67h441v-67h-441zM29 165v67h441v-67h-441z" />
    <glyph glyph-name="greater" unicode="&#x3e;" horiz-adv-x="500" 
d="M46 134l326 161l-326 162v71l407 -203v-60l-407 -202v71z" />
    <glyph glyph-name="question" unicode="?" horiz-adv-x="459" 
d="M217 700c26.667 0 51.501 -4.49609 74.501 -13.4961s43.167 -21.167 60.5 -36.5s31 -33.833 41 -55.5s15 -44.834 15 -69.501c0 -28.667 -7.16699 -55.5 -21.5 -80.5s-30.333 -49.333 -48 -73s-33.667 -46.667 -48 -69s-21.5 -44.833 -21.5 -67.5v-45h-86v42
c0 23.333 3.16699 44.166 9.5 62.499s14.166 35 23.499 50s19.5 29.167 30.5 42.5s21.167 26.666 30.5 39.999s17.166 27.166 23.499 41.499s9.5 30.5 9.5 48.5c0 28 -9.5 51.5 -28.5 70.5s-43.5 28.5 -73.5 28.5c-25.333 0 -49.833 -4.16699 -73.5 -12.5
s-44.167 -19.833 -61.5 -34.5l-44 70c29.333 22 59.333 37.667 90 47s63.334 14 98.001 14zM171.001 55.0039c0 14 4.83301 27.002 14.5 39.002s23.834 18 42.501 18c19.333 0 34.333 -6 45 -18s16 -25 16 -39c0 -16.667 -5.33301 -30.834 -16 -42.501
s-25.667 -17.5 -45 -17.5c-18.667 0 -32.834 5.66699 -42.501 17s-14.5 25.666 -14.5 42.999z" />
    <glyph glyph-name="at" unicode="@" horiz-adv-x="832" 
d="M803 371c0 -35.333 -5.16797 -66.333 -15.501 -93s-23.333 -48.667 -39 -66s-33.167 -30.333 -52.5 -39s-38 -13 -56 -13c-30 0 -54.5 4.83301 -73.5 14.5s-33.5 22.167 -43.5 37.5c-21.333 -11.333 -44 -22 -68 -32s-48.667 -15 -74 -15
c-37.333 0 -67.166 10.667 -89.499 32s-33.5 50.333 -33.5 87c0 22 4.83301 40.333 14.5 55s21.667 26.667 36 36s29.5 16 45.5 20s30.667 6 44 6h110v23c0 28.667 -8.83301 48.334 -26.5 59.001s-39.834 16 -66.501 16c-12.667 0 -27.334 -2 -44.001 -6s-35 -14 -55 -30
l-37 50c25.333 20 49.333 33.5 72 40.5s44.667 10.5 66 10.5c50 0 89.167 -11.667 117.5 -35s42.5 -58.333 42.5 -105v-150c0 -19.333 5.33301 -33 16 -41s25.667 -12 45 -12c12 0 24 3 36 9s22.833 15.333 32.5 28s17.5 28.5 23.5 47.5s9 41.167 9 66.5
c0 40 -6.83301 77.667 -20.5 113s-33.334 66.166 -59.001 92.499s-56.667 47 -93 62s-77.166 22.5 -122.499 22.5s-88.333 -8 -129 -24s-76.167 -37.833 -106.5 -65.5s-54.333 -60.334 -72 -98.001s-26.5 -78.167 -26.5 -121.5c0 -44 7.83301 -84.667 23.5 -122
s37.334 -69.666 65.001 -96.999s60.5 -48.666 98.5 -63.999s79.667 -23 125 -23c19.333 0 38.833 1.83301 58.5 5.5s42.834 10.834 69.501 21.501l22 -61c-32 -12.667 -60.667 -20.5 -86 -23.5s-46.666 -4.5 -63.999 -4.5c-54 0 -104 9.16699 -150 27.5
s-85.833 43.666 -119.5 75.999s-59.834 71 -78.501 116s-28 94.167 -28 147.5s10.667 102.666 32 147.999s50 84.5 86 117.5s78.167 58.833 126.5 77.5s99.5 28 153.5 28c56.667 0 107.167 -9.33301 151.5 -28s81.833 -44 112.5 -76s54.167 -69.333 70.5 -112
s24.5 -88 24.5 -136zM507.999 341l-99 0.000976562c-8 0 -16.667 -0.5 -26 -1.5s-18 -3.5 -26 -7.5s-14.667 -9.83301 -20 -17.5s-8 -17.834 -8 -30.501c0 -18 6 -31.667 18 -41s27.667 -14 47 -14c10 0 20.167 1.33301 30.5 4s20.5 6.16699 30.5 10.5s19.5 9 28.5 14
l24.5 13.5v70z" />
    <glyph glyph-name="A" unicode="A" horiz-adv-x="597" 
d="M490 0l-54 155h-274l-53 -155h-96l240 689h93l241 -689h-97zM297 563l-50 -160l-55 -164h215l-55 164l-51 160h-4z" />
    <glyph glyph-name="B" unicode="B" horiz-adv-x="593" 
d="M550 202c0 -24.667 -4.16699 -49.0029 -12.5 -73.0029s-20.666 -45.5 -36.999 -64.5s-36.833 -34.5 -61.5 -46.5s-53 -18 -85 -18h-297v689h286c31.333 0 59.166 -5 83.499 -15s44.833 -23.333 61.5 -40s29.334 -36 38.001 -58s13 -45 13 -69
c0 -27.333 -6.33301 -54.166 -19 -80.499s-34.667 -48.166 -66 -65.499c33.333 -17.333 57.666 -40.666 72.999 -69.999s23 -59 23 -89zM448 504.997c0 36 -11.499 61.667 -34.499 77s-52.5 23 -88.5 23h-175v-203h183c15.333 0 30 2.16699 44 6.5s26.167 10.833 36.5 19.5
s18.666 19.5 24.999 32.5s9.5 27.833 9.5 44.5zM459.001 201.997c0 18.667 -3.50098 35.167 -10.501 49.5s-16.333 26.5 -28 36.5s-25 17.667 -40 23s-30.5 8 -46.5 8h-184v-236h186c40.667 0 71.334 10.333 92.001 31s31 50 31 88z" />
    <glyph glyph-name="C" unicode="C" horiz-adv-x="527" 
d="M303 696c37.333 0 72.332 -5 104.999 -15s62 -25.667 88 -47l-46 -72c-18 15.333 -40.5 27.333 -67.5 36s-53.5 13 -79.5 13c-19.333 0 -38.333 -3 -57 -9s-35.334 -15.333 -50.001 -28s-26.5 -29 -35.5 -49s-13.5 -44.333 -13.5 -73v-215
c0 -28 4.66699 -52.167 14 -72.5s21.333 -36.833 36 -49.5s31.167 -22 49.5 -28s36.5 -9 54.5 -9c26 0 52.5 3.66699 79.5 11s51.167 19.666 72.5 36.999l44 -71c-21.333 -17.333 -49 -32 -83 -44s-71 -18 -111 -18c-33.333 0 -65.166 5.16699 -95.499 15.5
s-56.833 25.166 -79.5 44.499s-40.667 43 -54 71s-20 59.667 -20 95v252c0 34.667 6.83301 65.834 20.5 93.501s31.834 51.334 54.501 71.001s49 34.667 79 45s61.667 15.5 95 15.5z" />
    <glyph glyph-name="D" unicode="D" horiz-adv-x="605" 
d="M552 224c0 -33.333 -6.16797 -63.832 -18.501 -91.499s-29.166 -51.334 -50.499 -71.001s-46.333 -34.834 -75 -45.501s-59.334 -16 -92.001 -16h-258v689h259c32.667 0 63.334 -5.16699 92.001 -15.5s53.667 -25.166 75 -44.499s38 -43 50 -71s18 -59.333 18 -94v-240z
M457.999 448.001c0 28.667 -4.66895 52.999 -14.002 72.999s-21.666 36.333 -36.999 49s-32.833 21.667 -52.5 27s-39.5 8 -59.5 8h-145v-523h145c18.667 0 37.834 2.66699 57.501 8s37.167 14.333 52.5 27s28 28.834 38 48.501s15 44.167 15 73.5v209z" />
    <glyph glyph-name="E" unicode="E" horiz-adv-x="557" 
d="M61 0v689h460v-84h-368v-219h315v-83h-315v-220h368v-83h-460z" />
    <glyph glyph-name="F" unicode="F" horiz-adv-x="535" 
d="M153 605v-218h315v-84h-315v-303h-92v689h460v-84h-368z" />
    <glyph glyph-name="G" unicode="G" horiz-adv-x="580" 
d="M531 83c-14 -16 -30 -29.834 -48 -41.501s-36.833 -21 -56.5 -28s-39.667 -12.167 -60 -15.5s-39.833 -5 -58.5 -5c-33.333 0 -65.333 5.16699 -96 15.5s-57.667 25.166 -81 44.499s-42 43 -56 71s-21 59.667 -21 95v252c0 34.667 7 65.834 21 93.501
s33 51.334 57 71.001s51.833 34.667 83.5 45s65.167 15.5 100.5 15.5c38 0 73.167 -5 105.5 -15s61.5 -25.667 87.5 -47l-46 -72c-18 15.333 -40.5 27.333 -67.5 36s-53.5 13 -79.5 13c-21.333 0 -42 -3 -62 -9s-38 -15.333 -54 -28s-28.833 -29 -38.5 -49
s-14.5 -44.333 -14.5 -73v-215c0 -28 4.5 -52.167 13.5 -72.5s21 -36.833 36 -49.5s32.167 -22 51.5 -28s39.333 -9 60 -9c15.333 0 35 2.16699 59 6.5s48.333 15.833 73 34.5v161h-110v83h201v-280v0z" />
    <glyph glyph-name="H" unicode="H" horiz-adv-x="617" 
d="M469 0v307h-323v-307h-92v689h92v-298h323v298h94v-689h-94z" />
    <glyph glyph-name="I" unicode="I" horiz-adv-x="252" 
d="M80 0v689h92v-689h-92z" />
    <glyph glyph-name="J" unicode="J" horiz-adv-x="521" 
d="M440 222c0 -35.333 -6.16699 -67.166 -18.5 -95.499s-29.333 -52.333 -51 -72s-46.834 -34.834 -75.501 -45.501s-59 -16 -91 -16c-31.333 0 -64.5 4.33301 -99.5 13s-64.833 21.667 -89.5 39l43 74c23.333 -14.667 45.833 -25.167 67.5 -31.5s42.834 -9.5 63.501 -9.5
c23.333 0 44.833 3 64.5 9s36.5 15.5 50.5 28.5s24.833 29.833 32.5 50.5s11.5 46 11.5 76v447h92v-467v0z" />
    <glyph glyph-name="K" unicode="K" horiz-adv-x="572" 
d="M156 331l292 358h111l-222 -272l245 -417h-108l-199 341l-126 -150v-191h-92v689h92v-358h7z" />
    <glyph glyph-name="L" unicode="L" horiz-adv-x="535" 
d="M66 0v689h92v-606h368v-83h-460z" />
    <glyph glyph-name="M" unicode="M" horiz-adv-x="742" 
d="M378 225l85 183l137 281h85v-689h-92v469h-5l-63 -133l-116 -234h-69l-110 215l-75 152h-5v-469h-92v689h88l139 -281l87 -183h6z" />
    <glyph glyph-name="N" unicode="N" horiz-adv-x="645" 
d="M494 173v516h92v-689h-89l-241 360l-98 151h-7v-511h-92v689h87l249 -373l92 -143h7z" />
    <glyph glyph-name="O" unicode="O" horiz-adv-x="613" 
d="M561 225c0 -35.333 -6.50098 -67.333 -19.501 -96s-31 -53 -54 -73s-50 -35.5 -81 -46.5s-64.5 -16.5 -100.5 -16.5c-37.333 0 -71.666 5.5 -102.999 16.5s-58.166 26.5 -80.499 46.5s-39.666 44.333 -51.999 73s-18.5 60.667 -18.5 96v238
c0 34.667 6.16699 66.334 18.5 95.001s29.666 53.167 51.999 73.5s49.166 36.166 80.499 47.499s65.666 17 102.999 17c36.667 0 70.667 -5.66699 102 -17s58.333 -27.166 81 -47.499s40.334 -44.833 53.001 -73.5s19 -60.334 19 -95.001v-238zM467.999 452
c0 28 -4.33301 52 -13 72s-20.334 36.5 -35.001 49.5s-31.834 22.5 -51.501 28.5s-40.5 9 -62.5 9s-42.833 -3 -62.5 -9s-36.667 -15.5 -51 -28.5s-25.833 -29.5 -34.5 -49.5s-13 -44 -13 -72v-216c0 -28 4.33301 -52 13 -72s20.334 -36.333 35.001 -49
s31.834 -22 51.501 -28s40.167 -9 61.5 -9c22 0 42.667 3 62 9s36.5 15.333 51.5 28s26.833 29 35.5 49s13 44 13 72v216z" />
    <glyph glyph-name="P" unicode="P" horiz-adv-x="554" 
d="M535 483c0 -24.667 -4.49902 -49.167 -13.499 -73.5s-21.833 -46.333 -38.5 -66s-37 -35.667 -61 -48s-51.333 -18.5 -82 -18.5h-194v-277h-92v689h286c33.333 0 62.166 -6.16699 86.499 -18.5s44.5 -28.333 60.5 -48s28 -41.667 36 -66s12 -48.833 12 -73.5z
M444.001 483c0 37.333 -11.5 67 -34.5 89s-52.5 33 -88.5 33h-175v-243h175c36 0 65.5 10.667 88.5 32s34.5 51 34.5 89z" />
    <glyph glyph-name="Q" unicode="Q" horiz-adv-x="628" 
d="M445 -175c-61.333 -7.33301 -106.331 1.00195 -134.998 25.002s-43 57 -43 99v47c-31.333 4 -60 12.167 -86 24.5s-48.167 28.333 -66.5 48s-32.5 42.667 -42.5 69s-15 55.5 -15 87.5v238c0 34.667 6.16699 66.334 18.5 95.001s29.666 53.167 51.999 73.5
s49.166 36.166 80.499 47.499s65.666 17 102.999 17c36.667 0 70.667 -5.66699 102 -17s58.333 -27.166 81 -47.499s40.334 -44.833 53.001 -73.5s19 -60.334 19 -95.001v-238c0 -32 -5.33301 -61.333 -16 -88s-25.667 -49.834 -45 -69.501s-42.166 -35.667 -68.499 -48
s-54.833 -20.166 -85.5 -23.499v-19c0 -17.333 1.66699 -31.5 5 -42.5s8.66602 -19.333 15.999 -25s17 -9.33398 29 -11.001s26.667 -1.83398 44 -0.500977v-73zM473.002 452.002c0 28 -4.33301 52 -13 72s-20.334 36.5 -35.001 49.5s-31.834 22.5 -51.501 28.5
s-40.5 9 -62.5 9s-42.833 -3 -62.5 -9s-36.667 -15.5 -51 -28.5s-25.833 -29.5 -34.5 -49.5s-13 -44 -13 -72v-216c0 -28 4.33301 -52 13 -72s20.334 -36.333 35.001 -49s31.834 -22 51.501 -28s40.167 -9 61.5 -9c22 0 42.667 3 62 9s36.5 15.333 51.5 28
s26.833 29 35.5 49s13 44 13 72v216z" />
    <glyph glyph-name="R" unicode="R" horiz-adv-x="572" 
d="M343 689c34.667 0 64.333 -6.16602 89 -18.499s45 -28.333 61 -48s27.667 -41.667 35 -66s11 -48.833 11 -73.5c0 -19.333 -2.66699 -38.5 -8 -57.5s-13.333 -36.833 -24 -53.5s-23.5 -31.834 -38.5 -45.501s-32.167 -24.5 -51.5 -32.5l129 -294h-102l-117 277h-178v-277
h-92v689h286zM446.999 483.001c0 37.333 -11.5 67 -34.5 89s-52.5 33 -88.5 33h-175v-243h175c36 0 65.5 10.667 88.5 32s34.5 51 34.5 89z" />
    <glyph glyph-name="S" unicode="S" horiz-adv-x="556" 
d="M525 191c0 -30.667 -5.83105 -58.1641 -17.498 -82.4971s-28.334 -45 -50.001 -62s-47.5 -30 -77.5 -39s-63.333 -13.5 -100 -13.5c-47.333 0 -91.833 6.66699 -133.5 20s-81.834 35 -120.501 65l52 66c30.667 -21.333 63.167 -38 97.5 -50s69.5 -18 105.5 -18
c46.667 0 83.334 10 110.001 30s40 48 40 84c0 22.667 -5.16699 41.167 -15.5 55.5s-23.666 25.833 -39.999 34.5s-34.333 15.334 -54 20.001s-38.834 9 -57.501 13c-27.333 5.33301 -53.666 12.166 -78.999 20.499s-47.666 19.833 -66.999 34.5s-35 32.834 -47 54.501
s-18 48.5 -18 80.5c0 28.667 5.16699 55.167 15.5 79.5s25.166 45.166 44.499 62.499s42.666 31 69.999 41s58.333 15 93 15c40 0 79 -3.66699 117 -11s74.333 -21.666 109 -42.999l-43 -78c-29.333 17.333 -59.833 29.666 -91.5 36.999s-62.5 11 -92.5 11
c-18 0 -35 -2.33301 -51 -7s-30 -11.834 -42 -21.501s-21.5 -21.834 -28.5 -36.501s-10.5 -31.667 -10.5 -51s5 -35 15 -47s22.667 -21.833 38 -29.5s32 -13.834 50 -18.501s35 -8.66699 51 -12c28.667 -6.66699 56.667 -14.167 84 -22.5s51.666 -19.833 72.999 -34.5
s38.5 -33.667 51.5 -57s19.5 -53.333 19.5 -90z" />
    <glyph glyph-name="T" unicode="T" horiz-adv-x="522" 
d="M308 604v-604h-93v604h-199v85h490v-85h-198z" />
    <glyph glyph-name="U" unicode="U" horiz-adv-x="610" 
d="M561 218c0 -35.333 -6.83496 -67 -20.502 -95s-32.167 -51.667 -55.5 -71s-50.333 -34 -81 -44s-63.334 -15 -98.001 -15s-67.5 5 -98.5 15s-58 24.667 -81 44s-41.167 43 -54.5 71s-20 59.667 -20 95v471h93v-454c0 -28 4.33301 -52 13 -72s20.334 -36.333 35.001 -49
s31.834 -22 51.501 -28s40.167 -9 61.5 -9c20.667 0 40.834 3 60.501 9s37 15.333 52 28s27 29 36 49s13.5 44 13.5 72v454h93v-471v0z" />
    <glyph glyph-name="V" unicode="V" horiz-adv-x="565" 
d="M285 142l70 236l98 311h101l-222 -689h-100l-222 689h101l101 -323l67 -224h6z" />
    <glyph glyph-name="W" unicode="W" horiz-adv-x="862" 
d="M428 524l-52 -216l-80 -308h-104l-182 689h100l78 -317l54 -228h5l55 229l80 316h97l82 -326l53 -219h5l52 222l80 323h100l-182 -689h-104l-81 312l-50 212h-6z" />
    <glyph glyph-name="X" unicode="X" horiz-adv-x="550" 
d="M435 0l-160 278l-159 -278h-107l214 353l-200 336h107l145 -260l146 260h107l-200 -336l214 -353h-107z" />
    <glyph glyph-name="Y" unicode="Y" horiz-adv-x="537" 
d="M272 364l74 166l78 159h100l-209 -424v-265h-93v264l-210 425h101l80 -164l72 -161h7z" />
    <glyph glyph-name="Z" unicode="Z" horiz-adv-x="523" 
d="M488 610l-344 -527h343v-83h-450v81l340 524h-326v84h437v-79z" />
    <glyph glyph-name="bracketleft" unicode="[" horiz-adv-x="261" 
d="M73 -105v803h169v-56h-94v-691h94v-56h-169z" />
    <glyph glyph-name="backslash" unicode="\" horiz-adv-x="317" 
d="M-1 725h65l251 -767h-65z" />
    <glyph glyph-name="bracketright" unicode="]" horiz-adv-x="261" 
d="M27 -105v56h93v691h-93v56h168v-803h-168z" />
    <glyph glyph-name="asciicircum" unicode="^" horiz-adv-x="500" 
d="M23 328l202 367h60l203 -367h-71l-162 295l-161 -295h-71z" />
    <glyph glyph-name="underscore" unicode="_" horiz-adv-x="500" 
d="M0 -129v60h500v-60h-500z" />
    <glyph glyph-name="grave" unicode="`" horiz-adv-x="491" 
d="M294 551l-100 172l81 25l72 -177z" />
    <glyph glyph-name="a" unicode="a" horiz-adv-x="496" 
d="M360 48c-39.333 -22 -71.499 -36.1689 -96.499 -42.502s-47.5 -9.5 -67.5 -9.5c-48 0 -86.333 13.333 -115 40s-43 63 -43 109c0 27.333 6.16699 50.333 18.5 69s27.666 33.834 45.999 45.501s38 20 59 25s39.833 7.5 56.5 7.5h145v38
c0 34.667 -9.66699 58.834 -29 72.501s-47 20.5 -83 20.5c-17.333 0 -38.5 -2.5 -63.5 -7.5s-50.167 -17.833 -75.5 -38.5l-42 65c32 24.667 64.333 40.667 97 48s63 11 91 11c64.667 0 112.5 -14.167 143.5 -42.5s46.5 -71.833 46.5 -130.5v-328h-75l-10 46z
M363.001 220.998l-131 0.000976562c-10.667 0 -22.167 -0.833008 -34.5 -2.5s-23.833 -5 -34.5 -10s-19.5 -12.667 -26.5 -23s-10.5 -23.833 -10.5 -40.5c0 -24 8.16699 -42 24.5 -54s37.166 -18 62.499 -18c12.667 0 25.834 1.83301 39.501 5.5s27 8.16699 40 13.5
s25.5 11.166 37.5 17.499l33 17.5v94z" />
    <glyph glyph-name="b" unicode="b" horiz-adv-x="501" 
d="M454 172c0 -56.667 -15.5 -100.331 -46.5 -130.998s-71.167 -46 -120.5 -46c-17.333 0 -38.333 3 -63 9s-55.667 20.333 -93 43l-10 -47h-76v716h86v-272c41.333 23.333 74 38.666 98 45.999s44.667 11 62 11c54 0 94.667 -15.333 122 -46s41 -74.334 41 -131.001v-152z
M368 313.003c0 38.667 -8.00098 65.6689 -24.001 81.002s-37.333 23 -64 23c-20.667 0 -44.167 -6 -70.5 -18s-52.5 -26.333 -78.5 -43v-226c10.667 -7.33301 22.667 -14.333 36 -21s26.833 -12.334 40.5 -17.001s26.834 -8.33398 39.501 -11.001s23.667 -4 33 -4
c26 0 47.167 8 63.5 24s24.5 43 24.5 81v131z" />
    <glyph glyph-name="c" unicode="c" horiz-adv-x="429" 
d="M243 501c28.667 0 57.832 -3.83301 87.499 -11.5s56.167 -24.167 79.5 -49.5l-51 -65c-22 20.667 -42.5 33.5 -61.5 38.5s-35.833 7.5 -50.5 7.5c-12.667 0 -25.834 -2 -39.501 -6s-26 -10.667 -37 -20s-20 -21.5 -27 -36.5s-10.5 -33.167 -10.5 -54.5v-112
c0 -21.333 3.33301 -39.5 10 -54.5s15.334 -27.167 26.001 -36.5s22.834 -16 36.501 -20s27.5 -6 41.5 -6c14.667 0 32.5 3 53.5 9s39.167 16.667 54.5 32l53 -60c-23.333 -23.333 -49.166 -39.333 -77.499 -48s-56.833 -13 -85.5 -13c-29.333 0 -56 4.33301 -80 13
s-44.833 20.667 -62.5 36s-31.334 33.833 -41.001 55.5s-14.5 45.5 -14.5 71.5v147c0 28 5.33301 53.333 16 76s25 42 43 58s38.833 28.167 62.5 36.5s48.5 12.5 74.5 12.5z" />
    <glyph glyph-name="d" unicode="d" horiz-adv-x="501" 
d="M380 0l-10 52c-39.333 -23.333 -70.833 -38.666 -94.5 -45.999s-44.5 -11 -62.5 -11c-24 0 -46.167 3.5 -66.5 10.5s-37.833 17.667 -52.5 32s-26.167 32.666 -34.5 54.999s-12.5 48.833 -12.5 79.5v152c0 28 4.5 53 13.5 75s21.333 40.5 37 55.5s34.167 26.5 55.5 34.5
s44 12 68 12c18 0 39.167 -2 63.5 -6s52.833 -11.333 85.5 -22v243h85v-716h-75zM370 389c-26.667 9.33301 -51.6641 16.832 -74.9971 22.499s-45.333 8.5 -66 8.5c-26.667 0.666992 -49.334 -7.16602 -68.001 -23.499s-28 -43.833 -28 -82.5v-137c0 -38 8 -64.167 24 -78.5
s37.333 -21.5 64 -21.5c9.33301 0 20.333 1.5 33 4.5s25.667 7.16699 39 12.5s26.666 11.5 39.999 18.5s25.666 14.5 36.999 22.5v254z" />
    <glyph glyph-name="e" unicode="e" horiz-adv-x="483" 
d="M133 216l-0.00195312 -33c0 -20 3.33301 -36.833 10 -50.5s15.834 -25 27.501 -34s25 -15.5 40 -19.5s30.5 -6 46.5 -6c16.667 0 36 3.33301 58 10s43.333 19.667 64 39l54 -59c-25.333 -26 -53.5 -43.833 -84.5 -53.5s-62.167 -14.5 -93.5 -14.5
c-28 0 -54.667 3.83301 -80 11.5s-47.5 19 -66.5 34s-34 33.833 -45 56.5s-16.5 49 -16.5 79v131c0 29.333 5 56 15 80s23.833 44.333 41.5 61s38.667 29.5 63 38.5s51.166 13.5 80.499 13.5s56.333 -4.33301 81 -13s45.834 -21 63.501 -37s31.334 -35.5 41.001 -58.5
s14.5 -48.833 14.5 -77.5v-98h-314zM359.998 305c0 20.667 -3.00098 38.3301 -9.00098 52.9971s-14.167 26.834 -24.5 36.501s-22.333 16.667 -36 21s-28.167 6.5 -43.5 6.5s-29.666 -2.33301 -42.999 -7s-25.333 -11.667 -36 -21s-19 -21.166 -25 -35.499
s-9 -31.166 -9 -50.499v-22h226v19z" />
    <glyph glyph-name="f" unicode="f" horiz-adv-x="303" 
d="M172 419v-419h-85v419h-61v77h61v90c0 44 12.667 76.667 38 98s56 32 92 32h89v-76h-81c-21.333 0 -35.5 -6.33301 -42.5 -19s-10.5 -27.667 -10.5 -45v-80h134v-77h-134z" />
    <glyph glyph-name="g" unicode="g" horiz-adv-x="499" 
d="M209 501c18 0 39.168 -3.83398 63.501 -11.501s55.166 -23.167 92.499 -46.5l10 53h76v-526c0 -28.667 -5.83301 -54 -17.5 -76s-27.334 -40.5 -47.001 -55.5s-42.167 -26.333 -67.5 -34s-51.666 -11.5 -78.999 -11.5c-29.333 0 -59.833 5 -91.5 15
s-60.834 26.667 -87.501 50l53 63c8 -7.33301 17.167 -14 27.5 -20s21.333 -11 33 -15s23 -7.16699 34 -9.5s21.167 -3.5 30.5 -3.5c16 0 31.5 2 46.5 6s28.5 10.667 40.5 20s21.5 21.333 28.5 36s10.5 32.667 10.5 54v58c-33.333 -20.667 -63.166 -34.5 -89.499 -41.5
s-48.5 -10.5 -66.5 -10.5c-48.667 0 -88.5 15.167 -119.5 45.5s-46.5 73.833 -46.5 130.5v153c0 56.667 15.5 100.334 46.5 131.001s70.833 46 119.5 46zM365.001 355.999c-24.667 18 -50.668 32.665 -78.001 43.998s-50.666 17 -69.999 17
c-27.333 0 -48.833 -7.66699 -64.5 -23s-23.5 -42.666 -23.5 -81.999v-130c0 -38 8 -65.167 24 -81.5s37.333 -24.166 64 -23.499c20.667 0 44.5 4.83301 71.5 14.5s52.5 22.167 76.5 37.5v227z" />
    <glyph glyph-name="h" unicode="h" horiz-adv-x="497" 
d="M296 501c54 0 94.168 -15.332 120.501 -45.999s39.5 -74.334 39.5 -131.001v-324h-86v313c0 38.667 -8.33301 65.667 -25 81s-37.667 23 -63 23c-20.667 0 -44.334 -5 -71.001 -15s-52.667 -23.333 -78 -40v-362h-86v716h86v-276c40 26 72.667 42.667 98 50s47 11 65 11z
" />
    <glyph glyph-name="i" unicode="i" horiz-adv-x="227" 
d="M167 646c0 -14.667 -5.33301 -27.334 -16 -38.001s-23.334 -16 -38.001 -16c-14 0 -26.333 5.33301 -37 16s-16 23.334 -16 38.001s5.33301 27.167 16 37.5s23 15.5 37 15.5c14.667 0 27.334 -5.16699 38.001 -15.5s16 -22.833 16 -37.5zM71 0v496h85v-496h-85z" />
    <glyph glyph-name="j" unicode="j" horiz-adv-x="243" 
d="M183 646c0 -14 -4.83301 -26 -14.5 -36s-21.5 -15 -35.5 -15s-25.833 5 -35.5 15s-14.5 22 -14.5 36s4.83301 25.833 14.5 35.5s21.5 14.5 35.5 14.5s25.833 -4.83301 35.5 -14.5s14.5 -21.5 14.5 -35.5zM91 495h85v-547c0 -55.333 -12.667 -94.5 -38 -117.5
s-61 -34.5 -107 -34.5h-49v78h39c26.667 0 45 5.83301 55 17.5s15 34.5 15 68.5v535z" />
    <glyph glyph-name="k" unicode="k" horiz-adv-x="481" 
d="M46 0l-0.00195312 716.001h85v-390h73c20.667 0 39.334 3.83301 56.001 11.5s31.667 25.167 45 52.5l55 108h96l-60 -126c-9.33301 -19.333 -19.333 -35.666 -30 -48.999s-26 -23.666 -46 -30.999c14 -4.66699 25.667 -10.834 35 -18.501s17 -16.167 23 -25.5
s11 -19.333 15 -30s7.66699 -21.334 11 -32.001l62 -186h-95l-52 159c-5.33301 16.667 -11.166 30.5 -17.499 41.5s-13.333 19.667 -21 26s-16.5 10.666 -26.5 12.999s-21.667 3.5 -35 3.5h-88v-243h-85z" />
    <glyph glyph-name="l" unicode="l" horiz-adv-x="277" 
d="M168 132c0 -26 5.83008 -42.167 17.4971 -48.5s31.167 -8.83301 58.5 -7.5l2 -78c-9.33301 -1.33301 -18.166 -2.33301 -26.499 -3s-16.166 -1 -23.499 -1c-23.333 0 -42.166 2.83301 -56.499 8.5s-25.833 14 -34.5 25s-14.5 24.333 -17.5 40s-4.5 33.5 -4.5 53.5v595h85
v-584z" />
    <glyph glyph-name="m" unicode="m" horiz-adv-x="757" 
d="M275 501c30 0 55.6689 -6.49902 77.002 -19.499s37.666 -31.833 48.999 -56.5c20 16 38 29 54 39s30.333 17.833 43 23.5s24 9.33398 34 11.001s19.667 2.5 29 2.5c47.333 0 84.666 -13 111.999 -39s41 -67 41 -123v-339h-86v321c0 33.333 -6.33301 57.666 -19 72.999
s-33.667 23 -63 23c-17.333 0 -36.5 -5.33301 -57.5 -16s-44.5 -26 -70.5 -46c1.33301 -6 2.16602 -11.333 2.49902 -16s0.5 -10.334 0.5 -17.001v-322h-86v324c0 34 -7.16699 58 -21.5 72s-32.166 21 -53.499 21c-20.667 0 -40.834 -3.83301 -60.501 -11.5
s-43.5 -21.167 -71.5 -40.5v-365h-86v496h76l9 -57c18 13.333 34.167 24 48.5 32s27.333 14.333 39 19s22.334 7.66699 32.001 9s19.167 2 28.5 2z" />
    <glyph glyph-name="n" unicode="n" horiz-adv-x="497" 
d="M298 501c48.667 0 86.666 -15.333 113.999 -46s41 -74.334 41 -131.001v-324h-86v313c0 38.667 -8.33301 65.834 -25 81.501s-37.667 23.167 -63 22.5c-20 0 -43.5 -5.16699 -70.5 -15.5s-53.167 -23.5 -78.5 -39.5v-362h-86v496h76l10 -55
c21.333 13.333 40.5 24 57.5 32s32.167 14 45.5 18s25.333 6.66699 36 8s20.334 2 29.001 2z" />
    <glyph glyph-name="o" unicode="o" horiz-adv-x="505" 
d="M458 175c0 -28.667 -5.49902 -54.167 -16.499 -76.5s-26 -41.166 -45 -56.499s-40.833 -27 -65.5 -35s-51 -12 -79 -12c-28.667 0 -55.334 4 -80.001 12s-46.167 19.667 -64.5 35s-32.833 34.166 -43.5 56.499s-16 47.833 -16 76.5v144c0 28.667 5.5 54.167 16.5 76.5
s25.667 41.333 44 57s40 27.667 65 36s51.5 12.5 79.5 12.5c30 0 57.5 -4.16699 82.5 -12.5s46.667 -20.333 65 -36s32.5 -34.667 42.5 -57s15 -47.833 15 -76.5v-144zM373.001 304c0 21.333 -3.66895 39.5 -11.002 54.5s-16.833 27.167 -28.5 36.5s-24.5 16 -38.5 20
s-27.667 6 -41 6c-14 0 -28 -2 -42 -6s-26.833 -10.667 -38.5 -20s-21.167 -21.5 -28.5 -36.5s-11 -33.167 -11 -54.5v-112c0 -21.333 3.16699 -39.5 9.5 -54.5s14.833 -27.167 25.5 -36.5s23.334 -16 38.001 -20s30.334 -6 47.001 -6c13.333 0 27 2 41 6
s26.833 10.667 38.5 20s21.167 21.5 28.5 36.5s11 33.167 11 54.5v112z" />
    <glyph glyph-name="p" unicode="p" horiz-adv-x="503" 
d="M125 495l10 -51.9971c39.333 23.333 70.833 38.666 94.5 45.999s44.5 11 62.5 11c48.667 0 88.5 -14.333 119.5 -43s46.5 -73.334 46.5 -134.001v-152c0 -56.667 -15.5 -100.334 -46.5 -131.001s-73.5 -46 -127.5 -46c-18 0 -39 1.83301 -63 5.5s-52.667 12.167 -86 25.5
v-223h-85v693h75zM135 106.003c30.667 -12.667 56.667 -21.001 78 -25.001s42.333 -6 63 -6c13.333 0 25.833 1.5 37.5 4.5s21.834 8.33301 30.501 16s15.5 18 20.5 31s7.5 29.167 7.5 48.5v142c0 38 -8 64.167 -24 78.5s-37.333 21.5 -64 21.5
c-9.33301 0 -20.333 -1.66699 -33 -5s-25.834 -7.66602 -39.501 -12.999s-27.167 -11.5 -40.5 -18.5s-25.333 -14.167 -36 -21.5v-253z" />
    <glyph glyph-name="q" unicode="q" horiz-adv-x="497" 
d="M368 -199v243.999c-38 -21.333 -69.167 -35 -93.5 -41s-45.5 -9 -63.5 -9c-48.667 0 -88.5 15.333 -119.5 46s-46.5 74.334 -46.5 131.001v152c0 56.667 15.5 100.334 46.5 131.001s70.833 46 119.5 46c18 0 39 -3.33301 63 -10s55.667 -21.334 95 -44.001l10 48h74v-694
h-85zM368 363.999c-26 16 -52.834 29.168 -80.501 39.501s-50.5 15.5 -68.5 15.5c-26.667 0 -48 -8 -64 -24s-24 -43 -24 -81v-131c0 -38.667 8.33301 -65.834 25 -81.501s37.667 -23.167 63 -22.5c20.667 0 43.834 4.5 69.501 13.5s52.167 22.167 79.5 39.5v232z" />
    <glyph glyph-name="r" unicode="r" horiz-adv-x="332" 
d="M328 411c-44.667 -4 -81.4971 -11.833 -110.497 -23.5s-51.167 -22.5 -66.5 -32.5v-355h-86v496h76l9 -73h1c8.66699 8.66699 19.667 17.667 33 27s27.666 17.833 42.999 25.5s31.666 14 48.999 19s34.666 7.5 51.999 7.5v-91z" />
    <glyph glyph-name="s" unicode="s" horiz-adv-x="454" 
d="M425 142c0 -23.333 -5.00195 -43.999 -15.002 -61.999s-23.667 -33.5 -41 -46.5s-38 -22.833 -62 -29.5s-50.333 -10 -79 -10c-34.667 0 -68.334 4.5 -101.001 13.5s-65.667 26.167 -99 51.5l47 63c24.667 -20.667 50 -34.834 76 -42.501s54.333 -11.5 85 -11.5
c12 0 24.167 1.5 36.5 4.5s23.333 7.5 33 13.5s17.5 13.833 23.5 23.5s9 21.167 9 34.5c0 21.333 -7.66699 36.666 -23 45.999s-34.666 16 -57.999 20c-25.333 4 -50.5 8.5 -75.5 13.5s-47.5 12.5 -67.5 22.5s-36.333 23.333 -49 40s-19 38.667 -19 66
c0 22.667 4.66699 43.334 14 62.001s22.333 34.334 39 47.001s35.834 22.5 57.501 29.5s45.167 10.5 70.5 10.5c37.333 0 70.333 -3.83301 99 -11.5s56.334 -21.167 83.001 -40.5l-43 -64c-23.333 14.667 -46 25 -68 31s-45.667 9 -71 9c-29.333 0 -53 -6.83301 -71 -20.5
s-27 -30.834 -27 -51.501c0 -17.333 7.33301 -30.333 22 -39s33 -15.5 55 -20.5s45.667 -9.66699 71 -14s49 -11.5 71 -21.5s40.333 -24 55 -42s22 -42.667 22 -74z" />
    <glyph glyph-name="t" unicode="t" horiz-adv-x="363" 
d="M356 12c-19.333 -6.66699 -39.499 -11.166 -60.499 -13.499s-36.5 -3.5 -46.5 -3.5c-52.667 0 -90.667 12 -114 36s-35 64 -35 120v268h-70v77h72l20 115h63v-115h138v-77h-138v-242c0 -20 1.83301 -36.5 5.5 -49.5s8.66699 -23.333 15 -31
s14.166 -12.834 23.499 -15.501s20 -4 32 -4c11.333 0 23.833 0.833008 37.5 2.5l43.5 5.5z" />
    <glyph glyph-name="u" unicode="u" horiz-adv-x="505" 
d="M382 0l-9.99805 53.001c-20.667 -12.667 -38.834 -22.834 -54.501 -30.501s-29.667 -13.5 -42 -17.5s-23.333 -6.66699 -33 -8s-18.834 -2 -27.501 -2c-52.667 0 -93.667 15.333 -123 46s-44 74.334 -44 131.001v324h86v-315c0 -38.667 8.5 -65.834 25.5 -81.501
s38.167 -23.167 63.5 -22.5c20 0 43.167 5.33301 69.5 16s52.833 25.667 79.5 45v358h86v-496h-76z" />
    <glyph glyph-name="v" unicode="v" horiz-adv-x="457" 
d="M234 116l56 183l64 196h93l-176 -495h-84l-177 495h94l65 -194l59 -185h6z" />
    <glyph glyph-name="w" unicode="w" horiz-adv-x="702" 
d="M352 340l-50 -158l-59 -182h-82l-141 496h89l46 -180l47 -186h4l59 181l47 137h87l52 -156l52 -162h5l43 175l48 191h85l-134 -496h-82l-61 185l-51 155h-4z" />
    <glyph glyph-name="x" unicode="x" horiz-adv-x="434" 
d="M325 0l-111 186l-114 -186h-101l168 254l-158 242h103l103 -173l105 173h102l-160 -240l167 -256h-104z" />
    <glyph glyph-name="y" unicode="y" horiz-adv-x="468" 
d="M113 -201l73 210l-42 35l-134 452h93l60 -218l55 -198h3l70 198l75 218h92l-253 -697h-92z" />
    <glyph glyph-name="z" unicode="z" horiz-adv-x="450" 
d="M41 0v68l261 351h-247v76h356v-70l-261 -349h261v-76h-370z" />
    <glyph glyph-name="braceleft" unicode="{" horiz-adv-x="261" 
d="M185 -103c-26 0 -47.833 8.33398 -65.5 25.001s-26.5 44 -26.5 82v139c0 35.333 -6.33301 64.666 -19 87.999s-32.334 36.666 -59.001 39.999v51c13.333 2 24.833 6.83301 34.5 14.5s17.834 17.334 24.501 29.001s11.5 25 14.5 40s4.5 30.5 4.5 46.5v136
c0 33.333 8.83301 59.666 26.5 78.999s39.5 29 65.5 29h68v-54h-41c-9.33301 0 -16.833 -2.66699 -22.5 -8s-10.334 -12.166 -14.001 -20.499s-6.16699 -17.666 -7.5 -27.999s-2 -20.5 -2 -30.5v-125c0 -21.333 -3 -39.833 -9 -55.5s-13 -28.834 -21 -39.501
s-16.167 -18.834 -24.5 -24.501s-15.166 -9.5 -20.499 -11.5v-3c5.33301 -2 12.166 -5.83301 20.499 -11.5s16.5 -13.834 24.5 -24.501s15 -23.667 21 -39s9 -33.333 9 -54v-130c0 -10 0.666992 -20.167 2 -30.5s3.83301 -19.666 7.5 -27.999
s8.33398 -15.166 14.001 -20.499s13.167 -8 22.5 -8h41v-53h-68z" />
    <glyph glyph-name="bar" unicode="|" horiz-adv-x="204" 
d="M70 -162v878h65v-878h-65z" />
    <glyph glyph-name="braceright" unicode="}" horiz-adv-x="261" 
d="M249 271c-26.667 -3.33301 -46.168 -16.666 -58.501 -39.999s-18.5 -52.666 -18.5 -87.999v-139c0 -32.667 -8.83301 -58.667 -26.5 -78s-39.5 -29 -65.5 -29h-69v53h42c8.66699 0 16 2.66699 22 8s10.667 12.166 14 20.499s5.83301 17.666 7.5 27.999s2.5 20.5 2.5 30.5
v130c0 20.667 2.83301 38.667 8.5 54s12.5 28.333 20.5 39s16.333 18.834 25 24.501s15.667 9.5 21 11.5v3c-5.33301 2 -12.333 5.83301 -21 11.5s-17 13.834 -25 24.501s-14.833 23.834 -20.5 39.501s-8.5 34.167 -8.5 55.5v125c0 10 -0.166992 20.167 -0.5 30.5
s-2 19.666 -5 27.999s-7.66699 15.166 -14 20.499s-15.166 8 -26.499 8h-42v50h66c32 0 55.833 -9.83301 71.5 -29.5s23.5 -44.5 23.5 -74.5v-136c0 -16 1.5 -31.5 4.5 -46.5s7.66699 -28.333 14 -40s14.333 -21.334 24 -29.001s21.167 -12.5 34.5 -14.5v-51v0z" />
    <glyph glyph-name="asciitilde" unicode="~" horiz-adv-x="500" 
d="M477 312c-18.667 -30 -38.166 -52.1689 -58.499 -66.502s-45.833 -21.5 -76.5 -21.5c-13.333 0 -27.833 3.16699 -43.5 9.5s-31.5 13.5 -47.5 21.5s-31.833 15.167 -47.5 21.5s-30.5 9.5 -44.5 9.5c-18 0 -32.5 -4.16699 -43.5 -12.5s-23.167 -21.166 -36.5 -38.499
l-53 39c18 30.667 38.5 52.334 61.5 65.001s47.5 19 73.5 19c15.333 0 31 -3.16699 47 -9.5s31.833 -13.333 47.5 -21s31 -14.667 46 -21s29.5 -9.5 43.5 -9.5c16.667 0 30.667 4.5 42 13.5s23.666 22.5 36.999 40.5l53 -39v0z" />
    <glyph glyph-name="exclamdown" unicode="&#xa1;" horiz-adv-x="237" 
d="M82 307h75l7 -507h-89zM178 441c0 -14 -4.83301 -27.002 -14.5 -39.002s-23.834 -18 -42.501 -18c-19.333 0 -34.333 6 -45 18s-16 25 -16 39c0 16.667 5.33301 30.834 16 42.501s25.667 17.5 45 17.5c18.667 0 32.834 -5.66699 42.501 -17s14.5 -25.666 14.5 -42.999z
" />
    <glyph glyph-name="cent" unicode="&#xa2;" horiz-adv-x="429" 
d="M221 -4c-26 2 -49.6689 7.83203 -71.002 17.499s-39.666 22 -54.999 37s-27.166 32.833 -35.499 53.5s-12.5 43 -12.5 67v147c0 26 4.66699 49.833 14 71.5s21.833 40.167 37.5 55.5s34 27.833 55 37.5s43.5 15.5 67.5 17.5v101h45v-101
c25.333 -1.33301 50.666 -6.16602 75.999 -14.499s48 -23.5 68 -45.5l-51 -65c-17.333 16.667 -33.833 28 -49.5 34s-30.167 9.66699 -43.5 11v-344c14 1.33301 29.167 5.33301 45.5 12s30.833 16 43.5 28l53 -60c-20.667 -20.667 -43.167 -35.5 -67.5 -44.5
s-49.166 -14.167 -74.499 -15.5v-113h-45v113zM132.998 191.999c0 -36.667 8.83105 -64 26.498 -82s38.167 -29 61.5 -33v341c-11.333 -2 -22.166 -5.83301 -32.499 -11.5s-19.666 -13 -27.999 -22s-15 -20.167 -20 -33.5s-7.5 -29 -7.5 -47v-112z" />
    <glyph glyph-name="sterling" unicode="&#xa3;" horiz-adv-x="500" 
d="M56 357l68.998 -0.00390625c-7.33301 26.667 -16 52.834 -26 78.501s-15 52.5 -15 80.5c0 22.667 4.33301 44.834 13 66.501s21 40.834 37 57.501s35.5 30 58.5 40s49.167 15 78.5 15c44 0 81.833 -7 113.5 -21s60.167 -38.667 85.5 -74l-64 -51
c-19.333 26 -40.666 43.833 -63.999 53.5s-46.666 14.5 -69.999 14.5c-9.33301 0 -19.5 -1.83301 -30.5 -5.5s-21.333 -9.5 -31 -17.5s-17.667 -18.5 -24 -31.5s-9.5 -28.5 -9.5 -46.5c0 -14 1.5 -27.667 4.5 -41s6.66699 -26.5 11 -39.5l13.5 -39
c4.66699 -13 8.33398 -26.167 11.001 -39.5h159v-68h-152c-1.33301 -36 -6 -71.667 -14 -107s-23.667 -70.666 -47 -105.999h306v-76h-413v64c24 32 44.167 66.5 60.5 103.5s25.166 77.5 26.499 121.5h-87v68z" />
    <glyph glyph-name="currency" unicode="&#xa4;" horiz-adv-x="556" 
d="M40 505c8.66699 9.33301 16.8379 17.666 24.5049 24.999l24.5 24l68 -68c19.333 12.667 38.666 22.167 57.999 28.5s39.666 9.5 60.999 9.5s41.666 -3.16699 60.999 -9.5s38.666 -15.833 57.999 -28.5l67 68l49 -50l-68 -67c25.333 -38.667 38 -78 38 -118
c0 -39.333 -12.667 -78.666 -38 -117.999l34 -32c12 -11.333 23.333 -22.666 34 -33.999l-49 -50l-67 68c-37.333 -26 -77 -39 -119 -39c-42.667 0 -82.334 13 -119.001 39l-68 -68c-6.66699 7.33301 -15 15.833 -25 25.5l-24 23.5l69 67
c-25.333 39.333 -38 78.666 -38 117.999c0 40 12.667 79.333 38 118zM142.004 319c0 -18 3.5 -35.167 10.5 -51.5s16.5 -30.5 28.5 -42.5s26 -21.5 42 -28.5s33.333 -10.5 52 -10.5s36.167 3.5 52.5 10.5s30.5 16.5 42.5 28.5s21.5 26.167 28.5 42.5s10.5 33.5 10.5 51.5
c0 18.667 -3.5 36.167 -10.5 52.5s-16.5 30.5 -28.5 42.5s-26.167 21.5 -42.5 28.5s-33.833 10.5 -52.5 10.5s-36 -3.5 -52 -10.5s-30 -16.5 -42 -28.5s-21.5 -26.167 -28.5 -42.5s-10.5 -33.833 -10.5 -52.5z" />
    <glyph glyph-name="yen" unicode="&#xa5;" horiz-adv-x="500" 
d="M46 215h160v49l-15 33h-145v61h118l-148 331h101l132 -319h7l132 319h100l-148 -331h117v-61h-144l-14 -32v-50h158v-57h-158v-158h-93v158h-160v57z" />
    <glyph glyph-name="brokenbar" unicode="&#xa6;" horiz-adv-x="204" 
d="M70 304v412h65v-412h-65zM135 246v-408h-65v408h65z" />
    <glyph glyph-name="section" unicode="&#xa7;" horiz-adv-x="444" 
d="M398 312c0 -26 -4.83594 -48.9961 -14.5029 -68.9961s-24.167 -39 -43.5 -57c8 -9.33301 15.5 -21.5 22.5 -36.5s10.5 -32.167 10.5 -51.5c0 -26 -4.66699 -48.833 -14 -68.5s-21.666 -35.834 -36.999 -48.501s-33 -22.167 -53 -28.5s-41 -9.5 -63 -9.5
c-25.333 0 -49.666 3.16699 -72.999 9.5s-43.666 15.833 -60.999 28.5l29 62c13.333 -9.33301 28.333 -17.166 45 -23.499s36.667 -9.5 60 -9.5c12 0 23.333 1.5 34 4.5s20.334 7.66699 29.001 14s15.5 14.166 20.5 23.499s7.5 20.333 7.5 33c0 10.667 -1.5 20.5 -4.5 29.5
s-8.5 17.667 -16.5 26s-18.667 16.5 -32 24.5s-30 16.667 -50 26c-19.333 8 -37.5 16.833 -54.5 26.5s-32.167 20.667 -45.5 33s-23.833 26.666 -31.5 42.999s-11.5 35.166 -11.5 56.499c0 20 4.5 41 13.5 63s25.5 42.667 49.5 62c-10 10.667 -18 22.667 -24 36
s-9 28.666 -9 45.999c0 23.333 4.33301 44.166 13 62.499s20.5 33.833 35.5 46.5s32.5 22.334 52.5 29.001s41.333 10 64 10c21.333 0 43.666 -2.83301 66.999 -8.5s43 -13.167 59 -22.5l-33 -64c-14 8.66699 -28.833 15.5 -44.5 20.5s-33.167 7.5 -52.5 7.5
c-10 0 -20 -1.5 -30 -4.5s-19.167 -7.33301 -27.5 -13s-15 -12.667 -20 -21s-7.5 -18.166 -7.5 -29.499c0 -28.667 17 -52.667 51 -72c23.333 -13.333 46.333 -25.5 69 -36.5s43 -23.167 61 -36.5s32.5 -28.833 43.5 -46.5s16.5 -39.834 16.5 -66.501zM165.997 435.004
c-28.667 -21.333 -42.999 -46.3311 -42.999 -74.998c0 -18.667 5.16699 -33.667 15.5 -45s23.166 -21 38.499 -29s32 -15.833 50 -23.5s34.667 -16.834 50 -27.501c15.333 8 26.333 18.333 33 31s10 25.667 10 39c0 16 -5.16699 30.333 -15.5 43s-23.333 24.167 -39 34.5
s-32.5 19.666 -50.5 27.999s-34.333 16.5 -49 24.5z" />
    <glyph glyph-name="dieresis" unicode="&#xa8;" horiz-adv-x="489" 
d="M386 639c0 -13.333 -4.83301 -24.833 -14.5 -34.5s-21.167 -14.5 -34.5 -14.5s-24.833 4.83301 -34.5 14.5s-14.5 21.167 -14.5 34.5s4.83301 24.666 14.5 33.999s21.167 14 34.5 14s24.833 -4.66699 34.5 -14s14.5 -20.666 14.5 -33.999zM190 639
c0 -13.333 -4.83301 -24.833 -14.5 -34.5s-21.167 -14.5 -34.5 -14.5s-24.666 4.83301 -33.999 14.5s-14 21.167 -14 34.5s4.66699 24.666 14 33.999s20.666 14 33.999 14s24.833 -4.66699 34.5 -14s14.5 -20.666 14.5 -33.999z" />
    <glyph glyph-name="copyright" unicode="&#xa9;" horiz-adv-x="803" 
d="M404 -8c-50.667 0 -97.165 8.83301 -139.498 26.5s-79 42.167 -110 73.5s-55.167 68.166 -72.5 110.499s-26 88.5 -26 138.5s8.83301 96.5 26.5 139.5s42.167 80.167 73.5 111.5s68.166 55.833 110.499 73.5s88.166 26.5 137.499 26.5s95.333 -8.83301 138 -26.5
s79.667 -42.167 111 -73.5s55.833 -68.5 73.5 -111.5s26.5 -89.5 26.5 -139.5s-8.83301 -96.167 -26.5 -138.5s-42.167 -79.166 -73.5 -110.499s-68.333 -55.833 -111 -73.5s-88.667 -26.5 -138 -26.5zM404.002 631c-40.667 0 -78.334 -7.33301 -113.001 -22
s-64.834 -35 -90.501 -61s-45.667 -56.667 -60 -92s-21.5 -73.666 -21.5 -114.999s7.16699 -79.5 21.5 -114.5s34.333 -65.333 60 -91s55.834 -45.834 90.501 -60.501s72.334 -22 113.001 -22s78.334 7.33301 113.001 22s64.834 34.834 90.501 60.501s45.667 56 60 91
s21.5 73.167 21.5 114.5s-7.16699 79.666 -21.5 114.999s-34.333 66 -60 92s-55.834 46.333 -90.501 61s-72.334 22 -113.001 22zM408.002 558c26 0 50.334 -3.49805 73.001 -10.498s43 -17.833 61 -32.5l-32 -50c-12.667 10.667 -28.334 19 -47.001 25s-37 9 -55 9
c-13.333 0 -26.5 -2 -39.5 -6s-24.5 -10.5 -34.5 -19.5s-18.167 -20.333 -24.5 -34s-9.5 -30.5 -9.5 -50.5v-105c0 -19.333 3.16699 -36 9.5 -50s14.666 -25.5 24.999 -34.5s21.833 -15.5 34.5 -19.5s25.334 -6 38.001 -6c18 0 36.333 2.5 55 7.5s35.334 13.5 50.001 25.5
l31 -49c-14.667 -12 -33.834 -22.167 -57.501 -30.5s-49.5 -12.5 -77.5 -12.5c-23.333 0 -45.333 3.5 -66 10.5s-38.834 17.333 -54.501 31s-28.167 30.167 -37.5 49.5s-14 41 -14 65v131c0 24 4.66699 45.667 14 65s22 35.666 38 48.999s34.333 23.666 55 30.999
s42.334 11 65.001 11z" />
    <glyph glyph-name="ordfeminine" unicode="&#xaa;" horiz-adv-x="342" 
d="M243 307c-15.333 -11.333 -32.165 -20.168 -50.498 -26.501s-37.166 -9.5 -56.499 -9.5c-34.667 0 -62.334 9 -83.001 27s-31 43 -31 75c0 18.667 4.33301 34.5 13 47.5s19.5 23.5 32.5 31.5s27 13.667 42 17s28.5 5 40.5 5h92v18
c-0.666992 20.667 -7.83398 34.5 -21.501 41.5s-30.5 10.5 -50.5 10.5c-11.333 0 -24.833 -1.66699 -40.5 -5s-33.167 -12.666 -52.5 -27.999l-36 53c24 17.333 47.167 28.833 69.5 34.5s43.166 8.5 62.499 8.5c46 0 81 -9.5 105 -28.5s36 -48.5 36 -88.5v-216h-65z
M242.001 414.998h-81.999c-6 0 -12.833 -0.5 -20.5 -1.5s-14.834 -3 -21.501 -6s-12.167 -7.16699 -16.5 -12.5s-6.5 -12.666 -6.5 -21.999c0 -12.667 4.83301 -22.334 14.5 -29.001s22.167 -10 37.5 -10c16 0 32.5 3.5 49.5 10.5s32.167 14.167 45.5 21.5v49z" />
    <glyph glyph-name="guillemotleft" unicode="&#xab;" horiz-adv-x="459" 
d="M343 46l-127 186l127 186h78l-123 -186l123 -186h-78zM171 46l-127 186l127 186h78l-124 -186l124 -186h-78z" />
    <glyph glyph-name="logicalnot" unicode="&#xac;" horiz-adv-x="500" 
d="M469 70h-64v192h-376v64h441z" />
    <glyph glyph-name="sfthyphen" unicode="&#xad;" horiz-adv-x="392" 
d="M52 230v75h288v-75h-288z" />
    <glyph glyph-name="registered" unicode="&#xae;" horiz-adv-x="560" 
d="M488 492c0 -30 -5.33301 -57.5 -16 -82.5s-25.334 -46.833 -44.001 -65.5s-40.667 -33.167 -66 -43.5s-53 -15.5 -83 -15.5c-29.333 0 -56.833 5.16699 -82.5 15.5s-47.834 24.833 -66.501 43.5s-33.334 40.5 -44.001 65.5s-16 52.5 -16 82.5s5.33301 57.833 16 83.5
s25.334 47.834 44.001 66.501s40.834 33.334 66.501 44.001s53.167 16 82.5 16c30 0 57.667 -5.33301 83 -16s47.333 -25.334 66 -44.001s33.334 -40.834 44.001 -66.501s16 -53.5 16 -83.5zM448 492c0 24.667 -4.33301 47.5 -13 68.5s-20.5 39.167 -35.5 54.5
s-32.833 27.333 -53.5 36s-43 13 -67 13s-46.333 -4.33301 -67 -13s-38.5 -20.667 -53.5 -36s-26.833 -33.5 -35.5 -54.5s-13 -43.833 -13 -68.5c0 -24 4.33301 -46.5 13 -67.5s20.5 -39 35.5 -54s32.833 -26.833 53.5 -35.5s43 -13 67 -13s46.333 4.33301 67 13
s38.5 20.5 53.5 35.5s26.833 33 35.5 54s13 43.5 13 67.5zM284 472l-42 -0.000976562v-101h-41v242h100c20 0 37 -6.16699 51 -18.5s21 -29.166 21 -50.499c0 -15.333 -4.33301 -28.833 -13 -40.5s-20 -20.167 -34 -25.5l56 -107h-47zM242 575.999v-66h52
c11.333 0 20.5 3 27.5 9s10.5 14.333 10.5 25c0 21.333 -12.333 32 -37 32h-53z" />
    <glyph glyph-name="macron" unicode="&#xaf;" horiz-adv-x="491" 
d="M127 600v75h268v-75h-268z" />
    <glyph glyph-name="degree" unicode="&#xb0;" horiz-adv-x="382" 
d="M325 568c0 -18.667 -3.5 -36 -10.5 -52s-16.5 -30 -28.5 -42s-26.167 -21.5 -42.5 -28.5s-33.833 -10.5 -52.5 -10.5s-36.167 3.5 -52.5 10.5s-30.666 16.5 -42.999 28.5s-22 26 -29 42s-10.5 33.333 -10.5 52s3.5 36.167 10.5 52.5s16.667 30.5 29 42.5
s26.666 21.5 42.999 28.5s33.833 10.5 52.5 10.5s36.167 -3.5 52.5 -10.5s30.5 -16.5 42.5 -28.5s21.5 -26.167 28.5 -42.5s10.5 -33.833 10.5 -52.5zM268 568c0 21.333 -7.5 39.5 -22.5 54.5s-33.167 22.5 -54.5 22.5s-39.5 -7.5 -54.5 -22.5s-22.5 -33.167 -22.5 -54.5
s7.5 -39.5 22.5 -54.5s33.167 -22.5 54.5 -22.5s39.5 7.5 54.5 22.5s22.5 33.167 22.5 54.5z" />
    <glyph glyph-name="plusminus" unicode="&#xb1;" horiz-adv-x="500" 
d="M282 291v-174h-64v174h-184v64h184v174h64v-174h183v-64h-183zM34 0v64h431v-64h-431z" />
    <glyph glyph-name="twosuperior" unicode="&#xb2;" horiz-adv-x="311" 
d="M303 671c0 -14 -3.16504 -27.332 -9.49805 -39.999s-14.5 -24.834 -24.5 -36.501s-21.167 -22.5 -33.5 -32.5s-24.5 -19 -36.5 -27l-32 -20.5c-12 -7.66699 -23.333 -16 -34 -25s-19.5 -18.167 -26.5 -27.5s-10.5 -19 -10.5 -29v-7h207v-62h-281v56
c0 18.667 3.33301 35.5 10 50.5s15.5 28.5 26.5 40.5s23.667 23.167 38 33.5l43.5 30.5l26.5 17c10.333 6.66699 20.166 14 29.499 22s17.333 16.667 24 26s10 19 10 29c0 17.333 -8.16699 30 -24.5 38s-33.5 12 -51.5 12c-17.333 0 -33.5 -3 -48.5 -9
s-29.167 -14 -42.5 -24l-39 50c17.333 13.333 37.333 24.666 60 33.999s46.667 14 72 14c18.667 0 37 -1.83301 55 -5.5s33.667 -10 47 -19s24.166 -20.667 32.499 -35s12.5 -32.166 12.5 -53.499z" />
    <glyph glyph-name="threesuperior" unicode="&#xb3;" horiz-adv-x="325" 
d="M156 782c16.667 0 33.3311 -2.00195 49.998 -6.00195s31.5 -10.5 44.5 -19.5s23.5 -20.667 31.5 -35s12 -31.833 12 -52.5c0 -18.667 -5.16699 -36.167 -15.5 -52.5s-26.166 -28.166 -47.499 -35.499c25.333 -11.333 42.5 -25.166 51.5 -41.499s13.5 -33.5 13.5 -51.5
c0 -21.333 -3.83301 -40 -11.5 -56s-18.167 -29.5 -31.5 -40.5s-29 -19.167 -47 -24.5s-37 -8 -57 -8c-28 0 -53.667 4.16699 -77 12.5s-43 18.5 -59 30.5l39 53c13.333 -10 28.666 -17.667 45.999 -23s33 -8 47 -8c22.667 0 41.334 5.16699 56.001 15.5
s22 25.166 22 44.499s-6.5 34.333 -19.5 45s-29.167 16 -48.5 16h-53v63h54c6.66699 0 14 1.16699 22 3.5s15.333 6 22 11s12.167 11.333 16.5 19s6.5 16.834 6.5 27.501c0 8.66699 -2.33301 16.167 -7 22.5s-10.5 11.5 -17.5 15.5s-15 7 -24 9s-17.833 3 -26.5 3
c-14 0 -29.667 -2.5 -47 -7.5s-32.666 -12.833 -45.999 -23.5l-35 51c15.333 13.333 35 23.833 59 31.5s49.667 11.5 77 11.5z" />
    <glyph glyph-name="acute" unicode="&#xb4;" horiz-adv-x="491" 
d="M193 571l72 177l81 -25l-100 -172z" />
    <glyph glyph-name="mu" unicode="&#xb5;" horiz-adv-x="507" 
d="M372 0l-0.000976562 52.002c-19.333 -13.333 -36.833 -23.833 -52.5 -31.5s-29.667 -13.334 -42 -17.001s-23.666 -6 -33.999 -7s-19.833 -1.5 -28.5 -1.5c-33.333 0 -60.333 8.33301 -81 25v-220h-86v696h86v-313c0 -38.667 8.33301 -65.834 25 -81.501
s38 -23.167 64 -22.5c20 0 42.5 5 67.5 15s52.167 25.333 81.5 46v356h85v-496h-85z" />
    <glyph glyph-name="mu" unicode="&#x3bc;" horiz-adv-x="507" 
d="M372 0l-0.000976562 52.002c-19.333 -13.333 -36.833 -23.833 -52.5 -31.5s-29.667 -13.334 -42 -17.001s-23.666 -6 -33.999 -7s-19.833 -1.5 -28.5 -1.5c-33.333 0 -60.333 8.33301 -81 25v-220h-86v696h86v-313c0 -38.667 8.33301 -65.834 25 -81.501
s38 -23.167 64 -22.5c20 0 42.5 5 67.5 15s52.167 25.333 81.5 46v356h85v-496h-85z" />
    <glyph glyph-name="paragraph" unicode="&#xb6;" horiz-adv-x="526" 
d="M461 57c0 -30 -2.99902 -56.5 -8.99902 -79.5s-16.5 -42.5 -31.5 -58.5s-35.167 -28.5 -60.5 -37.5s-57.333 -14.5 -96 -16.5l-5 70c30.667 3.33301 54.667 9 72 17s30.166 17.833 38.499 29.5s13.333 25.167 15 40.5s2.5 32 2.5 50v634h74v-649zM232.001 339
c-26.667 0 -51.332 4.66797 -73.999 14.001s-42.167 22.333 -58.5 39s-29 36.167 -38 58.5s-13.5 46.166 -13.5 71.499c0 24.667 4.66699 48.167 14 70.5s22.166 42 38.499 59s35.833 30.333 58.5 40s47 14.5 73 14.5h92v-367h-92z" />
    <glyph glyph-name="periodcentered" unicode="&#xb7;" horiz-adv-x="226" 
d="M113 337c17.333 0 32.166 -6.33301 44.499 -19s18.5 -27.667 18.5 -45s-6.16699 -32.166 -18.5 -44.499s-27.166 -18.5 -44.499 -18.5s-32.166 6.16699 -44.499 18.5s-18.5 27.166 -18.5 44.499s6.16699 32.333 18.5 45s27.166 19 44.499 19z" />
    <glyph glyph-name="cedilla" unicode="&#xb8;" horiz-adv-x="431" 
d="M265 36l-23.999 -75c19.333 -1.33301 35.333 -4.83301 48 -10.5s22.834 -12.667 30.501 -21s13.167 -17.166 16.5 -26.499s5 -18 5 -26c0 -8.66699 -1.83301 -17.834 -5.5 -27.501s-9.5 -18.667 -17.5 -27s-18.667 -15.166 -32 -20.499s-29.333 -8 -48 -8
c-11.333 0 -25.833 1 -43.5 3s-34.834 6.33301 -51.501 13l16 42c14 -4.66699 27.667 -7.83398 41 -9.50098s24.666 -2.5 33.999 -2.5c16.667 0 29 3.5 37 10.5s12 15.5 12 25.5c0 8 -3.5 16.667 -10.5 26s-20.167 14 -39.5 14h-6c-2 0 -4.66699 -0.333008 -8 -1l-31 18
l32 107z" />
    <glyph glyph-name="onesuperior" unicode="&#xb9;" horiz-adv-x="285" 
d="M129 364v328l-52 -39l-39 50l98 76h64v-415h-71z" />
    <glyph glyph-name="ordmasculine" unicode="&#xba;" horiz-adv-x="348" 
d="M320 397c0 -19.333 -4 -36.833 -12 -52.5s-18.667 -29 -32 -40s-28.833 -19.333 -46.5 -25s-36.167 -8.5 -55.5 -8.5c-20 0 -38.833 2.83301 -56.5 8.5s-33 14 -46 25s-23.333 24.333 -31 40s-11.5 33.167 -11.5 52.5v83c0 18.667 3.83301 35.834 11.5 51.501
s18.167 29.167 31.5 40.5s28.833 20 46.5 26s36.5 9 56.5 9c20.667 0 40 -3 58 -9s33.333 -14.667 46 -26s22.667 -24.833 30 -40.5s11 -32.834 11 -51.501v-83zM249 471c0 12.667 -2.33301 23.499 -7 32.499s-10.5 16.5 -17.5 22.5s-14.833 10.333 -23.5 13
s-17.334 4 -26.001 4s-17.334 -1.33301 -26.001 -4s-16.667 -7 -24 -13s-13.333 -13.5 -18 -22.5s-7 -19.833 -7 -32.5v-64c0 -25.333 7.33301 -43.5 22 -54.5s32.334 -16.5 53.001 -16.5c8.66699 0 17.334 1.33301 26.001 4s16.5 6.83398 23.5 12.501s12.833 13 17.5 22
s7 19.833 7 32.5v64z" />
    <glyph glyph-name="guillemotright" unicode="&#xbb;" horiz-adv-x="459" 
d="M45 46l123 186l-123 186h78l127 -186l-127 -186h-78zM217 46l124 186l-124 186h78l127 -186l-127 -186h-78z" />
    <glyph glyph-name="onequarter" unicode="&#xbc;" horiz-adv-x="800" 
d="M164 274v328l-52 -39l-39 50l98 76h64v-415h-71zM209 -17h-66l425 730h67zM688 61v-61h-73v61h-191v54l149 299h76l-145 -292h111v120h73v-120h38v-61h-38z" />
    <glyph glyph-name="onehalf" unicode="&#xbd;" horiz-adv-x="800" 
d="M152 274v328l-52 -39l-39 50l98 76h64v-415h-71zM172 -17h-66l425 730h67zM738 307c0 -14 -3.16504 -27.332 -9.49805 -39.999s-14.5 -24.834 -24.5 -36.501s-21.167 -22.5 -33.5 -32.5s-24.5 -19 -36.5 -27l-32 -20.5c-12 -7.66699 -23.333 -16 -34 -25
s-19.5 -18.167 -26.5 -27.5s-10.5 -19 -10.5 -29v-7h207v-62h-281v56c0 18.667 3.33301 35.5 10 50.5s15.5 28.5 26.5 40.5s23.667 23.167 38 33.5l43.5 30.5l26.5 17c10.333 6.66699 20.166 14 29.499 22s17.333 16.667 24 26s10 19 10 29c0 17.333 -8.16699 30 -24.5 38
s-33.5 12 -51.5 12c-17.333 0 -33.5 -3 -48.5 -9s-29.167 -14 -42.5 -24l-39 50c17.333 13.333 37.333 24.666 60 33.999s46.667 14 72 14c18.667 0 37 -1.83301 55 -5.5s33.667 -10 47 -19s24.166 -20.667 32.499 -35s12.5 -32.166 12.5 -53.499z" />
    <glyph glyph-name="threequarters" unicode="&#xbe;" horiz-adv-x="800" 
d="M178 692c16.667 0 33.3311 -2.00195 49.998 -6.00195s31.5 -10.5 44.5 -19.5s23.5 -20.667 31.5 -35s12 -31.833 12 -52.5c0 -18.667 -5.16699 -36.167 -15.5 -52.5s-26.166 -28.166 -47.499 -35.499c25.333 -11.333 42.5 -25.166 51.5 -41.499s13.5 -33.5 13.5 -51.5
c0 -21.333 -3.83301 -40 -11.5 -56s-18.167 -29.5 -31.5 -40.5s-29 -19.167 -47 -24.5s-37 -8 -57 -8c-28 0 -53.667 4.16699 -77 12.5s-43 18.5 -59 30.5l39 53c13.333 -10 28.666 -17.667 45.999 -23s33 -8 47 -8c22.667 0 41.334 5.16699 56.001 15.5
s22 25.166 22 44.499s-6.5 34.333 -19.5 45s-29.167 16 -48.5 16h-53v63h54c6.66699 0 14 1.16699 22 3.5s15.333 6 22 11s12.167 11.333 16.5 19s6.5 16.834 6.5 27.501c0 8.66699 -2.33301 16.167 -7 22.5s-10.5 11.5 -17.5 15.5s-15 7 -24 9s-17.833 3 -26.5 3
c-14 0 -29.667 -2.5 -47 -7.5s-32.666 -12.833 -45.999 -23.5l-35 51c15.333 13.333 35 23.833 59 31.5s49.667 11.5 77 11.5zM250.997 -17.002h-66l425 730h67zM725.997 60.998v-61h-73v61h-191v54l149 299h76l-145 -292h111v120h73v-120h38v-61h-38z" />
    <glyph glyph-name="questiondown" unicode="&#xbf;" horiz-adv-x="459" 
d="M261 -204c-26.667 0 -51.501 4.5 -74.501 13.5s-43.167 21.167 -60.5 36.5s-31 33.666 -41 54.999s-15 44.666 -15 69.999c0 28.667 7.16699 55.5 21.5 80.5s30.333 49.333 48 73s33.667 46.667 48 69s21.5 44.833 21.5 67.5v45h86v-42
c0 -23.333 -3.16699 -44.166 -9.5 -62.499s-14.166 -35 -23.499 -50s-19.5 -29.167 -30.5 -42.5s-21.167 -26.666 -30.5 -39.999s-17.166 -27.333 -23.499 -42s-9.5 -30.667 -9.5 -48c0 -28 9.5 -51.5 28.5 -70.5s43.5 -28.5 73.5 -28.5c25.333 0 49.833 4.16699 73.5 12.5
s44.167 19.833 61.5 34.5l44 -70c-29.333 -22 -59.333 -37.667 -90 -47s-63.334 -14 -98.001 -14zM306.999 441c0 -14 -4.83301 -27.002 -14.5 -39.002s-23.834 -18 -42.501 -18c-19.333 0 -34.333 6 -45 18s-16 25 -16 39c0 16.667 5.33301 30.834 16 42.501
s25.667 17.5 45 17.5c18.667 0 32.834 -5.66699 42.501 -17s14.5 -25.666 14.5 -42.999z" />
    <glyph glyph-name="Agrave" unicode="&#xc0;" horiz-adv-x="597" 
d="M490 0l-54 155h-274l-53 -155h-96l240 689h93l241 -689h-97zM297 563l-50 -160l-55 -164h215l-55 164l-51 160h-4zM292 738l-170 103l59 61l148 -122z" />
    <glyph glyph-name="Aacute" unicode="&#xc1;" horiz-adv-x="597" 
d="M490 0l-54 155h-274l-53 -155h-96l240 689h93l241 -689h-97zM297 563l-50 -160l-55 -164h215l-55 164l-51 160h-4zM250 780l148 122l59 -61l-170 -103z" />
    <glyph glyph-name="Acircumflex" unicode="&#xc2;" horiz-adv-x="597" 
d="M490 0l-54 155h-274l-53 -155h-96l240 689h93l241 -689h-97zM297 563l-50 -160l-55 -164h215l-55 164l-51 160h-4zM300 826l-144 -87l-29 38l150 128h53l143 -126l-30 -39z" />
    <glyph glyph-name="Atilde" unicode="&#xc3;" horiz-adv-x="597" 
d="M490 0l-54 155h-274l-53 -155h-96l240 689h93l241 -689h-97zM297 563l-50 -160l-55 -164h215l-55 164l-51 160h-4zM227 869c12 0 24.168 -2.49805 36.501 -7.49805s24.166 -10.333 35.499 -16l33 -16c10.667 -5 20.334 -7.5 29.001 -7.5c10 0 20 3.5 30 10.5
s20.333 18.5 31 34.5l52 -29c-14.667 -30.667 -30.834 -53.167 -48.501 -67.5s-37.167 -21.5 -58.5 -21.5c-12 0 -23.833 2.16699 -35.5 6.5s-23.167 9.16602 -34.5 14.499s-22.166 10.166 -32.499 14.499s-20.5 6.5 -30.5 6.5c-11.333 0 -21.5 -2.83301 -30.5 -8.5
s-19.833 -16.167 -32.5 -31.5l-52 29c13.333 28 29.666 49.833 48.999 65.5s39 23.5 59 23.5z" />
    <glyph glyph-name="Adieresis" unicode="&#xc4;" horiz-adv-x="597" 
d="M490 0l-54 155h-274l-53 -155h-96l240 689h93l241 -689h-97zM297 563l-50 -160l-55 -164h215l-55 164l-51 160h-4zM447 811c0 -13.333 -4.83301 -24.833 -14.5 -34.5s-21.167 -14.5 -34.5 -14.5s-24.833 4.83301 -34.5 14.5s-14.5 21.167 -14.5 34.5
s4.83301 24.666 14.5 33.999s21.167 14 34.5 14s24.833 -4.66699 34.5 -14s14.5 -20.666 14.5 -33.999zM251 811c0 -13.333 -4.83301 -24.833 -14.5 -34.5s-21.167 -14.5 -34.5 -14.5s-24.666 4.83301 -33.999 14.5s-14 21.167 -14 34.5s4.66699 24.666 14 33.999
s20.666 14 33.999 14s24.833 -4.66699 34.5 -14s14.5 -20.666 14.5 -33.999z" />
    <glyph glyph-name="Aring" unicode="&#xc5;" horiz-adv-x="597" 
d="M490 0l-54 155h-274l-53 -155h-96l240 689h93l241 -689h-97zM297 563l-50 -160l-55 -164h215l-55 164l-51 160h-4zM402 812c0 -14 -2.66699 -27.333 -8 -40s-12.666 -23.667 -21.999 -33s-20.333 -16.666 -33 -21.999s-26 -8 -40 -8s-27.333 2.66699 -40 8
s-23.834 12.666 -33.501 21.999s-17.167 20.333 -22.5 33s-8 26 -8 40s2.66699 27.333 8 40s12.833 23.5 22.5 32.5s20.834 16.167 33.501 21.5s26 8 40 8s27.333 -2.66699 40 -8s23.667 -12.5 33 -21.5s16.666 -19.833 21.999 -32.5s8 -26 8 -40zM354 812
c0 15.333 -5.33301 28.166 -16 38.499s-23.667 15.5 -39 15.5s-28.5 -5.16699 -39.5 -15.5s-16.5 -23.166 -16.5 -38.499s5.5 -28.333 16.5 -39s24.167 -16 39.5 -16s28.333 5.33301 39 16s16 23.667 16 39z" />
    <glyph glyph-name="AE" unicode="&#xc6;" horiz-adv-x="977" 
d="M491 0v204h-259l-130 -204h-100l444 689h505v-84h-368v-219h315v-83h-315v-220h368v-83h-460zM281 280h210v325z" />
    <glyph glyph-name="Ccedilla" unicode="&#xc7;" horiz-adv-x="527" 
d="M303 696c37.333 0 72.335 -5 105.002 -15s62 -25.667 88 -47l-46 -72c-18 15.333 -40.5 27.333 -67.5 36s-53.5 13 -79.5 13c-19.333 0 -38.333 -3 -57 -9s-35.334 -15.333 -50.001 -28s-26.5 -29 -35.5 -49s-13.5 -44.333 -13.5 -73v-215
c0 -28 4.66699 -52.167 14 -72.5s21.333 -36.833 36 -49.5s31.167 -22 49.5 -28s36.5 -9 54.5 -9c26 0 52.5 3.66699 79.5 11s51.167 19.666 72.5 36.999l44 -71c-20.667 -16.667 -47.334 -30.834 -80.001 -42.501s-68 -18.167 -106 -19.5l-10 -32
c19.333 -1.33301 35.333 -4.83301 48 -10.5s22.834 -12.667 30.501 -21s13.167 -17.166 16.5 -26.499s5 -18 5 -26c0 -8.66699 -1.83301 -17.834 -5.5 -27.501s-9.5 -18.667 -17.5 -27s-18.667 -15.166 -32 -20.499s-29.333 -8 -48 -8c-11.333 0 -25.833 1 -43.5 3
s-34.834 6.33301 -51.501 13l16 42c14 -4.66699 27.667 -7.83398 41 -9.50098s24.666 -2.5 33.999 -2.5c16.667 0 29 3.5 37 10.5s12 15.5 12 25.5c0 8 -3.5 16.667 -10.5 26s-20.167 14 -39.5 14h-6c-2 0 -4.66699 -0.333008 -8 -1l-31 18l18 62
c-29.333 3.33301 -56.833 11 -82.5 23s-48.167 27.5 -67.5 46.5s-34.5 41.5 -45.5 67.5s-16.5 55 -16.5 87v252c0 34.667 6.83301 65.834 20.5 93.501s31.834 51.334 54.501 71.001s49 34.667 79 45s61.667 15.5 95 15.5z" />
    <glyph glyph-name="Egrave" unicode="&#xc8;" horiz-adv-x="557" 
d="M61 0v689h460v-84h-368v-219h315v-83h-315v-220h368v-83h-460zM310 738l-170 103l59 61l148 -122z" />
    <glyph glyph-name="Eacute" unicode="&#xc9;" horiz-adv-x="557" 
d="M61 0v689h460v-84h-368v-219h315v-83h-315v-220h368v-83h-460zM230 780l148 122l59 -61l-170 -103z" />
    <glyph glyph-name="Ecircumflex" unicode="&#xca;" horiz-adv-x="557" 
d="M61 0v689h460v-84h-368v-219h315v-83h-315v-220h368v-83h-460zM300 826l-144 -87l-29 38l150 128h53l143 -126l-30 -39z" />
    <glyph glyph-name="Edieresis" unicode="&#xcb;" horiz-adv-x="557" 
d="M61 0v689h460v-84h-368v-219h315v-83h-315v-220h368v-83h-460zM436 809c0 -13.333 -4.83301 -24.833 -14.5 -34.5s-21.167 -14.5 -34.5 -14.5s-24.833 4.83301 -34.5 14.5s-14.5 21.167 -14.5 34.5s4.83301 24.666 14.5 33.999s21.167 14 34.5 14
s24.833 -4.66699 34.5 -14s14.5 -20.666 14.5 -33.999zM240 809c0 -13.333 -4.83301 -24.833 -14.5 -34.5s-21.167 -14.5 -34.5 -14.5s-24.666 4.83301 -33.999 14.5s-14 21.167 -14 34.5s4.66699 24.666 14 33.999s20.666 14 33.999 14s24.833 -4.66699 34.5 -14
s14.5 -20.666 14.5 -33.999z" />
    <glyph glyph-name="Igrave" unicode="&#xcc;" horiz-adv-x="252" 
d="M80 0v689h92v-689h-92zM126 738l-170 103l59 61l148 -122z" />
    <glyph glyph-name="Iacute" unicode="&#xcd;" horiz-adv-x="252" 
d="M80 0v689h92v-689h-92zM88 780l148 122l59 -61l-170 -103z" />
    <glyph glyph-name="Icircumflex" unicode="&#xce;" horiz-adv-x="252" 
d="M80 0v689h92v-689h-92zM122 826l-144 -87l-29 38l150 128h53l143 -126l-30 -39z" />
    <glyph glyph-name="Idieresis" unicode="&#xcf;" horiz-adv-x="252" 
d="M80 0v689h92v-689h-92zM274 811c0 -13.333 -4.83301 -24.833 -14.5 -34.5s-21.167 -14.5 -34.5 -14.5s-24.833 4.83301 -34.5 14.5s-14.5 21.167 -14.5 34.5s4.83301 24.666 14.5 33.999s21.167 14 34.5 14s24.833 -4.66699 34.5 -14s14.5 -20.666 14.5 -33.999zM78 811
c0 -13.333 -4.83301 -24.833 -14.5 -34.5s-21.167 -14.5 -34.5 -14.5s-24.666 4.83301 -33.999 14.5s-14 21.167 -14 34.5s4.66699 24.666 14 33.999s20.666 14 33.999 14s24.833 -4.66699 34.5 -14s14.5 -20.666 14.5 -33.999z" />
    <glyph glyph-name="Eth" unicode="&#xd0;" horiz-adv-x="605" 
d="M6 389l51.999 0.000976562v300h259c32.667 0 63.334 -5.16699 92.001 -15.5s53.667 -25.166 75 -44.499s38 -43 50 -71s18 -59.333 18 -94v-240c0 -33.333 -6.16699 -63.833 -18.5 -91.5s-29.166 -51.334 -50.499 -71.001s-46.333 -34.834 -75 -45.501
s-59.334 -16 -92.001 -16h-258v321h-52v68zM457.999 448.001c0 28.667 -4.66895 52.999 -14.002 72.999s-21.666 36.333 -36.999 49s-32.833 21.667 -52.5 27s-39.5 8 -59.5 8h-145v-216h126v-68h-126v-239h145c18.667 0 37.834 2.66699 57.501 8s37.167 14.333 52.5 27
s28 28.834 38 48.501s15 44.167 15 73.5v209z" />
    <glyph glyph-name="Ntilde" unicode="&#xd1;" horiz-adv-x="645" 
d="M494 173v516h92v-689h-89l-241 360l-98 151h-7v-511h-92v689h87l249 -373l92 -143h7zM250 869c12 0 24.168 -2.49805 36.501 -7.49805s24.166 -10.333 35.499 -16l33 -16c10.667 -5 20.334 -7.5 29.001 -7.5c10 0 20 3.5 30 10.5s20.333 18.5 31 34.5l52 -29
c-14.667 -30.667 -30.834 -53.167 -48.501 -67.5s-37.167 -21.5 -58.5 -21.5c-12 0 -23.833 2.16699 -35.5 6.5s-23.167 9.16602 -34.5 14.499s-22.166 10.166 -32.499 14.499s-20.5 6.5 -30.5 6.5c-11.333 0 -21.5 -2.83301 -30.5 -8.5s-19.833 -16.167 -32.5 -31.5l-52 29
c13.333 28 29.666 49.833 48.999 65.5s39 23.5 59 23.5z" />
    <glyph glyph-name="Ograve" unicode="&#xd2;" horiz-adv-x="613" 
d="M561 225c0 -35.333 -6.50098 -67.333 -19.501 -96s-31 -53 -54 -73s-50 -35.5 -81 -46.5s-64.5 -16.5 -100.5 -16.5c-37.333 0 -71.666 5.5 -102.999 16.5s-58.166 26.5 -80.499 46.5s-39.666 44.333 -51.999 73s-18.5 60.667 -18.5 96v238
c0 34.667 6.16699 66.334 18.5 95.001s29.666 53.167 51.999 73.5s49.166 36.166 80.499 47.499s65.666 17 102.999 17c36.667 0 70.667 -5.66699 102 -17s58.333 -27.166 81 -47.499s40.334 -44.833 53.001 -73.5s19 -60.334 19 -95.001v-238zM467.999 452
c0 28 -4.33301 52 -13 72s-20.334 36.5 -35.001 49.5s-31.834 22.5 -51.501 28.5s-40.5 9 -62.5 9s-42.833 -3 -62.5 -9s-36.667 -15.5 -51 -28.5s-25.833 -29.5 -34.5 -49.5s-13 -44 -13 -72v-216c0 -28 4.33301 -52 13 -72s20.334 -36.333 35.001 -49
s31.834 -22 51.501 -28s40.167 -9 61.5 -9c22 0 42.667 3 62 9s36.5 15.333 51.5 28s26.833 29 35.5 49s13 44 13 72v216zM321.999 738l-170 103l59 61l148 -122z" />
    <glyph glyph-name="Oacute" unicode="&#xd3;" horiz-adv-x="613" 
d="M561 225c0 -35.333 -6.50098 -67.333 -19.501 -96s-31 -53 -54 -73s-50 -35.5 -81 -46.5s-64.5 -16.5 -100.5 -16.5c-37.333 0 -71.666 5.5 -102.999 16.5s-58.166 26.5 -80.499 46.5s-39.666 44.333 -51.999 73s-18.5 60.667 -18.5 96v238
c0 34.667 6.16699 66.334 18.5 95.001s29.666 53.167 51.999 73.5s49.166 36.166 80.499 47.499s65.666 17 102.999 17c36.667 0 70.667 -5.66699 102 -17s58.333 -27.166 81 -47.499s40.334 -44.833 53.001 -73.5s19 -60.334 19 -95.001v-238zM467.999 452
c0 28 -4.33301 52 -13 72s-20.334 36.5 -35.001 49.5s-31.834 22.5 -51.501 28.5s-40.5 9 -62.5 9s-42.833 -3 -62.5 -9s-36.667 -15.5 -51 -28.5s-25.833 -29.5 -34.5 -49.5s-13 -44 -13 -72v-216c0 -28 4.33301 -52 13 -72s20.334 -36.333 35.001 -49
s31.834 -22 51.501 -28s40.167 -9 61.5 -9c22 0 42.667 3 62 9s36.5 15.333 51.5 28s26.833 29 35.5 49s13 44 13 72v216zM257.999 780l148 122l59 -61l-170 -103z" />
    <glyph glyph-name="Ocircumflex" unicode="&#xd4;" horiz-adv-x="613" 
d="M561 225c0 -35.333 -6.50098 -67.333 -19.501 -96s-31 -53 -54 -73s-50 -35.5 -81 -46.5s-64.5 -16.5 -100.5 -16.5c-37.333 0 -71.666 5.5 -102.999 16.5s-58.166 26.5 -80.499 46.5s-39.666 44.333 -51.999 73s-18.5 60.667 -18.5 96v238
c0 34.667 6.16699 66.334 18.5 95.001s29.666 53.167 51.999 73.5s49.166 36.166 80.499 47.499s65.666 17 102.999 17c36.667 0 70.667 -5.66699 102 -17s58.333 -27.166 81 -47.499s40.334 -44.833 53.001 -73.5s19 -60.334 19 -95.001v-238zM467.999 452
c0 28 -4.33301 52 -13 72s-20.334 36.5 -35.001 49.5s-31.834 22.5 -51.501 28.5s-40.5 9 -62.5 9s-42.833 -3 -62.5 -9s-36.667 -15.5 -51 -28.5s-25.833 -29.5 -34.5 -49.5s-13 -44 -13 -72v-216c0 -28 4.33301 -52 13 -72s20.334 -36.333 35.001 -49
s31.834 -22 51.501 -28s40.167 -9 61.5 -9c22 0 42.667 3 62 9s36.5 15.333 51.5 28s26.833 29 35.5 49s13 44 13 72v216zM307.999 826l-144 -87l-29 38l150 128h53l143 -126l-30 -39z" />
    <glyph glyph-name="Otilde" unicode="&#xd5;" horiz-adv-x="613" 
d="M561 225c0 -35.333 -6.50098 -67.333 -19.501 -96s-31 -53 -54 -73s-50 -35.5 -81 -46.5s-64.5 -16.5 -100.5 -16.5c-37.333 0 -71.666 5.5 -102.999 16.5s-58.166 26.5 -80.499 46.5s-39.666 44.333 -51.999 73s-18.5 60.667 -18.5 96v238
c0 34.667 6.16699 66.334 18.5 95.001s29.666 53.167 51.999 73.5s49.166 36.166 80.499 47.499s65.666 17 102.999 17c36.667 0 70.667 -5.66699 102 -17s58.333 -27.166 81 -47.499s40.334 -44.833 53.001 -73.5s19 -60.334 19 -95.001v-238zM467.999 452
c0 28 -4.33301 52 -13 72s-20.334 36.5 -35.001 49.5s-31.834 22.5 -51.501 28.5s-40.5 9 -62.5 9s-42.833 -3 -62.5 -9s-36.667 -15.5 -51 -28.5s-25.833 -29.5 -34.5 -49.5s-13 -44 -13 -72v-216c0 -28 4.33301 -52 13 -72s20.334 -36.333 35.001 -49
s31.834 -22 51.501 -28s40.167 -9 61.5 -9c22 0 42.667 3 62 9s36.5 15.333 51.5 28s26.833 29 35.5 49s13 44 13 72v216zM234.999 869c12 0 24.168 -2.49805 36.501 -7.49805s24.166 -10.333 35.499 -16l33 -16c10.667 -5 20.334 -7.5 29.001 -7.5c10 0 20 3.5 30 10.5
s20.333 18.5 31 34.5l52 -29c-14.667 -30.667 -30.834 -53.167 -48.501 -67.5s-37.167 -21.5 -58.5 -21.5c-12 0 -23.833 2.16699 -35.5 6.5s-23.167 9.16602 -34.5 14.499s-22.166 10.166 -32.499 14.499s-20.5 6.5 -30.5 6.5c-11.333 0 -21.5 -2.83301 -30.5 -8.5
s-19.833 -16.167 -32.5 -31.5l-52 29c13.333 28 29.666 49.833 48.999 65.5s39 23.5 59 23.5z" />
    <glyph glyph-name="Odieresis" unicode="&#xd6;" horiz-adv-x="613" 
d="M561 225c0 -35.333 -6.50098 -67.333 -19.501 -96s-31 -53 -54 -73s-50 -35.5 -81 -46.5s-64.5 -16.5 -100.5 -16.5c-37.333 0 -71.666 5.5 -102.999 16.5s-58.166 26.5 -80.499 46.5s-39.666 44.333 -51.999 73s-18.5 60.667 -18.5 96v238
c0 34.667 6.16699 66.334 18.5 95.001s29.666 53.167 51.999 73.5s49.166 36.166 80.499 47.499s65.666 17 102.999 17c36.667 0 70.667 -5.66699 102 -17s58.333 -27.166 81 -47.499s40.334 -44.833 53.001 -73.5s19 -60.334 19 -95.001v-238zM467.999 452
c0 28 -4.33301 52 -13 72s-20.334 36.5 -35.001 49.5s-31.834 22.5 -51.501 28.5s-40.5 9 -62.5 9s-42.833 -3 -62.5 -9s-36.667 -15.5 -51 -28.5s-25.833 -29.5 -34.5 -49.5s-13 -44 -13 -72v-216c0 -28 4.33301 -52 13 -72s20.334 -36.333 35.001 -49
s31.834 -22 51.501 -28s40.167 -9 61.5 -9c22 0 42.667 3 62 9s36.5 15.333 51.5 28s26.833 29 35.5 49s13 44 13 72v216zM454.999 811c0 -13.333 -4.83301 -24.833 -14.5 -34.5s-21.167 -14.5 -34.5 -14.5s-24.833 4.83301 -34.5 14.5s-14.5 21.167 -14.5 34.5
s4.83301 24.666 14.5 33.999s21.167 14 34.5 14s24.833 -4.66699 34.5 -14s14.5 -20.666 14.5 -33.999zM258.999 811c0 -13.333 -4.83301 -24.833 -14.5 -34.5s-21.167 -14.5 -34.5 -14.5s-24.666 4.83301 -33.999 14.5s-14 21.167 -14 34.5s4.66699 24.666 14 33.999
s20.666 14 33.999 14s24.833 -4.66699 34.5 -14s14.5 -20.666 14.5 -33.999z" />
    <glyph glyph-name="multiply" unicode="&#xd7;" horiz-adv-x="500" 
d="M294 274l164 -164l-45 -45l-164 164l-162 -162l-45 45l162 162l-163 163l45 45l163 -162l161 161l45 -45z" />
    <glyph glyph-name="Oslash" unicode="&#xd8;" horiz-adv-x="613" 
d="M561 225c0 -35.333 -6.49707 -67.333 -19.4971 -96s-31 -53 -54 -73s-50 -35.5 -81 -46.5s-64.5 -16.5 -100.5 -16.5c-70.667 0 -128.667 18 -174 54l-37 -53l-43 29l43 62c-28.667 38 -43 84.667 -43 140v238c0 34.667 6.16699 66.334 18.5 95.001
s29.666 53.167 51.999 73.5s49.166 36.166 80.499 47.499s65.666 17 102.999 17c34 0 65.667 -5 95 -15s55 -23.667 77 -41l39 56l44 -29l-45 -65c14 -19.333 25 -40.5 33 -63.5s12 -48.167 12 -75.5v-238zM468.003 452c0 23.333 -3.66699 45 -11 65l-273 -394
c15.333 -16 33.5 -27.5 54.5 -34.5s43.5 -10.5 67.5 -10.5c22 0 42.667 3 62 9s36.5 15.333 51.5 28s26.833 29 35.5 49s13 44 13 72v216zM145.003 236c0 -25.333 3.33301 -46.999 10 -64.999l272 395c-15.333 15.333 -33.333 26.666 -54 33.999s-43 11 -67 11
c-22 0 -42.833 -3 -62.5 -9s-36.667 -15.5 -51 -28.5s-25.833 -29.5 -34.5 -49.5s-13 -44 -13 -72v-216z" />
    <glyph glyph-name="Ugrave" unicode="&#xd9;" horiz-adv-x="610" 
d="M561 218c0 -35.333 -6.83496 -67 -20.502 -95s-32.167 -51.667 -55.5 -71s-50.333 -34 -81 -44s-63.334 -15 -98.001 -15s-67.5 5 -98.5 15s-58 24.667 -81 44s-41.167 43 -54.5 71s-20 59.667 -20 95v471h93v-454c0 -28 4.33301 -52 13 -72s20.334 -36.333 35.001 -49
s31.834 -22 51.501 -28s40.167 -9 61.5 -9c20.667 0 40.834 3 60.501 9s37 15.333 52 28s27 29 36 49s13.5 44 13.5 72v454h93v-471zM323.998 738l-170 103l59 61l148 -122z" />
    <glyph glyph-name="Uacute" unicode="&#xda;" horiz-adv-x="610" 
d="M561 218c0 -35.333 -6.83496 -67 -20.502 -95s-32.167 -51.667 -55.5 -71s-50.333 -34 -81 -44s-63.334 -15 -98.001 -15s-67.5 5 -98.5 15s-58 24.667 -81 44s-41.167 43 -54.5 71s-20 59.667 -20 95v471h93v-454c0 -28 4.33301 -52 13 -72s20.334 -36.333 35.001 -49
s31.834 -22 51.501 -28s40.167 -9 61.5 -9c20.667 0 40.834 3 60.501 9s37 15.333 52 28s27 29 36 49s13.5 44 13.5 72v454h93v-471zM249.998 780l148 122l59 -61l-170 -103z" />
    <glyph glyph-name="Ucircumflex" unicode="&#xdb;" horiz-adv-x="610" 
d="M561 218c0 -35.333 -6.83496 -67 -20.502 -95s-32.167 -51.667 -55.5 -71s-50.333 -34 -81 -44s-63.334 -15 -98.001 -15s-67.5 5 -98.5 15s-58 24.667 -81 44s-41.167 43 -54.5 71s-20 59.667 -20 95v471h93v-454c0 -28 4.33301 -52 13 -72s20.334 -36.333 35.001 -49
s31.834 -22 51.501 -28s40.167 -9 61.5 -9c20.667 0 40.834 3 60.501 9s37 15.333 52 28s27 29 36 49s13.5 44 13.5 72v454h93v-471zM304.998 826l-144 -87l-29 38l150 128h53l143 -126l-30 -39z" />
    <glyph glyph-name="Udieresis" unicode="&#xdc;" horiz-adv-x="610" 
d="M561 218c0 -35.333 -6.83496 -67 -20.502 -95s-32.167 -51.667 -55.5 -71s-50.333 -34 -81 -44s-63.334 -15 -98.001 -15s-67.5 5 -98.5 15s-58 24.667 -81 44s-41.167 43 -54.5 71s-20 59.667 -20 95v471h93v-454c0 -28 4.33301 -52 13 -72s20.334 -36.333 35.001 -49
s31.834 -22 51.501 -28s40.167 -9 61.5 -9c20.667 0 40.834 3 60.501 9s37 15.333 52 28s27 29 36 49s13.5 44 13.5 72v454h93v-471zM457.998 811c0 -13.333 -4.83301 -24.833 -14.5 -34.5s-21.167 -14.5 -34.5 -14.5s-24.833 4.83301 -34.5 14.5s-14.5 21.167 -14.5 34.5
s4.83301 24.666 14.5 33.999s21.167 14 34.5 14s24.833 -4.66699 34.5 -14s14.5 -20.666 14.5 -33.999zM261.998 811c0 -13.333 -4.83301 -24.833 -14.5 -34.5s-21.167 -14.5 -34.5 -14.5s-24.666 4.83301 -33.999 14.5s-14 21.167 -14 34.5s4.66699 24.666 14 33.999
s20.666 14 33.999 14s24.833 -4.66699 34.5 -14s14.5 -20.666 14.5 -33.999z" />
    <glyph glyph-name="Yacute" unicode="&#xdd;" horiz-adv-x="537" 
d="M272 364l74 166l78 159h100l-209 -424v-265h-93v264l-210 425h101l80 -164l72 -161h7zM193 780l148 122l59 -61l-170 -103z" />
    <glyph glyph-name="Thorn" unicode="&#xde;" horiz-adv-x="554" 
d="M535 357c0 -24.667 -4.49902 -49.167 -13.499 -73.5s-21.833 -46.333 -38.5 -66s-37 -35.667 -61 -48s-51.333 -18.5 -82 -18.5h-194v-151h-92v689h92v-126h194c33.333 0 62.166 -6.16699 86.499 -18.5s44.5 -28.333 60.5 -48s28 -41.667 36 -66s12 -48.833 12 -73.5z
M444.001 357c0 37.333 -11.5 67 -34.5 89s-52.5 33 -88.5 33h-175v-243h175c36 0 65.5 10.667 88.5 32s34.5 51 34.5 89z" />
    <glyph glyph-name="germandbls" unicode="&#xdf;" horiz-adv-x="502" 
d="M135 0l-85 0.00390625v527c0 30 4.83301 56.667 14.5 80s23.167 43 40.5 59s37.833 28.167 61.5 36.5s49.5 12.5 77.5 12.5c34.667 0 64 -5.33301 88 -16s43.333 -24.334 58 -41.001s25.167 -35 31.5 -55s9.5 -39 9.5 -57c0 -9.33301 -1 -20 -3 -32s-5.5 -24 -10.5 -36
s-11.5 -23.333 -19.5 -34s-18 -20 -30 -28c15.333 -6 28.666 -14.5 39.999 -25.5s20.666 -23.5 27.999 -37.5s12.833 -28.833 16.5 -44.5s5.5 -30.834 5.5 -45.501v-91c0 -56.667 -15.5 -100.334 -46.5 -131.001s-70.833 -46 -119.5 -46c-6 0 -12.667 0.166992 -20 0.5
s-15.333 0.833008 -24 1.5l1 79c6 -0.666992 11.667 -1.16699 17 -1.5s10.333 -0.5 15 -0.5c20 0 36 3.33301 48 10s21.167 15.167 27.5 25.5s10.5 22.166 12.5 35.499s3 27 3 41v83c0 30 -9.66699 53.833 -29 71.5s-45.333 26.5 -78 26.5h-18v70h10
c16.667 0 30.834 3.5 42.501 10.5s21.334 15.667 29.001 26s13.334 21.5 17.001 33.5s5.5 23 5.5 33c0 12.667 -2.16699 25 -6.5 37s-10.833 22.833 -19.5 32.5s-19.834 17.5 -33.501 23.5s-29.5 9 -47.5 9c-20 0 -37 -3.16699 -51 -9.5s-25.167 -14.5 -33.5 -24.5
s-14.5 -21.5 -18.5 -34.5s-6 -26.167 -6 -39.5v-534z" />
    <glyph glyph-name="agrave" unicode="&#xe0;" horiz-adv-x="496" 
d="M360 48c-39.333 -22 -71.499 -36.1689 -96.499 -42.502s-47.5 -9.5 -67.5 -9.5c-48 0 -86.333 13.333 -115 40s-43 63 -43 109c0 27.333 6.16699 50.333 18.5 69s27.666 33.834 45.999 45.501s38 20 59 25s39.833 7.5 56.5 7.5h145v38
c0 34.667 -9.66699 58.834 -29 72.501s-47 20.5 -83 20.5c-17.333 0 -38.5 -2.5 -63.5 -7.5s-50.167 -17.833 -75.5 -38.5l-42 65c32 24.667 64.333 40.667 97 48s63 11 91 11c64.667 0 112.5 -14.167 143.5 -42.5s46.5 -71.833 46.5 -130.5v-328h-75l-10 46z
M363.001 220.998l-131 0.000976562c-10.667 0 -22.167 -0.833008 -34.5 -2.5s-23.833 -5 -34.5 -10s-19.5 -12.667 -26.5 -23s-10.5 -23.833 -10.5 -40.5c0 -24 8.16699 -42 24.5 -54s37.166 -18 62.499 -18c12.667 0 25.834 1.83301 39.501 5.5s27 8.16699 40 13.5
s25.5 11.166 37.5 17.499l33 17.5v94zM244.001 550.999l-100 172l81 25l72 -177z" />
    <glyph glyph-name="aacute" unicode="&#xe1;" horiz-adv-x="496" 
d="M360 48c-39.333 -22 -71.499 -36.1689 -96.499 -42.502s-47.5 -9.5 -67.5 -9.5c-48 0 -86.333 13.333 -115 40s-43 63 -43 109c0 27.333 6.16699 50.333 18.5 69s27.666 33.834 45.999 45.501s38 20 59 25s39.833 7.5 56.5 7.5h145v38
c0 34.667 -9.66699 58.834 -29 72.501s-47 20.5 -83 20.5c-17.333 0 -38.5 -2.5 -63.5 -7.5s-50.167 -17.833 -75.5 -38.5l-42 65c32 24.667 64.333 40.667 97 48s63 11 91 11c64.667 0 112.5 -14.167 143.5 -42.5s46.5 -71.833 46.5 -130.5v-328h-75l-10 46z
M363.001 220.998l-131 0.000976562c-10.667 0 -22.167 -0.833008 -34.5 -2.5s-23.833 -5 -34.5 -10s-19.5 -12.667 -26.5 -23s-10.5 -23.833 -10.5 -40.5c0 -24 8.16699 -42 24.5 -54s37.166 -18 62.499 -18c12.667 0 25.834 1.83301 39.501 5.5s27 8.16699 40 13.5
s25.5 11.166 37.5 17.499l33 17.5v94zM236.001 570.999l72 177l81 -25l-100 -172z" />
    <glyph glyph-name="acircumflex" unicode="&#xe2;" horiz-adv-x="496" 
d="M360 48c-39.333 -22 -71.499 -36.1689 -96.499 -42.502s-47.5 -9.5 -67.5 -9.5c-48 0 -86.333 13.333 -115 40s-43 63 -43 109c0 27.333 6.16699 50.333 18.5 69s27.666 33.834 45.999 45.501s38 20 59 25s39.833 7.5 56.5 7.5h145v38
c0 34.667 -9.66699 58.834 -29 72.501s-47 20.5 -83 20.5c-17.333 0 -38.5 -2.5 -63.5 -7.5s-50.167 -17.833 -75.5 -38.5l-42 65c32 24.667 64.333 40.667 97 48s63 11 91 11c64.667 0 112.5 -14.167 143.5 -42.5s46.5 -71.833 46.5 -130.5v-328h-75l-10 46z
M363.001 220.998l-131 0.000976562c-10.667 0 -22.167 -0.833008 -34.5 -2.5s-23.833 -5 -34.5 -10s-19.5 -12.667 -26.5 -23s-10.5 -23.833 -10.5 -40.5c0 -24 8.16699 -42 24.5 -54s37.166 -18 62.499 -18c12.667 0 25.834 1.83301 39.501 5.5s27 8.16699 40 13.5
s25.5 11.166 37.5 17.499l33 17.5v94zM252.001 658.999l-134 -107l-39 38l150 153h53l143 -151l-40 -39z" />
    <glyph glyph-name="atilde" unicode="&#xe3;" horiz-adv-x="496" 
d="M360 48c-39.333 -22 -71.499 -36.1689 -96.499 -42.502s-47.5 -9.5 -67.5 -9.5c-48 0 -86.333 13.333 -115 40s-43 63 -43 109c0 27.333 6.16699 50.333 18.5 69s27.666 33.834 45.999 45.501s38 20 59 25s39.833 7.5 56.5 7.5h145v38
c0 34.667 -9.66699 58.834 -29 72.501s-47 20.5 -83 20.5c-17.333 0 -38.5 -2.5 -63.5 -7.5s-50.167 -17.833 -75.5 -38.5l-42 65c32 24.667 64.333 40.667 97 48s63 11 91 11c64.667 0 112.5 -14.167 143.5 -42.5s46.5 -71.833 46.5 -130.5v-328h-75l-10 46z
M363.001 220.998l-131 0.000976562c-10.667 0 -22.167 -0.833008 -34.5 -2.5s-23.833 -5 -34.5 -10s-19.5 -12.667 -26.5 -23s-10.5 -23.833 -10.5 -40.5c0 -24 8.16699 -42 24.5 -54s37.166 -18 62.499 -18c12.667 0 25.834 1.83301 39.501 5.5s27 8.16699 40 13.5
s25.5 11.166 37.5 17.499l33 17.5v94zM186.001 698.999c12 0 24.168 -2.49805 36.501 -7.49805s24.166 -10.333 35.499 -16l33 -16c10.667 -5 20.334 -7.5 29.001 -7.5c10 0 20 3.5 30 10.5s20.333 18.5 31 34.5l52 -29c-14.667 -30.667 -30.834 -53.167 -48.501 -67.5
s-37.167 -21.5 -58.5 -21.5c-12 0 -23.833 2.16699 -35.5 6.5s-23.167 9.16602 -34.5 14.499s-22.166 10.166 -32.499 14.499s-20.5 6.5 -30.5 6.5c-11.333 0 -21.5 -2.83301 -30.5 -8.5s-19.833 -16.167 -32.5 -31.5l-52 29c13.333 28 29.666 49.833 48.999 65.5
s39 23.5 59 23.5z" />
    <glyph glyph-name="adieresis" unicode="&#xe4;" horiz-adv-x="496" 
d="M360 48c-39.333 -22 -71.499 -36.1689 -96.499 -42.502s-47.5 -9.5 -67.5 -9.5c-48 0 -86.333 13.333 -115 40s-43 63 -43 109c0 27.333 6.16699 50.333 18.5 69s27.666 33.834 45.999 45.501s38 20 59 25s39.833 7.5 56.5 7.5h145v38
c0 34.667 -9.66699 58.834 -29 72.501s-47 20.5 -83 20.5c-17.333 0 -38.5 -2.5 -63.5 -7.5s-50.167 -17.833 -75.5 -38.5l-42 65c32 24.667 64.333 40.667 97 48s63 11 91 11c64.667 0 112.5 -14.167 143.5 -42.5s46.5 -71.833 46.5 -130.5v-328h-75l-10 46z
M363.001 220.998l-131 0.000976562c-10.667 0 -22.167 -0.833008 -34.5 -2.5s-23.833 -5 -34.5 -10s-19.5 -12.667 -26.5 -23s-10.5 -23.833 -10.5 -40.5c0 -24 8.16699 -42 24.5 -54s37.166 -18 62.499 -18c12.667 0 25.834 1.83301 39.501 5.5s27 8.16699 40 13.5
s25.5 11.166 37.5 17.499l33 17.5v94zM413.001 638.999c0 -13.333 -4.83301 -24.833 -14.5 -34.5s-21.167 -14.5 -34.5 -14.5s-24.833 4.83301 -34.5 14.5s-14.5 21.167 -14.5 34.5s4.83301 24.666 14.5 33.999s21.167 14 34.5 14s24.833 -4.66699 34.5 -14
s14.5 -20.666 14.5 -33.999zM217.001 638.999c0 -13.333 -4.83301 -24.833 -14.5 -34.5s-21.167 -14.5 -34.5 -14.5s-24.666 4.83301 -33.999 14.5s-14 21.167 -14 34.5s4.66699 24.666 14 33.999s20.666 14 33.999 14s24.833 -4.66699 34.5 -14s14.5 -20.666 14.5 -33.999z
" />
    <glyph glyph-name="aring" unicode="&#xe5;" horiz-adv-x="496" 
d="M360 48c-39.333 -22 -71.499 -36.1689 -96.499 -42.502s-47.5 -9.5 -67.5 -9.5c-48 0 -86.333 13.333 -115 40s-43 63 -43 109c0 27.333 6.16699 50.333 18.5 69s27.666 33.834 45.999 45.501s38 20 59 25s39.833 7.5 56.5 7.5h145v38
c0 34.667 -9.66699 58.834 -29 72.501s-47 20.5 -83 20.5c-17.333 0 -38.5 -2.5 -63.5 -7.5s-50.167 -17.833 -75.5 -38.5l-42 65c32 24.667 64.333 40.667 97 48s63 11 91 11c64.667 0 112.5 -14.167 143.5 -42.5s46.5 -71.833 46.5 -130.5v-328h-75l-10 46z
M363.001 220.998l-131 0.000976562c-10.667 0 -22.167 -0.833008 -34.5 -2.5s-23.833 -5 -34.5 -10s-19.5 -12.667 -26.5 -23s-10.5 -23.833 -10.5 -40.5c0 -24 8.16699 -42 24.5 -54s37.166 -18 62.499 -18c12.667 0 25.834 1.83301 39.501 5.5s27 8.16699 40 13.5
s25.5 11.166 37.5 17.499l33 17.5v94zM369.001 643.999c0 -14 -2.66699 -27.333 -8 -40s-12.666 -23.667 -21.999 -33s-20.333 -16.666 -33 -21.999s-26 -8 -40 -8s-27.333 2.66699 -40 8s-23.834 12.666 -33.501 21.999s-17.167 20.333 -22.5 33s-8 26 -8 40
s2.66699 27.333 8 40s12.833 23.5 22.5 32.5s20.834 16.167 33.501 21.5s26 8 40 8s27.333 -2.66699 40 -8s23.667 -12.5 33 -21.5s16.666 -19.833 21.999 -32.5s8 -26 8 -40zM321.001 643.999c0 15.333 -5.33301 28.166 -16 38.499s-23.667 15.5 -39 15.5
s-28.5 -5.16699 -39.5 -15.5s-16.5 -23.166 -16.5 -38.499s5.5 -28.333 16.5 -39s24.167 -16 39.5 -16s28.333 5.33301 39 16s16 23.667 16 39z" />
    <glyph glyph-name="ae" unicode="&#xe6;" horiz-adv-x="799" 
d="M450 221l-0.00292969 -37.999c0 -20 3.33301 -36.833 10 -50.5s15.834 -25 27.501 -34s25 -15.5 40 -19.5s30.5 -6 46.5 -6c16.667 0 36 3.33301 58 10s43.333 19.667 64 39l54 -59c-25.333 -26 -53.5 -43.833 -84.5 -53.5s-62.167 -14.5 -93.5 -14.5
c-36.667 0 -70.334 6.16699 -101.001 18.5s-55.667 31.166 -75 56.499l-35 -22c-39.333 -22.667 -71.5 -37 -96.5 -43s-47.5 -9 -67.5 -9c-48 0 -86.333 13.333 -115 40s-43 63 -43 109c0 27.333 6.16699 50.333 18.5 69s27.666 33.834 45.999 45.501s38 20 59 25
s39.833 7.5 56.5 7.5h145v38c-0.666992 18.667 -4 34 -10 46s-14.167 21.5 -24.5 28.5s-22.5 11.833 -36.5 14.5s-29.333 4 -46 4c-17.333 0 -37.666 -2.5 -60.999 -7.5s-47.666 -17.833 -72.999 -38.5l-42 65c32 24.667 63 40.667 93 48s59 11 87 11
c38 0 70.333 -5.33301 97 -16s48 -25.667 64 -45c18 19.333 39.833 34.166 65.5 44.499s54.5 15.5 86.5 15.5c29.333 0 56.333 -4.33301 81 -13s45.834 -21 63.501 -37s31.334 -35.5 41.001 -58.5s14.5 -48.833 14.5 -77.5v-93h-314zM363.997 221.001l-131 0.000976562
c-10.667 0 -22.167 -0.833008 -34.5 -2.5s-23.833 -5 -34.5 -10s-19.5 -12.667 -26.5 -23s-10.5 -23.833 -10.5 -40.5c0 -24 8.16699 -42 24.5 -54s37.166 -18 62.499 -18c12.667 0 25.834 1.83301 39.501 5.5s27 8.16699 40 13.5s25.5 11.166 37.5 17.499l33 17.5v94z
M676.997 305.002c0 20.667 -3.00098 38.3301 -9.00098 52.9971s-14.167 26.834 -24.5 36.501s-22.333 16.667 -36 21s-28.167 6.5 -43.5 6.5s-29.666 -2.33301 -42.999 -7s-25.333 -11.667 -36 -21s-19 -21.166 -25 -35.499s-9 -31.166 -9 -50.499v-17h226v14z" />
    <glyph glyph-name="ccedilla" unicode="&#xe7;" horiz-adv-x="429" 
d="M243 501c28.667 0 57.833 -3.83301 87.5 -11.5s56.167 -24.167 79.5 -49.5l-51 -65c-22 20.667 -42.5 33.5 -61.5 38.5s-35.833 7.5 -50.5 7.5c-12.667 0 -25.834 -2 -39.501 -6s-26 -10.667 -37 -20s-20 -21.5 -27 -36.5s-10.5 -33.167 -10.5 -54.5v-112
c0 -21.333 3.33301 -39.5 10 -54.5s15.334 -27.167 26.001 -36.5s22.834 -16 36.501 -20s27.5 -6 41.5 -6c14.667 0 32.5 3 53.5 9s39.167 16.667 54.5 32l53 -60c-22 -22 -46.5 -37.5 -73.5 -46.5s-54.5 -13.833 -82.5 -14.5l-11 -34
c19.333 -1.33301 35.333 -4.83301 48 -10.5s22.834 -12.667 30.501 -21s13.167 -17.166 16.5 -26.499s5 -18 5 -26c0 -8.66699 -1.83301 -17.834 -5.5 -27.501s-9.5 -18.667 -17.5 -27s-18.667 -15.166 -32 -20.499s-29.333 -8 -48 -8c-11.333 0 -25.833 1 -43.5 3
s-34.834 6.33301 -51.501 13l16 42c14 -4.66699 27.667 -7.83398 41 -9.50098s24.666 -2.5 33.999 -2.5c16.667 0 29 3.5 37 10.5s12 15.5 12 25.5c0 8 -3.5 16.667 -10.5 26s-20.167 14 -39.5 14h-6c-2 0 -4.66699 -0.333008 -8 -1l-31 18l19 65
c-24 3.33301 -45.833 9.83301 -65.5 19.5s-36.5 22 -50.5 37s-24.833 32.333 -32.5 52s-11.5 41.167 -11.5 64.5v147c0 28 5.33301 53.333 16 76s25 42 43 58s38.833 28.167 62.5 36.5s48.5 12.5 74.5 12.5z" />
    <glyph glyph-name="egrave" unicode="&#xe8;" horiz-adv-x="483" 
d="M133 216l-0.00195312 -33c0 -20 3.33301 -36.833 10 -50.5s15.834 -25 27.501 -34s25 -15.5 40 -19.5s30.5 -6 46.5 -6c16.667 0 36 3.33301 58 10s43.333 19.667 64 39l54 -59c-25.333 -26 -53.5 -43.833 -84.5 -53.5s-62.167 -14.5 -93.5 -14.5
c-28 0 -54.667 3.83301 -80 11.5s-47.5 19 -66.5 34s-34 33.833 -45 56.5s-16.5 49 -16.5 79v131c0 29.333 5 56 15 80s23.833 44.333 41.5 61s38.667 29.5 63 38.5s51.166 13.5 80.499 13.5s56.333 -4.33301 81 -13s45.834 -21 63.501 -37s31.334 -35.5 41.001 -58.5
s14.5 -48.833 14.5 -77.5v-98h-314zM359.998 305c0 20.667 -3.00098 38.3301 -9.00098 52.9971s-14.167 26.834 -24.5 36.501s-22.333 16.667 -36 21s-28.167 6.5 -43.5 6.5s-29.666 -2.33301 -42.999 -7s-25.333 -11.667 -36 -21s-19 -21.166 -25 -35.499
s-9 -31.166 -9 -50.499v-22h226v19zM240.997 550.996l-100 172l81 25l72 -177z" />
    <glyph glyph-name="eacute" unicode="&#xe9;" horiz-adv-x="483" 
d="M133 216l-0.00195312 -33c0 -20 3.33301 -36.833 10 -50.5s15.834 -25 27.501 -34s25 -15.5 40 -19.5s30.5 -6 46.5 -6c16.667 0 36 3.33301 58 10s43.333 19.667 64 39l54 -59c-25.333 -26 -53.5 -43.833 -84.5 -53.5s-62.167 -14.5 -93.5 -14.5
c-28 0 -54.667 3.83301 -80 11.5s-47.5 19 -66.5 34s-34 33.833 -45 56.5s-16.5 49 -16.5 79v131c0 29.333 5 56 15 80s23.833 44.333 41.5 61s38.667 29.5 63 38.5s51.166 13.5 80.499 13.5s56.333 -4.33301 81 -13s45.834 -21 63.501 -37s31.334 -35.5 41.001 -58.5
s14.5 -48.833 14.5 -77.5v-98h-314zM359.998 305c0 20.667 -3.00098 38.3301 -9.00098 52.9971s-14.167 26.834 -24.5 36.501s-22.333 16.667 -36 21s-28.167 6.5 -43.5 6.5s-29.666 -2.33301 -42.999 -7s-25.333 -11.667 -36 -21s-19 -21.166 -25 -35.499
s-9 -31.166 -9 -50.499v-22h226v19zM201.997 570.996l72 177l81 -25l-100 -172z" />
    <glyph glyph-name="ecircumflex" unicode="&#xea;" horiz-adv-x="483" 
d="M133 216l-0.00195312 -33c0 -20 3.33301 -36.833 10 -50.5s15.834 -25 27.501 -34s25 -15.5 40 -19.5s30.5 -6 46.5 -6c16.667 0 36 3.33301 58 10s43.333 19.667 64 39l54 -59c-25.333 -26 -53.5 -43.833 -84.5 -53.5s-62.167 -14.5 -93.5 -14.5
c-28 0 -54.667 3.83301 -80 11.5s-47.5 19 -66.5 34s-34 33.833 -45 56.5s-16.5 49 -16.5 79v131c0 29.333 5 56 15 80s23.833 44.333 41.5 61s38.667 29.5 63 38.5s51.166 13.5 80.499 13.5s56.333 -4.33301 81 -13s45.834 -21 63.501 -37s31.334 -35.5 41.001 -58.5
s14.5 -48.833 14.5 -77.5v-98h-314zM250.998 659l-134 -107l-39 38l150 153h53l143 -151l-40 -39zM359.998 305c0 20.667 -3.00098 38.3301 -9.00098 52.9971s-14.167 26.834 -24.5 36.501s-22.333 16.667 -36 21s-28.167 6.5 -43.5 6.5s-29.666 -2.33301 -42.999 -7
s-25.333 -11.667 -36 -21s-19 -21.166 -25 -35.499s-9 -31.166 -9 -50.499v-22h226v19z" />
    <glyph glyph-name="edieresis" unicode="&#xeb;" horiz-adv-x="483" 
d="M133 216l-0.00195312 -33c0 -20 3.33301 -36.833 10 -50.5s15.834 -25 27.501 -34s25 -15.5 40 -19.5s30.5 -6 46.5 -6c16.667 0 36 3.33301 58 10s43.333 19.667 64 39l54 -59c-25.333 -26 -53.5 -43.833 -84.5 -53.5s-62.167 -14.5 -93.5 -14.5
c-28 0 -54.667 3.83301 -80 11.5s-47.5 19 -66.5 34s-34 33.833 -45 56.5s-16.5 49 -16.5 79v131c0 29.333 5 56 15 80s23.833 44.333 41.5 61s38.667 29.5 63 38.5s51.166 13.5 80.499 13.5s56.333 -4.33301 81 -13s45.834 -21 63.501 -37s31.334 -35.5 41.001 -58.5
s14.5 -48.833 14.5 -77.5v-98h-314zM359.998 305c0 20.667 -3.00098 38.3301 -9.00098 52.9971s-14.167 26.834 -24.5 36.501s-22.333 16.667 -36 21s-28.167 6.5 -43.5 6.5s-29.666 -2.33301 -42.999 -7s-25.333 -11.667 -36 -21s-19 -21.166 -25 -35.499
s-9 -31.166 -9 -50.499v-22h226v19zM396.997 638.996c0 -13.333 -4.83301 -24.833 -14.5 -34.5s-21.167 -14.5 -34.5 -14.5s-24.833 4.83301 -34.5 14.5s-14.5 21.167 -14.5 34.5s4.83301 24.666 14.5 33.999s21.167 14 34.5 14s24.833 -4.66699 34.5 -14
s14.5 -20.666 14.5 -33.999zM200.997 638.996c0 -13.333 -4.83301 -24.833 -14.5 -34.5s-21.167 -14.5 -34.5 -14.5s-24.666 4.83301 -33.999 14.5s-14 21.167 -14 34.5s4.66699 24.666 14 33.999s20.666 14 33.999 14s24.833 -4.66699 34.5 -14s14.5 -20.666 14.5 -33.999z
" />
    <glyph glyph-name="igrave" unicode="&#xec;" horiz-adv-x="239" 
d="M77 0v496h85v-496h-85zM94 551l-100 172l81 25l72 -177z" />
    <glyph glyph-name="iacute" unicode="&#xed;" horiz-adv-x="239" 
d="M77 0v496h85v-496h-85zM68 571l72 177l81 -25l-100 -172z" />
    <glyph glyph-name="icircumflex" unicode="&#xee;" horiz-adv-x="326" 
d="M122 0v496h85v-496h-85zM163 659l-134 -107l-39 38l150 153h53l143 -151l-40 -39z" />
    <glyph glyph-name="idieresis" unicode="&#xef;" horiz-adv-x="273" 
d="M94 0v496h85v-496h-85zM283 639c0 -13.333 -4.83301 -24.833 -14.5 -34.5s-21.167 -14.5 -34.5 -14.5s-24.833 4.83301 -34.5 14.5s-14.5 21.167 -14.5 34.5s4.83301 24.666 14.5 33.999s21.167 14 34.5 14s24.833 -4.66699 34.5 -14s14.5 -20.666 14.5 -33.999zM87 639
c0 -13.333 -4.83301 -24.833 -14.5 -34.5s-21.167 -14.5 -34.5 -14.5s-24.666 4.83301 -33.999 14.5s-14 21.167 -14 34.5s4.66699 24.666 14 33.999s20.666 14 33.999 14s24.833 -4.66699 34.5 -14s14.5 -20.666 14.5 -33.999z" />
    <glyph glyph-name="eth" unicode="&#xf0;" horiz-adv-x="505" 
d="M245 552l70 49.001c-10 11.333 -25.667 22 -47 32s-51 18 -89 24l14 73c39.333 -3.33301 76.333 -11.833 111 -25.5s61 -32.167 79 -55.5l85 59l30 -43l-81 -57c10.667 -18.667 18.834 -37.5 24.501 -56.5s9.66699 -39 12 -60s3.66602 -43.833 3.99902 -68.5
s0.5 -52 0.5 -82v-150c0 -28.667 -4.5 -55 -13.5 -79s-22.333 -44.667 -40 -62s-39.5 -30.833 -65.5 -40.5s-56 -14.5 -90 -14.5c-28.667 0 -55.167 4 -79.5 12s-45.5 19.667 -63.5 35s-32.167 34.166 -42.5 56.499s-15.5 47.833 -15.5 76.5v107
c0 28.667 5 54.834 15 78.501s24 44.167 42 61.5s39.5 30.833 64.5 40.5s52.5 14.5 82.5 14.5c22 0 44 -3.33301 66 -10s40.333 -16.667 55 -30l2 1c-1.33301 24.667 -3.5 48.167 -6.5 70.5s-9.16699 40.166 -18.5 53.499l-75 -53zM373 280.001
c0 21.333 -3.50195 39.5 -10.502 54.5s-16 27.167 -27 36.5s-23.5 16 -37.5 20s-27.667 6 -41 6c-16.667 0 -32.5 -2.5 -47.5 -7.5s-28 -12.5 -39 -22.5s-19.833 -22.833 -26.5 -38.5s-10 -34.167 -10 -55.5v-81c0 -21.333 3.16699 -39.5 9.5 -54.5
s14.833 -27.167 25.5 -36.5s23.334 -16 38.001 -20s30.334 -6 47.001 -6c14.667 0 29.167 2 43.5 6s27 10.667 38 20s20 21.5 27 36.5s10.5 33.167 10.5 54.5v88z" />
    <glyph glyph-name="ntilde" unicode="&#xf1;" horiz-adv-x="497" 
d="M298 501c48.667 0 86.666 -15.333 113.999 -46s41 -74.334 41 -131.001v-324h-86v313c0 38.667 -8.33301 65.834 -25 81.501s-37.667 23.167 -63 22.5c-20 0 -43.5 -5.16699 -70.5 -15.5s-53.167 -23.5 -78.5 -39.5v-362h-86v496h76l10 -55
c21.333 13.333 40.5 24 57.5 32s32.167 14 45.5 18s25.333 6.66699 36 8s20.334 2 29.001 2zM171.999 699c12 0 24.168 -2.49805 36.501 -7.49805s24.166 -10.333 35.499 -16l33 -16c10.667 -5 20.334 -7.5 29.001 -7.5c10 0 20 3.5 30 10.5s20.333 18.5 31 34.5l52 -29
c-14.667 -30.667 -30.834 -53.167 -48.501 -67.5s-37.167 -21.5 -58.5 -21.5c-12 0 -23.833 2.16699 -35.5 6.5s-23.167 9.16602 -34.5 14.499s-22.166 10.166 -32.499 14.499s-20.5 6.5 -30.5 6.5c-11.333 0 -21.5 -2.83301 -30.5 -8.5s-19.833 -16.167 -32.5 -31.5l-52 29
c13.333 28 29.666 49.833 48.999 65.5s39 23.5 59 23.5z" />
    <glyph glyph-name="ograve" unicode="&#xf2;" horiz-adv-x="505" 
d="M458 175c0 -28.667 -5.49902 -54.167 -16.499 -76.5s-26 -41.166 -45 -56.499s-40.833 -27 -65.5 -35s-51 -12 -79 -12c-28.667 0 -55.334 4 -80.001 12s-46.167 19.667 -64.5 35s-32.833 34.166 -43.5 56.499s-16 47.833 -16 76.5v144c0 28.667 5.5 54.167 16.5 76.5
s25.667 41.333 44 57s40 27.667 65 36s51.5 12.5 79.5 12.5c30 0 57.5 -4.16699 82.5 -12.5s46.667 -20.333 65 -36s32.5 -34.667 42.5 -57s15 -47.833 15 -76.5v-144zM373.001 304c0 21.333 -3.66895 39.5 -11.002 54.5s-16.833 27.167 -28.5 36.5s-24.5 16 -38.5 20
s-27.667 6 -41 6c-14 0 -28 -2 -42 -6s-26.833 -10.667 -38.5 -20s-21.167 -21.5 -28.5 -36.5s-11 -33.167 -11 -54.5v-112c0 -21.333 3.16699 -39.5 9.5 -54.5s14.833 -27.167 25.5 -36.5s23.334 -16 38.001 -20s30.334 -6 47.001 -6c13.333 0 27 2 41 6
s26.833 10.667 38.5 20s21.167 21.5 28.5 36.5s11 33.167 11 54.5v112zM251.999 551l-100 172l81 25l72 -177z" />
    <glyph glyph-name="oacute" unicode="&#xf3;" horiz-adv-x="505" 
d="M458 175c0 -28.667 -5.49902 -54.167 -16.499 -76.5s-26 -41.166 -45 -56.499s-40.833 -27 -65.5 -35s-51 -12 -79 -12c-28.667 0 -55.334 4 -80.001 12s-46.167 19.667 -64.5 35s-32.833 34.166 -43.5 56.499s-16 47.833 -16 76.5v144c0 28.667 5.5 54.167 16.5 76.5
s25.667 41.333 44 57s40 27.667 65 36s51.5 12.5 79.5 12.5c30 0 57.5 -4.16699 82.5 -12.5s46.667 -20.333 65 -36s32.5 -34.667 42.5 -57s15 -47.833 15 -76.5v-144zM373.001 304c0 21.333 -3.66895 39.5 -11.002 54.5s-16.833 27.167 -28.5 36.5s-24.5 16 -38.5 20
s-27.667 6 -41 6c-14 0 -28 -2 -42 -6s-26.833 -10.667 -38.5 -20s-21.167 -21.5 -28.5 -36.5s-11 -33.167 -11 -54.5v-112c0 -21.333 3.16699 -39.5 9.5 -54.5s14.833 -27.167 25.5 -36.5s23.334 -16 38.001 -20s30.334 -6 47.001 -6c13.333 0 27 2 41 6
s26.833 10.667 38.5 20s21.167 21.5 28.5 36.5s11 33.167 11 54.5v112zM215.999 571l72 177l81 -25l-100 -172z" />
    <glyph glyph-name="ocircumflex" unicode="&#xf4;" horiz-adv-x="505" 
d="M458 175c0 -28.667 -5.49902 -54.167 -16.499 -76.5s-26 -41.166 -45 -56.499s-40.833 -27 -65.5 -35s-51 -12 -79 -12c-28.667 0 -55.334 4 -80.001 12s-46.167 19.667 -64.5 35s-32.833 34.166 -43.5 56.499s-16 47.833 -16 76.5v144c0 28.667 5.5 54.167 16.5 76.5
s25.667 41.333 44 57s40 27.667 65 36s51.5 12.5 79.5 12.5c30 0 57.5 -4.16699 82.5 -12.5s46.667 -20.333 65 -36s32.5 -34.667 42.5 -57s15 -47.833 15 -76.5v-144zM373.001 304c0 21.333 -3.66895 39.5 -11.002 54.5s-16.833 27.167 -28.5 36.5s-24.5 16 -38.5 20
s-27.667 6 -41 6c-14 0 -28 -2 -42 -6s-26.833 -10.667 -38.5 -20s-21.167 -21.5 -28.5 -36.5s-11 -33.167 -11 -54.5v-112c0 -21.333 3.16699 -39.5 9.5 -54.5s14.833 -27.167 25.5 -36.5s23.334 -16 38.001 -20s30.334 -6 47.001 -6c13.333 0 27 2 41 6
s26.833 10.667 38.5 20s21.167 21.5 28.5 36.5s11 33.167 11 54.5v112zM254.999 659l-134 -107l-39 38l150 153h53l143 -151l-40 -39z" />
    <glyph glyph-name="otilde" unicode="&#xf5;" horiz-adv-x="505" 
d="M458 175c0 -28.667 -5.49902 -54.167 -16.499 -76.5s-26 -41.166 -45 -56.499s-40.833 -27 -65.5 -35s-51 -12 -79 -12c-28.667 0 -55.334 4 -80.001 12s-46.167 19.667 -64.5 35s-32.833 34.166 -43.5 56.499s-16 47.833 -16 76.5v144c0 28.667 5.5 54.167 16.5 76.5
s25.667 41.333 44 57s40 27.667 65 36s51.5 12.5 79.5 12.5c30 0 57.5 -4.16699 82.5 -12.5s46.667 -20.333 65 -36s32.5 -34.667 42.5 -57s15 -47.833 15 -76.5v-144zM373.001 304c0 21.333 -3.66895 39.5 -11.002 54.5s-16.833 27.167 -28.5 36.5s-24.5 16 -38.5 20
s-27.667 6 -41 6c-14 0 -28 -2 -42 -6s-26.833 -10.667 -38.5 -20s-21.167 -21.5 -28.5 -36.5s-11 -33.167 -11 -54.5v-112c0 -21.333 3.16699 -39.5 9.5 -54.5s14.833 -27.167 25.5 -36.5s23.334 -16 38.001 -20s30.334 -6 47.001 -6c13.333 0 27 2 41 6
s26.833 10.667 38.5 20s21.167 21.5 28.5 36.5s11 33.167 11 54.5v112zM193.999 699c12 0 24.168 -2.49805 36.501 -7.49805s24.166 -10.333 35.499 -16l33 -16c10.667 -5 20.334 -7.5 29.001 -7.5c10 0 20 3.5 30 10.5s20.333 18.5 31 34.5l52 -29
c-14.667 -30.667 -30.834 -53.167 -48.501 -67.5s-37.167 -21.5 -58.5 -21.5c-12 0 -23.833 2.16699 -35.5 6.5s-23.167 9.16602 -34.5 14.499s-22.166 10.166 -32.499 14.499s-20.5 6.5 -30.5 6.5c-11.333 0 -21.5 -2.83301 -30.5 -8.5s-19.833 -16.167 -32.5 -31.5l-52 29
c13.333 28 29.666 49.833 48.999 65.5s39 23.5 59 23.5z" />
    <glyph glyph-name="odieresis" unicode="&#xf6;" horiz-adv-x="505" 
d="M458 175c0 -28.667 -5.49902 -54.167 -16.499 -76.5s-26 -41.166 -45 -56.499s-40.833 -27 -65.5 -35s-51 -12 -79 -12c-28.667 0 -55.334 4 -80.001 12s-46.167 19.667 -64.5 35s-32.833 34.166 -43.5 56.499s-16 47.833 -16 76.5v144c0 28.667 5.5 54.167 16.5 76.5
s25.667 41.333 44 57s40 27.667 65 36s51.5 12.5 79.5 12.5c30 0 57.5 -4.16699 82.5 -12.5s46.667 -20.333 65 -36s32.5 -34.667 42.5 -57s15 -47.833 15 -76.5v-144zM373.001 304c0 21.333 -3.66895 39.5 -11.002 54.5s-16.833 27.167 -28.5 36.5s-24.5 16 -38.5 20
s-27.667 6 -41 6c-14 0 -28 -2 -42 -6s-26.833 -10.667 -38.5 -20s-21.167 -21.5 -28.5 -36.5s-11 -33.167 -11 -54.5v-112c0 -21.333 3.16699 -39.5 9.5 -54.5s14.833 -27.167 25.5 -36.5s23.334 -16 38.001 -20s30.334 -6 47.001 -6c13.333 0 27 2 41 6
s26.833 10.667 38.5 20s21.167 21.5 28.5 36.5s11 33.167 11 54.5v112zM401.999 639c0 -13.333 -4.83301 -24.833 -14.5 -34.5s-21.167 -14.5 -34.5 -14.5s-24.833 4.83301 -34.5 14.5s-14.5 21.167 -14.5 34.5s4.83301 24.666 14.5 33.999s21.167 14 34.5 14
s24.833 -4.66699 34.5 -14s14.5 -20.666 14.5 -33.999zM205.999 639c0 -13.333 -4.83301 -24.833 -14.5 -34.5s-21.167 -14.5 -34.5 -14.5s-24.666 4.83301 -33.999 14.5s-14 21.167 -14 34.5s4.66699 24.666 14 33.999s20.666 14 33.999 14s24.833 -4.66699 34.5 -14
s14.5 -20.666 14.5 -33.999z" />
    <glyph glyph-name="divide" unicode="&#xf7;" horiz-adv-x="500" 
d="M311 473c0 -15.333 -5.66699 -28.666 -17 -39.999s-24.666 -17 -39.999 -17c-16 0 -29.5 5.66699 -40.5 17s-16.5 24.666 -16.5 39.999s5.5 28.666 16.5 39.999s24.5 17 40.5 17c15.333 0 28.666 -5.66699 39.999 -17s17 -24.666 17 -39.999zM28 262v63h451v-63h-451z
M254 172c15.333 0 28.666 -5.5 39.999 -16.5s17 -24.167 17 -39.5c0 -16 -5.66699 -29.5 -17 -40.5s-24.666 -16.5 -39.999 -16.5c-16 0 -29.5 5.5 -40.5 16.5s-16.5 24.5 -16.5 40.5c0 15.333 5.5 28.5 16.5 39.5s24.5 16.5 40.5 16.5z" />
    <glyph glyph-name="oslash" unicode="&#xf8;" horiz-adv-x="505" 
d="M458 175c0 -28.667 -5.5 -54.167 -16.5 -76.5s-26 -41.166 -45 -56.499s-40.833 -27 -65.5 -35s-51 -12 -79 -12c-26 0 -50.5 3.16699 -73.5 9.5s-43.5 16.166 -61.5 29.499l-32 -42l-37 30l35 45c-11.333 14 -20 30 -26 48s-9 38 -9 60v144
c0 28.667 5.5 54.167 16.5 76.5s25.667 41.333 44 57s40 27.667 65 36s51.5 12.5 79.5 12.5c54.667 0 100 -13.333 136 -40l31 40l38 -27l-35 -45c11.333 -14.667 20 -31.167 26 -49.5s9 -38.5 9 -60.5v-144zM373 304c0 18.667 -2.99902 35 -8.99902 49l-195 -252
c10.667 -9.33301 23.167 -16 37.5 -20s30.166 -6 47.499 -6c13.333 0 27 2 41 6s26.833 10.667 38.5 20s21.167 21.5 28.5 36.5s11 33.167 11 54.5v112zM134.001 192c0 -20 2.33301 -36.667 7 -50l195 251c-12 10 -25.167 17.167 -39.5 21.5s-28.5 6.5 -42.5 6.5
s-28 -2 -42 -6s-26.833 -10.667 -38.5 -20s-21.167 -21.5 -28.5 -36.5s-11 -33.167 -11 -54.5v-112z" />
    <glyph glyph-name="ugrave" unicode="&#xf9;" horiz-adv-x="505" 
d="M382 0l-9.99805 53.001c-20.667 -12.667 -38.834 -22.834 -54.501 -30.501s-29.667 -13.5 -42 -17.5s-23.333 -6.66699 -33 -8s-18.834 -2 -27.501 -2c-52.667 0 -93.667 15.333 -123 46s-44 74.334 -44 131.001v324h86v-315c0 -38.667 8.5 -65.834 25.5 -81.501
s38.167 -23.167 63.5 -22.5c20 0 43.167 5.33301 69.5 16s52.833 25.667 79.5 45v358h86v-496h-76zM248.002 551.001l-100 172l81 25l72 -177z" />
    <glyph glyph-name="uacute" unicode="&#xfa;" horiz-adv-x="505" 
d="M382 0l-9.99805 53.001c-20.667 -12.667 -38.834 -22.834 -54.501 -30.501s-29.667 -13.5 -42 -17.5s-23.333 -6.66699 -33 -8s-18.834 -2 -27.501 -2c-52.667 0 -93.667 15.333 -123 46s-44 74.334 -44 131.001v324h86v-315c0 -38.667 8.5 -65.834 25.5 -81.501
s38.167 -23.167 63.5 -22.5c20 0 43.167 5.33301 69.5 16s52.833 25.667 79.5 45v358h86v-496h-76zM216.002 571.001l72 177l81 -25l-100 -172z" />
    <glyph glyph-name="ucircumflex" unicode="&#xfb;" horiz-adv-x="505" 
d="M382 0l-9.99805 53.001c-20.667 -12.667 -38.834 -22.834 -54.501 -30.501s-29.667 -13.5 -42 -17.5s-23.333 -6.66699 -33 -8s-18.834 -2 -27.501 -2c-52.667 0 -93.667 15.333 -123 46s-44 74.334 -44 131.001v324h86v-315c0 -38.667 8.5 -65.834 25.5 -81.501
s38.167 -23.167 63.5 -22.5c20 0 43.167 5.33301 69.5 16s52.833 25.667 79.5 45v358h86v-496h-76zM253.002 659.001l-134 -107l-39 38l150 153h53l143 -151l-40 -39z" />
    <glyph glyph-name="udieresis" unicode="&#xfc;" horiz-adv-x="505" 
d="M382 0l-9.99805 53.001c-20.667 -12.667 -38.834 -22.834 -54.501 -30.501s-29.667 -13.5 -42 -17.5s-23.333 -6.66699 -33 -8s-18.834 -2 -27.501 -2c-52.667 0 -93.667 15.333 -123 46s-44 74.334 -44 131.001v324h86v-315c0 -38.667 8.5 -65.834 25.5 -81.501
s38.167 -23.167 63.5 -22.5c20 0 43.167 5.33301 69.5 16s52.833 25.667 79.5 45v358h86v-496h-76zM397.002 639.001c0 -13.333 -4.83301 -24.833 -14.5 -34.5s-21.167 -14.5 -34.5 -14.5s-24.833 4.83301 -34.5 14.5s-14.5 21.167 -14.5 34.5s4.83301 24.666 14.5 33.999
s21.167 14 34.5 14s24.833 -4.66699 34.5 -14s14.5 -20.666 14.5 -33.999zM201.002 639.001c0 -13.333 -4.83301 -24.833 -14.5 -34.5s-21.167 -14.5 -34.5 -14.5s-24.666 4.83301 -33.999 14.5s-14 21.167 -14 34.5s4.66699 24.666 14 33.999s20.666 14 33.999 14
s24.833 -4.66699 34.5 -14s14.5 -20.666 14.5 -33.999z" />
    <glyph glyph-name="yacute" unicode="&#xfd;" horiz-adv-x="468" 
d="M113 -201l73 210l-42 35l-134 452h93l60 -218l55 -198h3l70 198l75 218h92l-253 -697h-92zM187 571l72 177l81 -25l-100 -172z" />
    <glyph glyph-name="thorn" unicode="&#xfe;" horiz-adv-x="496" 
d="M132 689v-245.997c36.667 23.333 67.5 38.666 92.5 45.999s46.5 11 64.5 11c48.667 0 88.5 -14.333 119.5 -43s46.5 -73.334 46.5 -134.001v-152c0 -56.667 -15.5 -100.334 -46.5 -131.001s-73.5 -46 -127.5 -46c-18 0 -39 1.83301 -63 5.5s-52.667 12.167 -86 25.5v-223
h-85v887h85zM132 106.003c30.667 -12.667 56.667 -21.001 78 -25.001s42.333 -6 63 -6c13.333 0 25.833 1.5 37.5 4.5s21.834 8.33301 30.501 16s15.5 18 20.5 31s7.5 29.167 7.5 48.5v142c0 38 -8 64.167 -24 78.5s-37.333 21.5 -64 21.5
c-9.33301 0 -20.333 -1.66699 -33 -5s-25.834 -7.66602 -39.501 -12.999s-27.167 -11.5 -40.5 -18.5s-25.333 -14.167 -36 -21.5v-253z" />
    <glyph glyph-name="ydieresis" unicode="&#xff;" horiz-adv-x="468" 
d="M113 -201l73 210l-42 35l-134 452h93l60 -218l55 -198h3l70 198l75 218h92l-253 -697h-92zM381 639c0 -13.333 -4.83301 -24.833 -14.5 -34.5s-21.167 -14.5 -34.5 -14.5s-24.833 4.83301 -34.5 14.5s-14.5 21.167 -14.5 34.5s4.83301 24.666 14.5 33.999
s21.167 14 34.5 14s24.833 -4.66699 34.5 -14s14.5 -20.666 14.5 -33.999zM185 639c0 -13.333 -4.83301 -24.833 -14.5 -34.5s-21.167 -14.5 -34.5 -14.5s-24.666 4.83301 -33.999 14.5s-14 21.167 -14 34.5s4.66699 24.666 14 33.999s20.666 14 33.999 14
s24.833 -4.66699 34.5 -14s14.5 -20.666 14.5 -33.999z" />
    <glyph glyph-name="Amacron" unicode="&#x100;" horiz-adv-x="597" 
d="M490 0l-54 155h-274l-53 -155h-96l240 689h93l241 -689h-97zM297 563l-50 -160l-55 -164h215l-55 164l-51 160h-4zM164 780v75h268v-75h-268z" />
    <glyph glyph-name="amacron" unicode="&#x101;" horiz-adv-x="496" 
d="M360 48c-39.333 -22 -71.499 -36.1689 -96.499 -42.502s-47.5 -9.5 -67.5 -9.5c-48 0 -86.333 13.333 -115 40s-43 63 -43 109c0 27.333 6.16699 50.333 18.5 69s27.666 33.834 45.999 45.501s38 20 59 25s39.833 7.5 56.5 7.5h145v38
c0 34.667 -9.66699 58.834 -29 72.501s-47 20.5 -83 20.5c-17.333 0 -38.5 -2.5 -63.5 -7.5s-50.167 -17.833 -75.5 -38.5l-42 65c32 24.667 64.333 40.667 97 48s63 11 91 11c64.667 0 112.5 -14.167 143.5 -42.5s46.5 -71.833 46.5 -130.5v-328h-75l-10 46z
M363.001 220.998l-131 0.000976562c-10.667 0 -22.167 -0.833008 -34.5 -2.5s-23.833 -5 -34.5 -10s-19.5 -12.667 -26.5 -23s-10.5 -23.833 -10.5 -40.5c0 -24 8.16699 -42 24.5 -54s37.166 -18 62.499 -18c12.667 0 25.834 1.83301 39.501 5.5s27 8.16699 40 13.5
s25.5 11.166 37.5 17.499l33 17.5v94zM127.001 599.999v75h268v-75h-268z" />
    <glyph glyph-name="Abreve" unicode="&#x102;" horiz-adv-x="597" 
d="M490 0l-54 155h-274l-53 -155h-96l240 689h93l241 -689h-97zM297 563l-50 -160l-55 -164h215l-55 164l-51 160h-4zM229 860c0.666992 -6.66699 2.66504 -13.667 5.99805 -21s8 -14.166 14 -20.499s13.333 -11.5 22 -15.5s18.334 -6 29.001 -6c12 0 22.5 2 31.5 6
s16.5 9.16699 22.5 15.5s10.5 13.166 13.5 20.499s4.5 14.333 4.5 21h71c-1.33301 -13.333 -4.33301 -27.5 -9 -42.5s-12.5 -28.833 -23.5 -41.5s-25.333 -23.334 -43 -32.001s-40.167 -13 -67.5 -13s-50.166 4.33301 -68.499 13s-33 19.334 -44 32.001s-19 26.5 -24 41.5
s-7.5 29.167 -7.5 42.5h73z" />
    <glyph glyph-name="abreve" unicode="&#x103;" horiz-adv-x="496" 
d="M360 48c-39.333 -22 -71.499 -36.1689 -96.499 -42.502s-47.5 -9.5 -67.5 -9.5c-48 0 -86.333 13.333 -115 40s-43 63 -43 109c0 27.333 6.16699 50.333 18.5 69s27.666 33.834 45.999 45.501s38 20 59 25s39.833 7.5 56.5 7.5h145v38
c0 34.667 -9.66699 58.834 -29 72.501s-47 20.5 -83 20.5c-17.333 0 -38.5 -2.5 -63.5 -7.5s-50.167 -17.833 -75.5 -38.5l-42 65c32 24.667 64.333 40.667 97 48s63 11 91 11c64.667 0 112.5 -14.167 143.5 -42.5s46.5 -71.833 46.5 -130.5v-328h-75l-10 46z
M363.001 220.998l-131 0.000976562c-10.667 0 -22.167 -0.833008 -34.5 -2.5s-23.833 -5 -34.5 -10s-19.5 -12.667 -26.5 -23s-10.5 -23.833 -10.5 -40.5c0 -24 8.16699 -42 24.5 -54s37.166 -18 62.499 -18c12.667 0 25.834 1.83301 39.501 5.5s27 8.16699 40 13.5
s25.5 11.166 37.5 17.499l33 17.5v94zM202.001 696.999c0.666992 -6.66699 2.66504 -13.667 5.99805 -21s8 -14.166 14 -20.499s13.333 -11.5 22 -15.5s18.334 -6 29.001 -6c12 0 22.5 2 31.5 6s16.5 9.16699 22.5 15.5s10.5 13.166 13.5 20.499s4.5 14.333 4.5 21h71
c-1.33301 -13.333 -4.33301 -27.5 -9 -42.5s-12.5 -28.833 -23.5 -41.5s-25.333 -23.334 -43 -32.001s-40.167 -13 -67.5 -13s-50.166 4.33301 -68.499 13s-33 19.334 -44 32.001s-19 26.5 -24 41.5s-7.5 29.167 -7.5 42.5h73z" />
    <glyph glyph-name="Aogonek" unicode="&#x104;" horiz-adv-x="597" 
d="M453 -92c0 13.333 2.83398 27.333 8.50098 42s15.167 31.334 28.5 50.001l-54 155h-274l-53 -155h-96l240 689h93l241 -689h-37c-21.333 -30 -32 -55.667 -32 -77c0 -14 4.16699 -24.833 12.5 -32.5s20.166 -11.5 35.499 -11.5c8 0 16.333 1.66699 25 5
s19 7.66602 31 12.999l21 -52c-13.333 -7.33301 -28 -13.333 -44 -18s-32.333 -7 -49 -7c-28.667 0 -52 8.66699 -70 26s-27 38 -27 62zM297.001 563l-50 -160l-55 -164h215l-55 164l-51 160h-4z" />
    <glyph glyph-name="aogonek" unicode="&#x105;" horiz-adv-x="496" 
d="M360 48c-39.333 -22 -71.498 -36.1689 -96.498 -42.502s-47.5 -9.5 -67.5 -9.5c-48 0 -86.333 13.333 -115 40s-43 63 -43 109c0 27.333 6.16699 50.333 18.5 69s27.666 33.834 45.999 45.501s38 20 59 25s39.833 7.5 56.5 7.5h145v38
c0 34.667 -9.66699 58.834 -29 72.501s-47 20.5 -83 20.5c-17.333 0 -38.5 -2.5 -63.5 -7.5s-50.167 -17.833 -75.5 -38.5l-42 65c32 24.667 64.333 40.667 97 48s63 11 91 11c64.667 0 112.5 -14.167 143.5 -42.5s46.5 -71.833 46.5 -130.5v-328h-15
c-21.333 -30 -32 -55.667 -32 -77c0 -14 4.16699 -24.833 12.5 -32.5s20.166 -11.5 35.499 -11.5c8 0 16.333 1.66699 25 5s19 7.66602 31 12.999l21 -52c-13.333 -7.33301 -28 -13.333 -44 -18s-32.333 -7 -49 -7c-28.667 0 -52 8.66699 -70 26s-27 38 -27 62
c0 13.333 2.83301 27.333 8.5 42s15.167 31.334 28.5 50.001l-10 46zM363.002 220.998l-131 0.000976562c-10.667 0 -22.167 -0.833008 -34.5 -2.5s-23.833 -5 -34.5 -10s-19.5 -12.667 -26.5 -23s-10.5 -23.833 -10.5 -40.5c0 -24 8.16699 -42 24.5 -54
s37.166 -18 62.499 -18c12.667 0 25.834 1.83301 39.501 5.5s27 8.16699 40 13.5s25.5 11.166 37.5 17.499l33 17.5v94z" />
    <glyph glyph-name="Cacute" unicode="&#x106;" horiz-adv-x="527" 
d="M303 696c37.333 0 72.332 -5 104.999 -15s62 -25.667 88 -47l-46 -72c-18 15.333 -40.5 27.333 -67.5 36s-53.5 13 -79.5 13c-19.333 0 -38.333 -3 -57 -9s-35.334 -15.333 -50.001 -28s-26.5 -29 -35.5 -49s-13.5 -44.333 -13.5 -73v-215
c0 -28 4.66699 -52.167 14 -72.5s21.333 -36.833 36 -49.5s31.167 -22 49.5 -28s36.5 -9 54.5 -9c26 0 52.5 3.66699 79.5 11s51.167 19.666 72.5 36.999l44 -71c-21.333 -17.333 -49 -32 -83 -44s-71 -18 -111 -18c-33.333 0 -65.166 5.16699 -95.499 15.5
s-56.833 25.166 -79.5 44.499s-40.667 43 -54 71s-20 59.667 -20 95v252c0 34.667 6.83301 65.834 20.5 93.501s31.834 51.334 54.501 71.001s49 34.667 79 45s61.667 15.5 95 15.5zM229.999 780l148 122l59 -61l-170 -103z" />
    <glyph glyph-name="cacute" unicode="&#x107;" horiz-adv-x="429" 
d="M243 501c28.667 0 57.832 -3.83301 87.499 -11.5s56.167 -24.167 79.5 -49.5l-51 -65c-22 20.667 -42.5 33.5 -61.5 38.5s-35.833 7.5 -50.5 7.5c-12.667 0 -25.834 -2 -39.501 -6s-26 -10.667 -37 -20s-20 -21.5 -27 -36.5s-10.5 -33.167 -10.5 -54.5v-112
c0 -21.333 3.33301 -39.5 10 -54.5s15.334 -27.167 26.001 -36.5s22.834 -16 36.501 -20s27.5 -6 41.5 -6c14.667 0 32.5 3 53.5 9s39.167 16.667 54.5 32l53 -60c-23.333 -23.333 -49.166 -39.333 -77.499 -48s-56.833 -13 -85.5 -13c-29.333 0 -56 4.33301 -80 13
s-44.833 20.667 -62.5 36s-31.334 33.833 -41.001 55.5s-14.5 45.5 -14.5 71.5v147c0 28 5.33301 53.333 16 76s25 42 43 58s38.833 28.167 62.5 36.5s48.5 12.5 74.5 12.5zM192.998 571l72 177l81 -25l-100 -172z" />
    <glyph glyph-name="Ccircumflex" unicode="&#x108;" horiz-adv-x="527" 
d="M303 696c37.333 0 72.332 -5 104.999 -15s62 -25.667 88 -47l-46 -72c-18 15.333 -40.5 27.333 -67.5 36s-53.5 13 -79.5 13c-19.333 0 -38.333 -3 -57 -9s-35.334 -15.333 -50.001 -28s-26.5 -29 -35.5 -49s-13.5 -44.333 -13.5 -73v-215
c0 -28 4.66699 -52.167 14 -72.5s21.333 -36.833 36 -49.5s31.167 -22 49.5 -28s36.5 -9 54.5 -9c26 0 52.5 3.66699 79.5 11s51.167 19.666 72.5 36.999l44 -71c-21.333 -17.333 -49 -32 -83 -44s-71 -18 -111 -18c-33.333 0 -65.166 5.16699 -95.499 15.5
s-56.833 25.166 -79.5 44.499s-40.667 43 -54 71s-20 59.667 -20 95v252c0 34.667 6.83301 65.834 20.5 93.501s31.834 51.334 54.501 71.001s49 34.667 79 45s61.667 15.5 95 15.5zM299.999 826l-144 -87l-29 38l150 128h53l143 -126l-30 -39z" />
    <glyph glyph-name="ccircumflex" unicode="&#x109;" horiz-adv-x="429" 
d="M243 501c28.667 0 57.832 -3.83301 87.499 -11.5s56.167 -24.167 79.5 -49.5l-51 -65c-22 20.667 -42.5 33.5 -61.5 38.5s-35.833 7.5 -50.5 7.5c-12.667 0 -25.834 -2 -39.501 -6s-26 -10.667 -37 -20s-20 -21.5 -27 -36.5s-10.5 -33.167 -10.5 -54.5v-112
c0 -21.333 3.33301 -39.5 10 -54.5s15.334 -27.167 26.001 -36.5s22.834 -16 36.501 -20s27.5 -6 41.5 -6c14.667 0 32.5 3 53.5 9s39.167 16.667 54.5 32l53 -60c-23.333 -23.333 -49.166 -39.333 -77.499 -48s-56.833 -13 -85.5 -13c-29.333 0 -56 4.33301 -80 13
s-44.833 20.667 -62.5 36s-31.334 33.833 -41.001 55.5s-14.5 45.5 -14.5 71.5v147c0 28 5.33301 53.333 16 76s25 42 43 58s38.833 28.167 62.5 36.5s48.5 12.5 74.5 12.5zM243.998 659l-134 -107l-39 38l150 153h53l143 -151l-40 -39z" />
    <glyph glyph-name="Cdotaccent" unicode="&#x10a;" horiz-adv-x="527" 
d="M303 696c37.333 0 72.332 -5 104.999 -15s62 -25.667 88 -47l-46 -72c-18 15.333 -40.5 27.333 -67.5 36s-53.5 13 -79.5 13c-19.333 0 -38.333 -3 -57 -9s-35.334 -15.333 -50.001 -28s-26.5 -29 -35.5 -49s-13.5 -44.333 -13.5 -73v-215
c0 -28 4.66699 -52.167 14 -72.5s21.333 -36.833 36 -49.5s31.167 -22 49.5 -28s36.5 -9 54.5 -9c26 0 52.5 3.66699 79.5 11s51.167 19.666 72.5 36.999l44 -71c-21.333 -17.333 -49 -32 -83 -44s-71 -18 -111 -18c-33.333 0 -65.166 5.16699 -95.499 15.5
s-56.833 25.166 -79.5 44.499s-40.667 43 -54 71s-20 59.667 -20 95v252c0 34.667 6.83301 65.834 20.5 93.501s31.834 51.334 54.501 71.001s49 34.667 79 45s61.667 15.5 95 15.5zM239.999 814c0 12.667 4.33301 24.5 13 35.5s21.667 16.5 39 16.5
c18 0 31.833 -5.5 41.5 -16.5s14.5 -22.833 14.5 -35.5c0 -15.333 -4.83301 -28.333 -14.5 -39s-23.5 -16 -41.5 -16c-17.333 0 -30.333 5.16699 -39 15.5s-13 23.5 -13 39.5z" />
    <glyph glyph-name="cdotaccent" unicode="&#x10b;" horiz-adv-x="429" 
d="M243 501c28.667 0 57.832 -3.83301 87.499 -11.5s56.167 -24.167 79.5 -49.5l-51 -65c-22 20.667 -42.5 33.5 -61.5 38.5s-35.833 7.5 -50.5 7.5c-12.667 0 -25.834 -2 -39.501 -6s-26 -10.667 -37 -20s-20 -21.5 -27 -36.5s-10.5 -33.167 -10.5 -54.5v-112
c0 -21.333 3.33301 -39.5 10 -54.5s15.334 -27.167 26.001 -36.5s22.834 -16 36.501 -20s27.5 -6 41.5 -6c14.667 0 32.5 3 53.5 9s39.167 16.667 54.5 32l53 -60c-23.333 -23.333 -49.166 -39.333 -77.499 -48s-56.833 -13 -85.5 -13c-29.333 0 -56 4.33301 -80 13
s-44.833 20.667 -62.5 36s-31.334 33.833 -41.001 55.5s-14.5 45.5 -14.5 71.5v147c0 28 5.33301 53.333 16 76s25 42 43 58s38.833 28.167 62.5 36.5s48.5 12.5 74.5 12.5zM186.998 644c0 12.667 4.33301 24.5 13 35.5s21.667 16.5 39 16.5c18 0 31.833 -5.5 41.5 -16.5
s14.5 -22.833 14.5 -35.5c0 -15.333 -4.83301 -28.333 -14.5 -39s-23.5 -16 -41.5 -16c-17.333 0 -30.333 5.16699 -39 15.5s-13 23.5 -13 39.5z" />
    <glyph glyph-name="Ccaron" unicode="&#x10c;" horiz-adv-x="527" 
d="M303 696c37.333 0 72.332 -5 104.999 -15s62 -25.667 88 -47l-46 -72c-18 15.333 -40.5 27.333 -67.5 36s-53.5 13 -79.5 13c-19.333 0 -38.333 -3 -57 -9s-35.334 -15.333 -50.001 -28s-26.5 -29 -35.5 -49s-13.5 -44.333 -13.5 -73v-215
c0 -28 4.66699 -52.167 14 -72.5s21.333 -36.833 36 -49.5s31.167 -22 49.5 -28s36.5 -9 54.5 -9c26 0 52.5 3.66699 79.5 11s51.167 19.666 72.5 36.999l44 -71c-21.333 -17.333 -49 -32 -83 -44s-71 -18 -111 -18c-33.333 0 -65.166 5.16699 -95.499 15.5
s-56.833 25.166 -79.5 44.499s-40.667 43 -54 71s-20 59.667 -20 95v252c0 34.667 6.83301 65.834 20.5 93.501s31.834 51.334 54.501 71.001s49 34.667 79 45s61.667 15.5 95 15.5zM433.999 908l30 -39l-143 -127h-53l-150 129l29 38l144 -87z" />
    <glyph glyph-name="ccaron" unicode="&#x10d;" horiz-adv-x="429" 
d="M243 501c28.667 0 57.832 -3.83301 87.499 -11.5s56.167 -24.167 79.5 -49.5l-51 -65c-22 20.667 -42.5 33.5 -61.5 38.5s-35.833 7.5 -50.5 7.5c-12.667 0 -25.834 -2 -39.501 -6s-26 -10.667 -37 -20s-20 -21.5 -27 -36.5s-10.5 -33.167 -10.5 -54.5v-112
c0 -21.333 3.33301 -39.5 10 -54.5s15.334 -27.167 26.001 -36.5s22.834 -16 36.501 -20s27.5 -6 41.5 -6c14.667 0 32.5 3 53.5 9s39.167 16.667 54.5 32l53 -60c-23.333 -23.333 -49.166 -39.333 -77.499 -48s-56.833 -13 -85.5 -13c-29.333 0 -56 4.33301 -80 13
s-44.833 20.667 -62.5 36s-31.334 33.833 -41.001 55.5s-14.5 45.5 -14.5 71.5v147c0 28 5.33301 53.333 16 76s25 42 43 58s38.833 28.167 62.5 36.5s48.5 12.5 74.5 12.5zM369.998 743l40 -39l-143 -151h-53l-150 153l39 38l134 -107z" />
    <glyph glyph-name="Dcaron" unicode="&#x10e;" horiz-adv-x="605" 
d="M552 224c0 -33.333 -6.16797 -63.832 -18.501 -91.499s-29.166 -51.334 -50.499 -71.001s-46.333 -34.834 -75 -45.501s-59.334 -16 -92.001 -16h-258v689h259c32.667 0 63.334 -5.16699 92.001 -15.5s53.667 -25.166 75 -44.499s38 -43 50 -71s18 -59.333 18 -94v-240z
M457.999 448.001c0 28.667 -4.66895 52.999 -14.002 72.999s-21.666 36.333 -36.999 49s-32.833 21.667 -52.5 27s-39.5 8 -59.5 8h-145v-523h145c18.667 0 37.834 2.66699 57.501 8s37.167 14.333 52.5 27s28 28.834 38 48.501s15 44.167 15 73.5v209zM417.997 908l30 -39
l-143 -127h-53l-150 129l29 38l144 -87z" />
    <glyph glyph-name="dcaron" unicode="&#x10f;" horiz-adv-x="615" 
d="M499 678c0 14.667 5.33203 28.0039 15.999 40.0039s25.334 18 44.001 18c12.667 0 23.334 -2.5 32.001 -7.5s15.667 -11.333 21 -19s9.16602 -16.334 11.499 -26.001s3.5 -18.834 3.5 -27.501c0 -18.667 -2.83301 -35.834 -8.5 -51.501s-13.334 -30 -23.001 -43
s-20.667 -24.5 -33 -34.5s-25.166 -18 -38.499 -24l-30 39c15.333 11.333 27.333 22.166 36 32.499s13.667 25.5 15 45.5c-14 1.33301 -25.167 7.5 -33.5 18.5s-12.5 24.167 -12.5 39.5zM379.999 0.00390625l-10 52c-39.333 -23.333 -70.833 -38.666 -94.5 -45.999
s-44.5 -11 -62.5 -11c-24 0 -46.167 3.5 -66.5 10.5s-37.833 17.667 -52.5 32s-26.167 32.666 -34.5 54.999s-12.5 48.833 -12.5 79.5v152c0 28 4.5 53 13.5 75s21.333 40.5 37 55.5s34.167 26.5 55.5 34.5s44 12 68 12c18 0 39.167 -2 63.5 -6s52.833 -11.333 85.5 -22v243
h85v-716h-75zM369.999 389.004c-26.667 9.33301 -51.6641 16.832 -74.9971 22.499s-45.333 8.5 -66 8.5c-26.667 0.666992 -49.334 -7.16602 -68.001 -23.499s-28 -43.833 -28 -82.5v-137c0 -38 8 -64.167 24 -78.5s37.333 -21.5 64 -21.5c9.33301 0 20.333 1.5 33 4.5
s25.667 7.16699 39 12.5s26.666 11.5 39.999 18.5s25.666 14.5 36.999 22.5v254z" />
    <glyph glyph-name="Dcroat" unicode="&#x110;" horiz-adv-x="605" 
d="M6 389l51.999 0.000976562v300h259c32.667 0 63.334 -5.16699 92.001 -15.5s53.667 -25.166 75 -44.499s38 -43 50 -71s18 -59.333 18 -94v-240c0 -33.333 -6.16699 -63.833 -18.5 -91.5s-29.166 -51.334 -50.499 -71.001s-46.333 -34.834 -75 -45.501
s-59.334 -16 -92.001 -16h-258v321h-52v68zM457.999 448.001c0 28.667 -4.66895 52.999 -14.002 72.999s-21.666 36.333 -36.999 49s-32.833 21.667 -52.5 27s-39.5 8 -59.5 8h-145v-216h126v-68h-126v-239h145c18.667 0 37.834 2.66699 57.501 8s37.167 14.333 52.5 27
s28 28.834 38 48.501s15 44.167 15 73.5v209z" />
    <glyph glyph-name="dcroat" unicode="&#x111;" horiz-adv-x="501" 
d="M208 640h162v76h85v-76h45v-68h-45v-572h-75l-10 52c-39.333 -23.333 -70.833 -38.666 -94.5 -45.999s-44.5 -11 -62.5 -11c-24 0 -46.167 3.5 -66.5 10.5s-37.833 17.667 -52.5 32s-26.167 32.666 -34.5 54.999s-12.5 48.833 -12.5 79.5v152c0 28 4.5 53 13.5 75
s21.333 40.5 37 55.5s34.167 26.5 55.5 34.5s44 12 68 12c18 0 39.167 -2 63.5 -6s52.833 -11.333 85.5 -22v99h-162v68zM370 389c-26.667 9.33301 -51.6641 16.832 -74.9971 22.499s-45.333 8.5 -66 8.5c-26.667 0.666992 -49.334 -7.16602 -68.001 -23.499
s-28 -43.833 -28 -82.5v-137c0 -38 8 -64.167 24 -78.5s37.333 -21.5 64 -21.5c9.33301 0 20.333 1.5 33 4.5s25.667 7.16699 39 12.5s26.666 11.5 39.999 18.5s25.666 14.5 36.999 22.5v254z" />
    <glyph glyph-name="Emacron" unicode="&#x112;" horiz-adv-x="557" 
d="M61 0v689h460v-84h-368v-219h315v-83h-315v-220h368v-83h-460zM165 780v75h268v-75h-268z" />
    <glyph glyph-name="emacron" unicode="&#x113;" horiz-adv-x="483" 
d="M133 216l-0.00195312 -33c0 -20 3.33301 -36.833 10 -50.5s15.834 -25 27.501 -34s25 -15.5 40 -19.5s30.5 -6 46.5 -6c16.667 0 36 3.33301 58 10s43.333 19.667 64 39l54 -59c-25.333 -26 -53.5 -43.833 -84.5 -53.5s-62.167 -14.5 -93.5 -14.5
c-28 0 -54.667 3.83301 -80 11.5s-47.5 19 -66.5 34s-34 33.833 -45 56.5s-16.5 49 -16.5 79v131c0 29.333 5 56 15 80s23.833 44.333 41.5 61s38.667 29.5 63 38.5s51.166 13.5 80.499 13.5s56.333 -4.33301 81 -13s45.834 -21 63.501 -37s31.334 -35.5 41.001 -58.5
s14.5 -48.833 14.5 -77.5v-98h-314zM359.998 305c0 20.667 -3.00098 38.3301 -9.00098 52.9971s-14.167 26.834 -24.5 36.501s-22.333 16.667 -36 21s-28.167 6.5 -43.5 6.5s-29.666 -2.33301 -42.999 -7s-25.333 -11.667 -36 -21s-19 -21.166 -25 -35.499
s-9 -31.166 -9 -50.499v-22h226v19zM118.997 599.996v75h268v-75h-268z" />
    <glyph glyph-name="Ebreve" unicode="&#x114;" horiz-adv-x="557" 
d="M61 0v689h460v-84h-368v-219h315v-83h-315v-220h368v-83h-460zM229 860c0.666992 -6.66699 2.66504 -13.667 5.99805 -21s8 -14.166 14 -20.499s13.333 -11.5 22 -15.5s18.334 -6 29.001 -6c12 0 22.5 2 31.5 6s16.5 9.16699 22.5 15.5s10.5 13.166 13.5 20.499
s4.5 14.333 4.5 21h71c-1.33301 -13.333 -4.33301 -27.5 -9 -42.5s-12.5 -28.833 -23.5 -41.5s-25.333 -23.334 -43 -32.001s-40.167 -13 -67.5 -13s-50.166 4.33301 -68.499 13s-33 19.334 -44 32.001s-19 26.5 -24 41.5s-7.5 29.167 -7.5 42.5h73z" />
    <glyph glyph-name="ebreve" unicode="&#x115;" horiz-adv-x="483" 
d="M133 216l-0.00195312 -33c0 -20 3.33301 -36.833 10 -50.5s15.834 -25 27.501 -34s25 -15.5 40 -19.5s30.5 -6 46.5 -6c16.667 0 36 3.33301 58 10s43.333 19.667 64 39l54 -59c-25.333 -26 -53.5 -43.833 -84.5 -53.5s-62.167 -14.5 -93.5 -14.5
c-28 0 -54.667 3.83301 -80 11.5s-47.5 19 -66.5 34s-34 33.833 -45 56.5s-16.5 49 -16.5 79v131c0 29.333 5 56 15 80s23.833 44.333 41.5 61s38.667 29.5 63 38.5s51.166 13.5 80.499 13.5s56.333 -4.33301 81 -13s45.834 -21 63.501 -37s31.334 -35.5 41.001 -58.5
s14.5 -48.833 14.5 -77.5v-98h-314zM359.998 305c0 20.667 -3.00098 38.3301 -9.00098 52.9971s-14.167 26.834 -24.5 36.501s-22.333 16.667 -36 21s-28.167 6.5 -43.5 6.5s-29.666 -2.33301 -42.999 -7s-25.333 -11.667 -36 -21s-19 -21.166 -25 -35.499
s-9 -31.166 -9 -50.499v-22h226v19zM179.997 696.996c0.666992 -6.66699 2.66504 -13.667 5.99805 -21s8 -14.166 14 -20.499s13.333 -11.5 22 -15.5s18.334 -6 29.001 -6c12 0 22.5 2 31.5 6s16.5 9.16699 22.5 15.5s10.5 13.166 13.5 20.499s4.5 14.333 4.5 21h71
c-1.33301 -13.333 -4.33301 -27.5 -9 -42.5s-12.5 -28.833 -23.5 -41.5s-25.333 -23.334 -43 -32.001s-40.167 -13 -67.5 -13s-50.166 4.33301 -68.499 13s-33 19.334 -44 32.001s-19 26.5 -24 41.5s-7.5 29.167 -7.5 42.5h73z" />
    <glyph glyph-name="Edotaccent" unicode="&#x116;" horiz-adv-x="557" 
d="M61 0v689h460v-84h-368v-219h315v-83h-315v-220h368v-83h-460zM241 814c0 12.667 4.33301 24.5 13 35.5s21.667 16.5 39 16.5c18 0 31.833 -5.5 41.5 -16.5s14.5 -22.833 14.5 -35.5c0 -15.333 -4.83301 -28.333 -14.5 -39s-23.5 -16 -41.5 -16
c-17.333 0 -30.333 5.16699 -39 15.5s-13 23.5 -13 39.5z" />
    <glyph glyph-name="edotaccent" unicode="&#x117;" horiz-adv-x="483" 
d="M133 216l-0.00195312 -33c0 -20 3.33301 -36.833 10 -50.5s15.834 -25 27.501 -34s25 -15.5 40 -19.5s30.5 -6 46.5 -6c16.667 0 36 3.33301 58 10s43.333 19.667 64 39l54 -59c-25.333 -26 -53.5 -43.833 -84.5 -53.5s-62.167 -14.5 -93.5 -14.5
c-28 0 -54.667 3.83301 -80 11.5s-47.5 19 -66.5 34s-34 33.833 -45 56.5s-16.5 49 -16.5 79v131c0 29.333 5 56 15 80s23.833 44.333 41.5 61s38.667 29.5 63 38.5s51.166 13.5 80.499 13.5s56.333 -4.33301 81 -13s45.834 -21 63.501 -37s31.334 -35.5 41.001 -58.5
s14.5 -48.833 14.5 -77.5v-98h-314zM359.998 305c0 20.667 -3.00098 38.3301 -9.00098 52.9971s-14.167 26.834 -24.5 36.501s-22.333 16.667 -36 21s-28.167 6.5 -43.5 6.5s-29.666 -2.33301 -42.999 -7s-25.333 -11.667 -36 -21s-19 -21.166 -25 -35.499
s-9 -31.166 -9 -50.499v-22h226v19zM193.997 643.996c0 12.667 4.33301 24.5 13 35.5s21.667 16.5 39 16.5c18 0 31.833 -5.5 41.5 -16.5s14.5 -22.833 14.5 -35.5c0 -15.333 -4.83301 -28.333 -14.5 -39s-23.5 -16 -41.5 -16c-17.333 0 -30.333 5.16699 -39 15.5
s-13 23.5 -13 39.5z" />
    <glyph glyph-name="Eogonek" unicode="&#x118;" horiz-adv-x="557" 
d="M424 -92c0 13.333 2.66895 27.1689 8.00195 41.502s14.666 31.166 27.999 50.499h-399v689h460v-84h-368v-219h315v-83h-315v-220h368v-83c-21.333 -30 -32 -55.667 -32 -77c0 -14 4.16699 -24.833 12.5 -32.5s20.166 -11.5 35.499 -11.5c8 0 16.333 1.66699 25 5
s19 7.66602 31 12.999l21 -52c-13.333 -7.33301 -28 -13.333 -44 -18s-32.333 -7 -49 -7c-28.667 0 -52 8.66699 -70 26s-27 38 -27 62z" />
    <glyph glyph-name="eogonek" unicode="&#x119;" horiz-adv-x="483" 
d="M309 -52c0 16.667 4.33203 34.668 12.999 54.001c-11.333 -2.66699 -22.5 -4.5 -33.5 -5.5s-22.167 -1.5 -33.5 -1.5c-28 0 -54.667 3.83301 -80 11.5s-47.5 19 -66.5 34s-34 33.833 -45 56.5s-16.5 49 -16.5 79v131c0 29.333 5 56 15 80s23.833 44.333 41.5 61
s38.667 29.5 63 38.5s51.166 13.5 80.499 13.5s56.333 -4.33301 81 -13s45.834 -21 63.501 -37s31.334 -35.5 41.001 -58.5s14.5 -48.833 14.5 -77.5v-98h-314v-33c0 -20 3.33301 -36.833 10 -50.5s15.834 -25 27.501 -34s25 -15.5 40 -19.5s30.5 -6 46.5 -6
c16.667 0 36 3.33301 58 10s43.333 19.667 64 39l54 -59c-10 -10 -19.333 -18 -28 -24c-10.667 -15.333 -18.5 -29 -23.5 -41s-7.5 -23.667 -7.5 -35c0 -14 4.16699 -24.833 12.5 -32.5s20.166 -11.5 35.499 -11.5c8 0 16.333 1.66699 25 5s19 7.66602 31 12.999l21 -52
c-13.333 -7.33301 -28 -13.333 -44 -18s-32.333 -7 -49 -7c-28.667 0 -52 8.66699 -70 26s-27 38 -27 62zM359.999 305.001c0 20.667 -3.00098 38.3301 -9.00098 52.9971s-14.167 26.834 -24.5 36.501s-22.333 16.667 -36 21s-28.167 6.5 -43.5 6.5
s-29.666 -2.33301 -42.999 -7s-25.333 -11.667 -36 -21s-19 -21.166 -25 -35.499s-9 -31.166 -9 -50.499v-22h226v19z" />
    <glyph glyph-name="Ecaron" unicode="&#x11a;" horiz-adv-x="557" 
d="M61 0v689h460v-84h-368v-219h315v-83h-315v-220h368v-83h-460zM438 908l30 -39l-143 -127h-53l-150 129l29 38l144 -87z" />
    <glyph glyph-name="ecaron" unicode="&#x11b;" horiz-adv-x="483" 
d="M133 216l-0.00195312 -33c0 -20 3.33301 -36.833 10 -50.5s15.834 -25 27.501 -34s25 -15.5 40 -19.5s30.5 -6 46.5 -6c16.667 0 36 3.33301 58 10s43.333 19.667 64 39l54 -59c-25.333 -26 -53.5 -43.833 -84.5 -53.5s-62.167 -14.5 -93.5 -14.5
c-28 0 -54.667 3.83301 -80 11.5s-47.5 19 -66.5 34s-34 33.833 -45 56.5s-16.5 49 -16.5 79v131c0 29.333 5 56 15 80s23.833 44.333 41.5 61s38.667 29.5 63 38.5s51.166 13.5 80.499 13.5s56.333 -4.33301 81 -13s45.834 -21 63.501 -37s31.334 -35.5 41.001 -58.5
s14.5 -48.833 14.5 -77.5v-98h-314zM380.998 743l40 -39l-143 -151h-53l-150 153l39 38l134 -107zM359.998 305c0 20.667 -3.00098 38.3301 -9.00098 52.9971s-14.167 26.834 -24.5 36.501s-22.333 16.667 -36 21s-28.167 6.5 -43.5 6.5s-29.666 -2.33301 -42.999 -7
s-25.333 -11.667 -36 -21s-19 -21.166 -25 -35.499s-9 -31.166 -9 -50.499v-22h226v19z" />
    <glyph glyph-name="Gcircumflex" unicode="&#x11c;" horiz-adv-x="580" 
d="M531 83c-14 -16 -30 -29.834 -48 -41.501s-36.833 -21 -56.5 -28s-39.667 -12.167 -60 -15.5s-39.833 -5 -58.5 -5c-33.333 0 -65.333 5.16699 -96 15.5s-57.667 25.166 -81 44.499s-42 43 -56 71s-21 59.667 -21 95v252c0 34.667 7 65.834 21 93.501
s33 51.334 57 71.001s51.833 34.667 83.5 45s65.167 15.5 100.5 15.5c38 0 73.167 -5 105.5 -15s61.5 -25.667 87.5 -47l-46 -72c-18 15.333 -40.5 27.333 -67.5 36s-53.5 13 -79.5 13c-21.333 0 -42 -3 -62 -9s-38 -15.333 -54 -28s-28.833 -29 -38.5 -49
s-14.5 -44.333 -14.5 -73v-215c0 -28 4.5 -52.167 13.5 -72.5s21 -36.833 36 -49.5s32.167 -22 51.5 -28s39.333 -9 60 -9c15.333 0 35 2.16699 59 6.5s48.333 15.833 73 34.5v161h-110v83h201v-280zM300 825.999l-144 -87l-29 38l150 128h53l143 -126l-30 -39z" />
    <glyph glyph-name="gcircumflex" unicode="&#x11d;" horiz-adv-x="499" 
d="M209 501c18 0 39.168 -3.83398 63.501 -11.501s55.166 -23.167 92.499 -46.5l10 53h76v-526c0 -28.667 -5.83301 -54 -17.5 -76s-27.334 -40.5 -47.001 -55.5s-42.167 -26.333 -67.5 -34s-51.666 -11.5 -78.999 -11.5c-29.333 0 -59.833 5 -91.5 15
s-60.834 26.667 -87.501 50l53 63c8 -7.33301 17.167 -14 27.5 -20s21.333 -11 33 -15s23 -7.16699 34 -9.5s21.167 -3.5 30.5 -3.5c16 0 31.5 2 46.5 6s28.5 10.667 40.5 20s21.5 21.333 28.5 36s10.5 32.667 10.5 54v58c-33.333 -20.667 -63.166 -34.5 -89.499 -41.5
s-48.5 -10.5 -66.5 -10.5c-48.667 0 -88.5 15.167 -119.5 45.5s-46.5 73.833 -46.5 130.5v153c0 56.667 15.5 100.334 46.5 131.001s70.833 46 119.5 46zM365.001 355.999c-24.667 18 -50.668 32.665 -78.001 43.998s-50.666 17 -69.999 17
c-27.333 0 -48.833 -7.66699 -64.5 -23s-23.5 -42.666 -23.5 -81.999v-130c0 -38 8 -65.167 24 -81.5s37.333 -24.166 64 -23.499c20.667 0 44.5 4.83301 71.5 14.5s52.5 22.167 76.5 37.5v227zM252 658.997l-134 -107l-39 38l150 153h53l143 -151l-40 -39z" />
    <glyph glyph-name="Gbreve" unicode="&#x11e;" horiz-adv-x="580" 
d="M531 83c-14 -16 -30 -29.834 -48 -41.501s-36.833 -21 -56.5 -28s-39.667 -12.167 -60 -15.5s-39.833 -5 -58.5 -5c-33.333 0 -65.333 5.16699 -96 15.5s-57.667 25.166 -81 44.499s-42 43 -56 71s-21 59.667 -21 95v252c0 34.667 7 65.834 21 93.501
s33 51.334 57 71.001s51.833 34.667 83.5 45s65.167 15.5 100.5 15.5c38 0 73.167 -5 105.5 -15s61.5 -25.667 87.5 -47l-46 -72c-18 15.333 -40.5 27.333 -67.5 36s-53.5 13 -79.5 13c-21.333 0 -42 -3 -62 -9s-38 -15.333 -54 -28s-28.833 -29 -38.5 -49
s-14.5 -44.333 -14.5 -73v-215c0 -28 4.5 -52.167 13.5 -72.5s21 -36.833 36 -49.5s32.167 -22 51.5 -28s39.333 -9 60 -9c15.333 0 35 2.16699 59 6.5s48.333 15.833 73 34.5v161h-110v83h201v-280zM229 859.999c0.666992 -6.66699 2.66504 -13.667 5.99805 -21
s8 -14.166 14 -20.499s13.333 -11.5 22 -15.5s18.334 -6 29.001 -6c12 0 22.5 2 31.5 6s16.5 9.16699 22.5 15.5s10.5 13.166 13.5 20.499s4.5 14.333 4.5 21h71c-1.33301 -13.333 -4.33301 -27.5 -9 -42.5s-12.5 -28.833 -23.5 -41.5s-25.333 -23.334 -43 -32.001
s-40.167 -13 -67.5 -13s-50.166 4.33301 -68.499 13s-33 19.334 -44 32.001s-19 26.5 -24 41.5s-7.5 29.167 -7.5 42.5h73z" />
    <glyph glyph-name="gbreve" unicode="&#x11f;" horiz-adv-x="499" 
d="M209 501c18 0 39.168 -3.83398 63.501 -11.501s55.166 -23.167 92.499 -46.5l10 53h76v-526c0 -28.667 -5.83301 -54 -17.5 -76s-27.334 -40.5 -47.001 -55.5s-42.167 -26.333 -67.5 -34s-51.666 -11.5 -78.999 -11.5c-29.333 0 -59.833 5 -91.5 15
s-60.834 26.667 -87.501 50l53 63c8 -7.33301 17.167 -14 27.5 -20s21.333 -11 33 -15s23 -7.16699 34 -9.5s21.167 -3.5 30.5 -3.5c16 0 31.5 2 46.5 6s28.5 10.667 40.5 20s21.5 21.333 28.5 36s10.5 32.667 10.5 54v58c-33.333 -20.667 -63.166 -34.5 -89.499 -41.5
s-48.5 -10.5 -66.5 -10.5c-48.667 0 -88.5 15.167 -119.5 45.5s-46.5 73.833 -46.5 130.5v153c0 56.667 15.5 100.334 46.5 131.001s70.833 46 119.5 46zM365.001 355.999c-24.667 18 -50.668 32.665 -78.001 43.998s-50.666 17 -69.999 17
c-27.333 0 -48.833 -7.66699 -64.5 -23s-23.5 -42.666 -23.5 -81.999v-130c0 -38 8 -65.167 24 -81.5s37.333 -24.166 64 -23.499c20.667 0 44.5 4.83301 71.5 14.5s52.5 22.167 76.5 37.5v227zM200 696.997c0.666992 -6.66699 2.66504 -13.667 5.99805 -21
s8 -14.166 14 -20.499s13.333 -11.5 22 -15.5s18.334 -6 29.001 -6c12 0 22.5 2 31.5 6s16.5 9.16699 22.5 15.5s10.5 13.166 13.5 20.499s4.5 14.333 4.5 21h71c-1.33301 -13.333 -4.33301 -27.5 -9 -42.5s-12.5 -28.833 -23.5 -41.5s-25.333 -23.334 -43 -32.001
s-40.167 -13 -67.5 -13s-50.166 4.33301 -68.499 13s-33 19.334 -44 32.001s-19 26.5 -24 41.5s-7.5 29.167 -7.5 42.5h73z" />
    <glyph glyph-name="Gdotaccent" unicode="&#x120;" horiz-adv-x="580" 
d="M531 83c-14 -16 -30 -29.834 -48 -41.501s-36.833 -21 -56.5 -28s-39.667 -12.167 -60 -15.5s-39.833 -5 -58.5 -5c-33.333 0 -65.333 5.16699 -96 15.5s-57.667 25.166 -81 44.499s-42 43 -56 71s-21 59.667 -21 95v252c0 34.667 7 65.834 21 93.501
s33 51.334 57 71.001s51.833 34.667 83.5 45s65.167 15.5 100.5 15.5c38 0 73.167 -5 105.5 -15s61.5 -25.667 87.5 -47l-46 -72c-18 15.333 -40.5 27.333 -67.5 36s-53.5 13 -79.5 13c-21.333 0 -42 -3 -62 -9s-38 -15.333 -54 -28s-28.833 -29 -38.5 -49
s-14.5 -44.333 -14.5 -73v-215c0 -28 4.5 -52.167 13.5 -72.5s21 -36.833 36 -49.5s32.167 -22 51.5 -28s39.333 -9 60 -9c15.333 0 35 2.16699 59 6.5s48.333 15.833 73 34.5v161h-110v83h201v-280zM249 813.999c0 12.667 4.33301 24.5 13 35.5s21.667 16.5 39 16.5
c18 0 31.833 -5.5 41.5 -16.5s14.5 -22.833 14.5 -35.5c0 -15.333 -4.83301 -28.333 -14.5 -39s-23.5 -16 -41.5 -16c-17.333 0 -30.333 5.16699 -39 15.5s-13 23.5 -13 39.5z" />
    <glyph glyph-name="gdotaccent" unicode="&#x121;" horiz-adv-x="499" 
d="M209 501c18 0 39.168 -3.83398 63.501 -11.501s55.166 -23.167 92.499 -46.5l10 53h76v-526c0 -28.667 -5.83301 -54 -17.5 -76s-27.334 -40.5 -47.001 -55.5s-42.167 -26.333 -67.5 -34s-51.666 -11.5 -78.999 -11.5c-29.333 0 -59.833 5 -91.5 15
s-60.834 26.667 -87.501 50l53 63c8 -7.33301 17.167 -14 27.5 -20s21.333 -11 33 -15s23 -7.16699 34 -9.5s21.167 -3.5 30.5 -3.5c16 0 31.5 2 46.5 6s28.5 10.667 40.5 20s21.5 21.333 28.5 36s10.5 32.667 10.5 54v58c-33.333 -20.667 -63.166 -34.5 -89.499 -41.5
s-48.5 -10.5 -66.5 -10.5c-48.667 0 -88.5 15.167 -119.5 45.5s-46.5 73.833 -46.5 130.5v153c0 56.667 15.5 100.334 46.5 131.001s70.833 46 119.5 46zM365.001 355.999c-24.667 18 -50.668 32.665 -78.001 43.998s-50.666 17 -69.999 17
c-27.333 0 -48.833 -7.66699 -64.5 -23s-23.5 -42.666 -23.5 -81.999v-130c0 -38 8 -65.167 24 -81.5s37.333 -24.166 64 -23.499c20.667 0 44.5 4.83301 71.5 14.5s52.5 22.167 76.5 37.5v227zM204 643.997c0 12.667 4.33301 24.5 13 35.5s21.667 16.5 39 16.5
c18 0 31.833 -5.5 41.5 -16.5s14.5 -22.833 14.5 -35.5c0 -15.333 -4.83301 -28.333 -14.5 -39s-23.5 -16 -41.5 -16c-17.333 0 -30.333 5.16699 -39 15.5s-13 23.5 -13 39.5z" />
    <glyph glyph-name="Gcommaaccent" unicode="&#x122;" horiz-adv-x="580" 
d="M531 83c-14 -16 -30 -29.834 -48 -41.501s-36.833 -21 -56.5 -28s-39.667 -12.167 -60 -15.5s-39.833 -5 -58.5 -5c-33.333 0 -65.333 5.16699 -96 15.5s-57.667 25.166 -81 44.499s-42 43 -56 71s-21 59.667 -21 95v252c0 34.667 7 65.834 21 93.501
s33 51.334 57 71.001s51.833 34.667 83.5 45s65.167 15.5 100.5 15.5c38 0 73.167 -5 105.5 -15s61.5 -25.667 87.5 -47l-46 -72c-18 15.333 -40.5 27.333 -67.5 36s-53.5 13 -79.5 13c-21.333 0 -42 -3 -62 -9s-38 -15.333 -54 -28s-28.833 -29 -38.5 -49
s-14.5 -44.333 -14.5 -73v-215c0 -28 4.5 -52.167 13.5 -72.5s21 -36.833 36 -49.5s32.167 -22 51.5 -28s39.333 -9 60 -9c15.333 0 35 2.16699 59 6.5s48.333 15.833 73 34.5v161h-110v83h201v-280zM238 -104.001c0 14.667 5.33203 28.0039 15.999 40.0039
s25.334 18 44.001 18c12.667 0 23.334 -2.5 32.001 -7.5s15.667 -11.333 21 -19s9.16602 -16.334 11.499 -26.001s3.5 -18.834 3.5 -27.501c0 -18.667 -2.83301 -35.834 -8.5 -51.501s-13.334 -30 -23.001 -43s-20.667 -24.5 -33 -34.5s-25.166 -18 -38.499 -24l-30 39
c15.333 11.333 27.333 22.166 36 32.499s13.667 25.5 15 45.5c-14 1.33301 -25.167 7.5 -33.5 18.5s-12.5 24.167 -12.5 39.5z" />
    <glyph glyph-name="gcommaaccent" unicode="&#x123;" horiz-adv-x="499" 
d="M333 599c0 -14.667 -5.33203 -28.001 -15.999 -40.001s-25.334 -18 -44.001 -18c-12.667 0 -23.334 2.5 -32.001 7.5s-15.667 11.333 -21 19s-9.16602 16.167 -11.499 25.5s-3.5 18.666 -3.5 27.999c0 18.667 2.83301 35.834 8.5 51.501s13.167 30 22.5 43
s20.333 24.5 33 34.5s25.667 18 39 24l30 -39c-15.333 -11.333 -27.333 -22.166 -36 -32.499s-13.667 -25.5 -15 -45.5c14 -1.33301 25.167 -7.5 33.5 -18.5s12.5 -24.167 12.5 -39.5zM209.001 500.999c18 0 39.168 -3.83398 63.501 -11.501s55.166 -23.167 92.499 -46.5
l10 53h76v-526c0 -28.667 -5.83301 -54 -17.5 -76s-27.334 -40.5 -47.001 -55.5s-42.167 -26.333 -67.5 -34s-51.666 -11.5 -78.999 -11.5c-29.333 0 -59.833 5 -91.5 15s-60.834 26.667 -87.501 50l53 63c8 -7.33301 17.167 -14 27.5 -20s21.333 -11 33 -15
s23 -7.16699 34 -9.5s21.167 -3.5 30.5 -3.5c16 0 31.5 2 46.5 6s28.5 10.667 40.5 20s21.5 21.333 28.5 36s10.5 32.667 10.5 54v58c-33.333 -20.667 -63.166 -34.5 -89.499 -41.5s-48.5 -10.5 -66.5 -10.5c-48.667 0 -88.5 15.167 -119.5 45.5s-46.5 73.833 -46.5 130.5
v153c0 56.667 15.5 100.334 46.5 131.001s70.833 46 119.5 46zM365.002 355.998c-24.667 18 -50.668 32.665 -78.001 43.998s-50.666 17 -69.999 17c-27.333 0 -48.833 -7.66699 -64.5 -23s-23.5 -42.666 -23.5 -81.999v-130c0 -38 8 -65.167 24 -81.5
s37.333 -24.166 64 -23.499c20.667 0 44.5 4.83301 71.5 14.5s52.5 22.167 76.5 37.5v227z" />
    <glyph glyph-name="Hcircumflex" unicode="&#x124;" horiz-adv-x="617" 
d="M469 0v307h-323v-307h-92v689h92v-298h323v298h94v-689h-94zM301 826l-144 -87l-29 38l150 128h53l143 -126l-30 -39z" />
    <glyph glyph-name="hcircumflex" unicode="&#x125;" horiz-adv-x="497" 
d="M296 501c54 0 94.168 -15.332 120.501 -45.999s39.5 -74.334 39.5 -131.001v-324h-86v313c0 38.667 -8.33301 65.667 -25 81s-37.667 23 -63 23c-20.667 0 -44.334 -5 -71.001 -15s-52.667 -23.333 -78 -40v-362h-86v716h86v-276c40 26 72.667 42.667 98 50s47 11 65 11z
M91.001 826.001l-144 -87l-29 38l150 128h53l143 -126l-30 -39z" />
    <glyph glyph-name="Hbar" unicode="&#x126;" horiz-adv-x="617" 
d="M14 601h40v88h92v-88h323v88h94v-88h43v-68h-43v-533h-94v307h-323v-307h-92v533h-40v68zM469 391v142h-323v-142h323z" />
    <glyph glyph-name="hbar" unicode="&#x127;" horiz-adv-x="497" 
d="M296 501c54 0 94.168 -15.332 120.501 -45.999s39.5 -74.334 39.5 -131.001v-324h-86v313c0 38.667 -8.33301 65.667 -25 81s-37.667 23 -63 23c-20.667 0 -44.334 -5 -71.001 -15s-52.667 -23.333 -78 -40v-362h-86v573h-47v67h47v76h86v-76h219v-67h-219v-133
c40 26 72.667 42.667 98 50s47 11 65 11z" />
    <glyph glyph-name="Itilde" unicode="&#x128;" horiz-adv-x="252" 
d="M80 0v689h92v-689h-92zM59 869c12 0 24.168 -2.49805 36.501 -7.49805s24.166 -10.333 35.499 -16l33 -16c10.667 -5 20.334 -7.5 29.001 -7.5c10 0 20 3.5 30 10.5s20.333 18.5 31 34.5l52 -29c-14.667 -30.667 -30.834 -53.167 -48.501 -67.5
s-37.167 -21.5 -58.5 -21.5c-12 0 -23.833 2.16699 -35.5 6.5s-23.167 9.16602 -34.5 14.499s-22.166 10.166 -32.499 14.499s-20.5 6.5 -30.5 6.5c-11.333 0 -21.5 -2.83301 -30.5 -8.5s-19.833 -16.167 -32.5 -31.5l-52 29c13.333 28 29.666 49.833 48.999 65.5
s39 23.5 59 23.5z" />
    <glyph glyph-name="itilde" unicode="&#x129;" horiz-adv-x="335" 
d="M127 0v496h85v-496h-85zM98 699c12 0 24.168 -2.49805 36.501 -7.49805s24.166 -10.333 35.499 -16l33 -16c10.667 -5 20.334 -7.5 29.001 -7.5c10 0 20 3.5 30 10.5s20.333 18.5 31 34.5l52 -29c-14.667 -30.667 -30.834 -53.167 -48.501 -67.5
s-37.167 -21.5 -58.5 -21.5c-12 0 -23.833 2.16699 -35.5 6.5s-23.167 9.16602 -34.5 14.499s-22.166 10.166 -32.499 14.499s-20.5 6.5 -30.5 6.5c-11.333 0 -21.5 -2.83301 -30.5 -8.5s-19.833 -16.167 -32.5 -31.5l-52 29c13.333 28 29.666 49.833 48.999 65.5
s39 23.5 59 23.5z" />
    <glyph glyph-name="Imacron" unicode="&#x12a;" horiz-adv-x="252" 
d="M80 0v689h92v-689h-92zM-7 780v75h268v-75h-268z" />
    <glyph glyph-name="imacron" unicode="&#x12b;" horiz-adv-x="258" 
d="M85 0v496h85v-496h-85zM-5 600v75h268v-75h-268z" />
    <glyph glyph-name="Ibreve" unicode="&#x12c;" horiz-adv-x="271" 
d="M70 859c0.666992 -6.66699 2.66504 -13.667 5.99805 -21s8 -14.166 14 -20.499s13.333 -11.5 22 -15.5s18.334 -6 29.001 -6c12 0 22.5 2 31.5 6s16.5 9.16699 22.5 15.5s10.5 13.166 13.5 20.499s4.5 14.333 4.5 21h71c-1.33301 -13.333 -4.33301 -27.5 -9 -42.5
s-12.5 -28.833 -23.5 -41.5s-25.333 -23.334 -43 -32.001s-40.167 -13 -67.5 -13s-50.166 4.33301 -68.499 13s-33 19.334 -44 32.001s-19 26.5 -24 41.5s-7.5 29.167 -7.5 42.5h73zM95.998 0v689h92v-689h-92z" />
    <glyph glyph-name="ibreve" unicode="&#x12d;" horiz-adv-x="277" 
d="M95 0v496h85v-496h-85zM68 703c0.666992 -6.66699 2.66504 -13.667 5.99805 -21s8 -14.166 14 -20.499s13.333 -11.5 22 -15.5s18.334 -6 29.001 -6c12 0 22.5 2 31.5 6s16.5 9.16699 22.5 15.5s10.5 13.166 13.5 20.499s4.5 14.333 4.5 21h71
c-1.33301 -13.333 -4.33301 -27.5 -9 -42.5s-12.5 -28.833 -23.5 -41.5s-25.333 -23.334 -43 -32.001s-40.167 -13 -67.5 -13s-50.166 4.33301 -68.499 13s-33 19.334 -44 32.001s-19 26.5 -24 41.5s-7.5 29.167 -7.5 42.5h73z" />
    <glyph glyph-name="Iogonek" unicode="&#x12e;" horiz-adv-x="252" 
d="M60 -92c0 13.333 2.66895 27.1689 8.00195 41.502s14.666 31.166 27.999 50.499h-16v689h92v-689h-15c-21.333 -30 -32 -55.667 -32 -77c0 -14 4.16699 -24.833 12.5 -32.5s20.166 -11.5 35.499 -11.5c8 0 16.333 1.66699 25 5s19 7.66602 31 12.999l21 -52
c-13.333 -7.33301 -28 -13.333 -44 -18s-32.333 -7 -49 -7c-28.667 0 -52 8.66699 -70 26s-27 38 -27 62z" />
    <glyph glyph-name="iogonek" unicode="&#x12f;" horiz-adv-x="227" 
d="M47 -91c0 13.333 2.66895 27.167 8.00195 41.5s14.666 30.833 27.999 49.5h-12v496h85v-496h-13c-20.667 -29.333 -31 -54.666 -31 -75.999c0 -14 4.16699 -24.833 12.5 -32.5s20.166 -11.5 35.499 -11.5c8 0 16.333 1.66699 25 5s19 7.66602 31 12.999l21 -52
c-13.333 -7.33301 -28 -13.333 -44 -18s-32.333 -7 -49 -7c-28.667 0 -52 8.66699 -70 26s-27 38 -27 62zM167.002 646.001c0 -14.667 -5.33301 -27.334 -16 -38.001s-23.334 -16 -38.001 -16c-14 0 -26.333 5.33301 -37 16s-16 23.334 -16 38.001s5.33301 27.167 16 37.5
s23 15.5 37 15.5c14.667 0 27.334 -5.16699 38.001 -15.5s16 -22.833 16 -37.5z" />
    <glyph glyph-name="Idotaccent" unicode="&#x130;" horiz-adv-x="252" 
d="M80 0v689h92v-689h-92zM75 814c0 12.667 4.33301 24.5 13 35.5s21.667 16.5 39 16.5c18 0 31.833 -5.5 41.5 -16.5s14.5 -22.833 14.5 -35.5c0 -15.333 -4.83301 -28.333 -14.5 -39s-23.5 -16 -41.5 -16c-17.333 0 -30.333 5.16699 -39 15.5s-13 23.5 -13 39.5z" />
    <glyph glyph-name="dotlessi" unicode="&#x131;" horiz-adv-x="239" 
d="M77 0v496h85v-496h-85z" />
    <glyph glyph-name="IJ" unicode="&#x132;" horiz-adv-x="723" 
d="M81 0v689h92v-689h-92zM649 222c0 -35.333 -6.16699 -67.166 -18.5 -95.499s-29.333 -52.333 -51 -72s-46.834 -34.834 -75.501 -45.501s-59 -16 -91 -16c-31.333 0 -64.5 4.33301 -99.5 13s-64.833 21.667 -89.5 39l43 74c23.333 -14.667 45.833 -25.167 67.5 -31.5
s42.834 -9.5 63.501 -9.5c23.333 0 44.833 3 64.5 9s36.5 15.5 50.5 28.5s24.833 29.833 32.5 50.5s11.5 46 11.5 76v447h92v-467z" />
    <glyph glyph-name="ij" unicode="&#x133;" horiz-adv-x="408" 
d="M167 646c0 -14.667 -5.33301 -27.334 -16 -38.001s-23.334 -16 -38.001 -16c-14 0 -26.333 5.33301 -37 16s-16 23.334 -16 38.001s5.33301 27.167 16 37.5s23 15.5 37 15.5c14.667 0 27.334 -5.16699 38.001 -15.5s16 -22.833 16 -37.5zM71 0v496h85v-496h-85zM348 646
c0 -14 -4.83301 -26 -14.5 -36s-21.5 -15 -35.5 -15s-25.833 5 -35.5 15s-14.5 22 -14.5 36s4.83301 25.833 14.5 35.5s21.5 14.5 35.5 14.5s25.833 -4.83301 35.5 -14.5s14.5 -21.5 14.5 -35.5zM256 495h85v-547c0 -55.333 -12.667 -94.5 -38 -117.5s-61 -34.5 -107 -34.5
h-49v78h39c26.667 0 45 5.83301 55 17.5s15 34.5 15 68.5v535z" />
    <glyph glyph-name="Jcircumflex" unicode="&#x134;" horiz-adv-x="521" 
d="M440 223c0 -35.333 -6.16699 -67.166 -18.5 -95.499s-29.333 -52.333 -51 -72s-46.834 -34.834 -75.501 -45.501s-59 -16 -91 -16c-31.333 0 -64.5 4.33301 -99.5 13s-64.833 21.667 -89.5 39l43 74c23.333 -14.667 45.833 -25.167 67.5 -31.5s42.834 -9.5 63.501 -9.5
c23.333 0 44.833 3 64.5 9s36.5 15.5 50.5 28.5s24.833 29.833 32.5 50.5s11.5 46 11.5 76v447h92v-467zM396 828l-144 -87l-29 38l150 128h53l143 -126l-30 -39z" />
    <glyph glyph-name="jcircumflex" unicode="&#x135;" horiz-adv-x="336" 
d="M124 495h85v-548c0 -55.333 -12.667 -94.5 -38 -117.5s-61 -34.5 -107 -34.5h-49v78h39c26.667 0 45 5.83301 55 17.5s15 34.5 15 68.5v536zM168 659l-134 -107l-39 38l150 153h53l143 -151l-40 -39z" />
    <glyph glyph-name="Kcommaaccent" unicode="&#x136;" horiz-adv-x="572" 
d="M156 331l292 358h111l-222 -272l245 -417h-108l-199 341l-126 -150v-191h-92v689h92v-358h7zM236 -84c0 14.667 5.33203 28.0039 15.999 40.0039s25.334 18 44.001 18c12.667 0 23.334 -2.5 32.001 -7.5s15.667 -11.333 21 -19s9.16602 -16.334 11.499 -26.001
s3.5 -18.834 3.5 -27.501c0 -18.667 -2.83301 -35.834 -8.5 -51.501s-13.334 -30 -23.001 -43s-20.667 -24.5 -33 -34.5s-25.166 -18 -38.499 -24l-30 39c15.333 11.333 27.333 22.166 36 32.499s13.667 25.5 15 45.5c-14 1.33301 -25.167 7.5 -33.5 18.5
s-12.5 24.167 -12.5 39.5z" />
    <glyph glyph-name="kcommaaccent" unicode="&#x137;" horiz-adv-x="480" 
d="M63 0l-0.00195312 716.001h85v-390h73c20.667 0 39.334 3.83301 56.001 11.5s31.667 25.167 45 52.5l55 108h96l-60 -126c-9.33301 -19.333 -19.333 -35.666 -30 -48.999s-26 -23.666 -46 -30.999c14 -4.66699 25.667 -10.834 35 -18.501s17 -16.167 23 -25.5
s11 -19.333 15 -30s7.66699 -21.334 11 -32.001l62 -186h-95l-52 159c-5.33301 16.667 -11.166 30.5 -17.499 41.5s-13.333 19.667 -21 26s-16.5 10.666 -26.5 12.999s-21.667 3.5 -35 3.5h-88v-243h-85zM189.998 -103.999c0 14.667 5.33203 28.0039 15.999 40.0039
s25.334 18 44.001 18c12.667 0 23.334 -2.5 32.001 -7.5s15.667 -11.333 21 -19s9.16602 -16.334 11.499 -26.001s3.5 -18.834 3.5 -27.501c0 -18.667 -2.83301 -35.834 -8.5 -51.501s-13.334 -30 -23.001 -43s-20.667 -24.5 -33 -34.5s-25.166 -18 -38.499 -24l-30 39
c15.333 11.333 27.333 22.166 36 32.499s13.667 25.5 15 45.5c-14 1.33301 -25.167 7.5 -33.5 18.5s-12.5 24.167 -12.5 39.5z" />
    <glyph glyph-name="kgreenlandic" unicode="&#x138;" horiz-adv-x="474" 
d="M50 0l-0.00195312 496h85v-211h84c9.33301 0 18.666 0.5 27.999 1.5s18 3.83301 26 8.5s15.5 11.5 22.5 20.5s13.167 21.5 18.5 37.5l48 143h88l-49 -144c-8 -24 -17.5 -44.167 -28.5 -60.5s-25.833 -27.166 -44.5 -32.499c22.667 -5.33301 39.334 -16.833 50.001 -34.5
s20 -38.834 28 -63.501l53 -161h-90l-43 137c-5.33301 16 -11.166 28.833 -17.499 38.5s-13.5 17 -21.5 22s-16.667 8.33301 -26 10s-19.666 2.5 -30.999 2.5h-95v-210h-85z" />
    <glyph glyph-name="Lacute" unicode="&#x139;" horiz-adv-x="535" 
d="M66 0v689h92v-606h368v-83h-460zM80 780l148 122l59 -61l-170 -103z" />
    <glyph glyph-name="lacute" unicode="&#x13a;" horiz-adv-x="277" 
d="M168 132c0 -26 5.83008 -42.167 17.4971 -48.5s31.167 -8.83301 58.5 -7.5l2 -78c-9.33301 -1.33301 -18.166 -2.33301 -26.499 -3s-16.166 -1 -23.499 -1c-23.333 0 -42.166 2.83301 -56.499 8.5s-25.833 14 -34.5 25s-14.5 24.333 -17.5 40s-4.5 33.5 -4.5 53.5v595h85
v-584zM89.9971 790l148 122l59 -61l-170 -103z" />
    <glyph glyph-name="Lcommaaccent" unicode="&#x13b;" horiz-adv-x="535" 
d="M66 0v689h92v-606h368v-83h-460zM228 -104c0 14.667 5.33203 28.0039 15.999 40.0039s25.334 18 44.001 18c12.667 0 23.334 -2.5 32.001 -7.5s15.667 -11.333 21 -19s9.16602 -16.334 11.499 -26.001s3.5 -18.834 3.5 -27.501c0 -18.667 -2.83301 -35.834 -8.5 -51.501
s-13.334 -30 -23.001 -43s-20.667 -24.5 -33 -34.5s-25.166 -18 -38.499 -24l-30 39c15.333 11.333 27.333 22.166 36 32.499s13.667 25.5 15 45.5c-14 1.33301 -25.167 7.5 -33.5 18.5s-12.5 24.167 -12.5 39.5z" />
    <glyph glyph-name="lcommaaccent" unicode="&#x13c;" horiz-adv-x="277" 
d="M168 132c0 -26 5.83008 -42.167 17.4971 -48.5s31.167 -8.83301 58.5 -7.5l2 -78c-9.33301 -1.33301 -18.166 -2.33301 -26.499 -3s-16.166 -1 -23.499 -1c-23.333 0 -42.166 2.83301 -56.499 8.5s-25.833 14 -34.5 25s-14.5 24.333 -17.5 40s-4.5 33.5 -4.5 53.5v595h85
v-584zM88.9971 -104c0 14.667 5.33203 28.0039 15.999 40.0039s25.334 18 44.001 18c12.667 0 23.334 -2.5 32.001 -7.5s15.667 -11.333 21 -19s9.16602 -16.334 11.499 -26.001s3.5 -18.834 3.5 -27.501c0 -18.667 -2.83301 -35.834 -8.5 -51.501s-13.334 -30 -23.001 -43
s-20.667 -24.5 -33 -34.5s-25.166 -18 -38.499 -24l-30 39c15.333 11.333 27.333 22.166 36 32.499s13.667 25.5 15 45.5c-14 1.33301 -25.167 7.5 -33.5 18.5s-12.5 24.167 -12.5 39.5z" />
    <glyph glyph-name="Lcaron" unicode="&#x13d;" horiz-adv-x="535" 
d="M66 0v689h92v-606h368v-83h-460zM299 639c0 14.667 5.33203 28.0039 15.999 40.0039s25.334 18 44.001 18c12.667 0 23.334 -2.5 32.001 -7.5s15.667 -11.333 21 -19s9.16602 -16.334 11.499 -26.001s3.5 -18.834 3.5 -27.501c0 -18.667 -2.83301 -35.834 -8.5 -51.501
s-13.334 -30 -23.001 -43s-20.667 -24.5 -33 -34.5s-25.166 -18 -38.499 -24l-30 39c15.333 11.333 27.333 22.166 36 32.499s13.667 25.5 15 45.5c-14 1.33301 -25.167 7.5 -33.5 18.5s-12.5 24.167 -12.5 39.5z" />
    <glyph glyph-name="lcaron" unicode="&#x13e;" horiz-adv-x="353" 
d="M222 660c0 14.667 5.33203 28.0039 15.999 40.0039s25.334 18 44.001 18c12.667 0 23.334 -2.5 32.001 -7.5s15.667 -11.333 21 -19s9.16602 -16.334 11.499 -26.001s3.5 -18.834 3.5 -27.501c0 -18.667 -2.83301 -35.834 -8.5 -51.501s-13.334 -30 -23.001 -43
s-20.667 -24.5 -33 -34.5s-25.166 -18 -38.499 -24l-30 39c15.333 11.333 27.333 22.166 36 32.499s13.667 25.5 15 45.5c-14 1.33301 -25.167 7.5 -33.5 18.5s-12.5 24.167 -12.5 39.5zM167.999 132.004c0 -26 5.83008 -42.167 17.4971 -48.5s31.167 -8.83301 58.5 -7.5
l2 -78c-9.33301 -1.33301 -18.166 -2.33301 -26.499 -3s-16.166 -1 -23.499 -1c-23.333 0 -42.166 2.83301 -56.499 8.5s-25.833 14 -34.5 25s-14.5 24.333 -17.5 40s-4.5 33.5 -4.5 53.5v595h85v-584z" />
    <glyph glyph-name="Ldot" unicode="&#x13f;" horiz-adv-x="535" 
d="M66 0v689h92v-606h368v-83h-460zM290 358c0 12.667 4.33301 24.5 13 35.5s21.667 16.5 39 16.5c18 0 31.833 -5.5 41.5 -16.5s14.5 -22.833 14.5 -35.5c0 -15.333 -4.83301 -28.333 -14.5 -39s-23.5 -16 -41.5 -16c-17.333 0 -30.333 5.16699 -39 15.5s-13 23.5 -13 39.5
z" />
    <glyph glyph-name="ldot" unicode="&#x140;" horiz-adv-x="326" 
d="M215 385c0 12.667 4.33301 24.5 13 35.5s21.667 16.5 39 16.5c18 0 31.833 -5.5 41.5 -16.5s14.5 -22.833 14.5 -35.5c0 -15.333 -4.83301 -28.333 -14.5 -39s-23.5 -16 -41.5 -16c-17.333 0 -30.333 5.16699 -39 15.5s-13 23.5 -13 39.5zM168 132
c0 -26 5.83008 -42.167 17.4971 -48.5s31.167 -8.83301 58.5 -7.5l2 -78c-9.33301 -1.33301 -18.166 -2.33301 -26.499 -3s-16.166 -1 -23.499 -1c-23.333 0 -42.166 2.83301 -56.499 8.5s-25.833 14 -34.5 25s-14.5 24.333 -17.5 40s-4.5 33.5 -4.5 53.5v595h85v-584z" />
    <glyph glyph-name="Lslash" unicode="&#x141;" horiz-adv-x="535" 
d="M66 0v219l-41 -24l-33 58l74 43v393h92v-340l164 96l33 -58l-197 -115v-189h368v-83h-460z" />
    <glyph glyph-name="lslash" unicode="&#x142;" horiz-adv-x="307" 
d="M183 411l95.9971 55l33 -58l-129 -74v-202c0 -26 5.83301 -42.167 17.5 -48.5s31.167 -8.83301 58.5 -7.5l2 -78c-9.33301 -1.33301 -18.166 -2.33301 -26.499 -3s-16.166 -1 -23.499 -1c-23.333 0 -42.166 2.83301 -56.499 8.5s-25.833 14 -34.5 25
s-14.5 24.333 -17.5 40s-4.5 33.5 -4.5 53.5v164l-70 -40l-33 58l103 59v354h85v-305z" />
    <glyph glyph-name="Nacute" unicode="&#x143;" horiz-adv-x="645" 
d="M494 173v516h92v-689h-89l-241 360l-98 151h-7v-511h-92v689h87l249 -373l92 -143h7zM280 780l148 122l59 -61l-170 -103z" />
    <glyph glyph-name="nacute" unicode="&#x144;" horiz-adv-x="497" 
d="M298 501c48.667 0 86.666 -15.333 113.999 -46s41 -74.334 41 -131.001v-324h-86v313c0 38.667 -8.33301 65.834 -25 81.501s-37.667 23.167 -63 22.5c-20 0 -43.5 -5.16699 -70.5 -15.5s-53.167 -23.5 -78.5 -39.5v-362h-86v496h76l10 -55
c21.333 13.333 40.5 24 57.5 32s32.167 14 45.5 18s25.333 6.66699 36 8s20.334 2 29.001 2zM192.999 571l72 177l81 -25l-100 -172z" />
    <glyph glyph-name="Ncommaaccent" unicode="&#x145;" horiz-adv-x="645" 
d="M494 173v516h92v-689h-89l-241 360l-98 151h-7v-511h-92v689h87l249 -373l92 -143h7zM268 -84c0 14.667 5.33203 28.0039 15.999 40.0039s25.334 18 44.001 18c12.667 0 23.334 -2.5 32.001 -7.5s15.667 -11.333 21 -19s9.16602 -16.334 11.499 -26.001
s3.5 -18.834 3.5 -27.501c0 -18.667 -2.83301 -35.834 -8.5 -51.501s-13.334 -30 -23.001 -43s-20.667 -24.5 -33 -34.5s-25.166 -18 -38.499 -24l-30 39c15.333 11.333 27.333 22.166 36 32.499s13.667 25.5 15 45.5c-14 1.33301 -25.167 7.5 -33.5 18.5
s-12.5 24.167 -12.5 39.5z" />
    <glyph glyph-name="ncommaaccent" unicode="&#x146;" horiz-adv-x="497" 
d="M298 501c48.667 0 86.666 -15.333 113.999 -46s41 -74.334 41 -131.001v-324h-86v313c0 38.667 -8.33301 65.834 -25 81.501s-37.667 23.167 -63 22.5c-20 0 -43.5 -5.16699 -70.5 -15.5s-53.167 -23.5 -78.5 -39.5v-362h-86v496h76l10 -55
c21.333 13.333 40.5 24 57.5 32s32.167 14 45.5 18s25.333 6.66699 36 8s20.334 2 29.001 2zM183.999 -104c0 14.667 5.33203 28.0039 15.999 40.0039s25.334 18 44.001 18c12.667 0 23.334 -2.5 32.001 -7.5s15.667 -11.333 21 -19s9.16602 -16.334 11.499 -26.001
s3.5 -18.834 3.5 -27.501c0 -18.667 -2.83301 -35.834 -8.5 -51.501s-13.334 -30 -23.001 -43s-20.667 -24.5 -33 -34.5s-25.166 -18 -38.499 -24l-30 39c15.333 11.333 27.333 22.166 36 32.499s13.667 25.5 15 45.5c-14 1.33301 -25.167 7.5 -33.5 18.5
s-12.5 24.167 -12.5 39.5z" />
    <glyph glyph-name="Ncaron" unicode="&#x147;" horiz-adv-x="645" 
d="M494 173v516h92v-689h-89l-241 360l-98 151h-7v-511h-92v689h87l249 -373l92 -143h7zM462 908l30 -39l-143 -127h-53l-150 129l29 38l144 -87z" />
    <glyph glyph-name="ncaron" unicode="&#x148;" horiz-adv-x="497" 
d="M298 501c48.667 0 86.666 -15.333 113.999 -46s41 -74.334 41 -131.001v-324h-86v313c0 38.667 -8.33301 65.834 -25 81.501s-37.667 23.167 -63 22.5c-20 0 -43.5 -5.16699 -70.5 -15.5s-53.167 -23.5 -78.5 -39.5v-362h-86v496h76l10 -55
c21.333 13.333 40.5 24 57.5 32s32.167 14 45.5 18s25.333 6.66699 36 8s20.334 2 29.001 2zM362.999 743l40 -39l-143 -151h-53l-150 153l39 38l134 -107z" />
    <glyph glyph-name="napostrophe" unicode="&#x149;" horiz-adv-x="593" 
d="M394 501c48.667 0 86.666 -15.333 113.999 -46s41 -74.334 41 -131.001v-324h-86v313c0 38.667 -8.33301 65.834 -25 81.501s-37.667 23.167 -63 22.5c-20 0 -43.5 -5.16699 -70.5 -15.5s-53.167 -23.5 -78.5 -39.5v-362h-86v496h76l10 -55
c21.333 13.333 40.5 24 57.5 32s32.167 14 45.5 18s25.333 6.66699 36 8s20.334 2 29.001 2zM4.99902 623c0 14.667 5.33203 28.0039 15.999 40.0039s25.334 18 44.001 18c12.667 0 23.334 -2.5 32.001 -7.5s15.667 -11.333 21 -19s9.16602 -16.334 11.499 -26.001
s3.5 -18.834 3.5 -27.501c0 -18.667 -2.83301 -35.834 -8.5 -51.501s-13.334 -30 -23.001 -43s-20.667 -24.5 -33 -34.5s-25.166 -18 -38.499 -24l-30 39c15.333 11.333 27.333 22.166 36 32.499s13.667 25.5 15 45.5c-14 1.33301 -25.167 7.5 -33.5 18.5
s-12.5 24.167 -12.5 39.5z" />
    <glyph glyph-name="Eng" unicode="&#x14a;" horiz-adv-x="645" 
d="M494 173l0.000976562 516.001h92v-751c0 -37.333 -9.83301 -64.333 -29.5 -81s-43.834 -25 -72.501 -25s-58 7 -88 21l22 60c9.33301 -2 17.5 -3.83301 24.5 -5.5s13.5 -2.5 19.5 -2.5c14 0 23.833 3.66699 29.5 11s8.5 19.666 8.5 36.999v44l-244 363l-98 151h-7v-511
h-92v689h87l249 -373l92 -143h7z" />
    <glyph glyph-name="eng" unicode="&#x14b;" horiz-adv-x="497" 
d="M298 501c48.667 0 86.667 -15.3311 114 -45.998s41 -74.334 41 -131.001v-386c0 -37.333 -9.83301 -64.333 -29.5 -81s-43.834 -25 -72.501 -25s-58 7 -88 21l22 60c9.33301 -2 17.5 -3.83301 24.5 -5.5s13.5 -2.5 19.5 -2.5c14 0 23.833 3.66699 29.5 11
s8.5 19.666 8.5 36.999v360c0 39.333 -8.33301 66.5 -25 81.5s-37.667 22.5 -63 22.5c-20 0 -43.5 -5.16699 -70.5 -15.5s-53.167 -23.5 -78.5 -39.5v-362h-86v496h76l10 -55c21.333 13.333 40.5 24 57.5 32s32.167 14 45.5 18s25.333 6.66699 36 8s20.334 2 29.001 2z" />
    <glyph glyph-name="Omacron" unicode="&#x14c;" horiz-adv-x="613" 
d="M561 225c0 -35.333 -6.50098 -67.333 -19.501 -96s-31 -53 -54 -73s-50 -35.5 -81 -46.5s-64.5 -16.5 -100.5 -16.5c-37.333 0 -71.666 5.5 -102.999 16.5s-58.166 26.5 -80.499 46.5s-39.666 44.333 -51.999 73s-18.5 60.667 -18.5 96v238
c0 34.667 6.16699 66.334 18.5 95.001s29.666 53.167 51.999 73.5s49.166 36.166 80.499 47.499s65.666 17 102.999 17c36.667 0 70.667 -5.66699 102 -17s58.333 -27.166 81 -47.499s40.334 -44.833 53.001 -73.5s19 -60.334 19 -95.001v-238zM467.999 452
c0 28 -4.33301 52 -13 72s-20.334 36.5 -35.001 49.5s-31.834 22.5 -51.501 28.5s-40.5 9 -62.5 9s-42.833 -3 -62.5 -9s-36.667 -15.5 -51 -28.5s-25.833 -29.5 -34.5 -49.5s-13 -44 -13 -72v-216c0 -28 4.33301 -52 13 -72s20.334 -36.333 35.001 -49
s31.834 -22 51.501 -28s40.167 -9 61.5 -9c22 0 42.667 3 62 9s36.5 15.333 51.5 28s26.833 29 35.5 49s13 44 13 72v216zM168.999 780v75h268v-75h-268z" />
    <glyph glyph-name="omacron" unicode="&#x14d;" horiz-adv-x="505" 
d="M458 175c0 -28.667 -5.49902 -54.167 -16.499 -76.5s-26 -41.166 -45 -56.499s-40.833 -27 -65.5 -35s-51 -12 -79 -12c-28.667 0 -55.334 4 -80.001 12s-46.167 19.667 -64.5 35s-32.833 34.166 -43.5 56.499s-16 47.833 -16 76.5v144c0 28.667 5.5 54.167 16.5 76.5
s25.667 41.333 44 57s40 27.667 65 36s51.5 12.5 79.5 12.5c30 0 57.5 -4.16699 82.5 -12.5s46.667 -20.333 65 -36s32.5 -34.667 42.5 -57s15 -47.833 15 -76.5v-144zM373.001 304c0 21.333 -3.66895 39.5 -11.002 54.5s-16.833 27.167 -28.5 36.5s-24.5 16 -38.5 20
s-27.667 6 -41 6c-14 0 -28 -2 -42 -6s-26.833 -10.667 -38.5 -20s-21.167 -21.5 -28.5 -36.5s-11 -33.167 -11 -54.5v-112c0 -21.333 3.16699 -39.5 9.5 -54.5s14.833 -27.167 25.5 -36.5s23.334 -16 38.001 -20s30.334 -6 47.001 -6c13.333 0 27 2 41 6
s26.833 10.667 38.5 20s21.167 21.5 28.5 36.5s11 33.167 11 54.5v112zM116.999 600v75h268v-75h-268z" />
    <glyph glyph-name="Obreve" unicode="&#x14e;" horiz-adv-x="613" 
d="M561 225c0 -35.333 -6.50098 -67.333 -19.501 -96s-31 -53 -54 -73s-50 -35.5 -81 -46.5s-64.5 -16.5 -100.5 -16.5c-37.333 0 -71.666 5.5 -102.999 16.5s-58.166 26.5 -80.499 46.5s-39.666 44.333 -51.999 73s-18.5 60.667 -18.5 96v238
c0 34.667 6.16699 66.334 18.5 95.001s29.666 53.167 51.999 73.5s49.166 36.166 80.499 47.499s65.666 17 102.999 17c36.667 0 70.667 -5.66699 102 -17s58.333 -27.166 81 -47.499s40.334 -44.833 53.001 -73.5s19 -60.334 19 -95.001v-238zM467.999 452
c0 28 -4.33301 52 -13 72s-20.334 36.5 -35.001 49.5s-31.834 22.5 -51.501 28.5s-40.5 9 -62.5 9s-42.833 -3 -62.5 -9s-36.667 -15.5 -51 -28.5s-25.833 -29.5 -34.5 -49.5s-13 -44 -13 -72v-216c0 -28 4.33301 -52 13 -72s20.334 -36.333 35.001 -49
s31.834 -22 51.501 -28s40.167 -9 61.5 -9c22 0 42.667 3 62 9s36.5 15.333 51.5 28s26.833 29 35.5 49s13 44 13 72v216zM238.999 860c0.666992 -6.66699 2.66504 -13.667 5.99805 -21s8 -14.166 14 -20.499s13.333 -11.5 22 -15.5s18.334 -6 29.001 -6c12 0 22.5 2 31.5 6
s16.5 9.16699 22.5 15.5s10.5 13.166 13.5 20.499s4.5 14.333 4.5 21h71c-1.33301 -13.333 -4.33301 -27.5 -9 -42.5s-12.5 -28.833 -23.5 -41.5s-25.333 -23.334 -43 -32.001s-40.167 -13 -67.5 -13s-50.166 4.33301 -68.499 13s-33 19.334 -44 32.001s-19 26.5 -24 41.5
s-7.5 29.167 -7.5 42.5h73z" />
    <glyph glyph-name="obreve" unicode="&#x14f;" horiz-adv-x="505" 
d="M458 175c0 -28.667 -5.49902 -54.167 -16.499 -76.5s-26 -41.166 -45 -56.499s-40.833 -27 -65.5 -35s-51 -12 -79 -12c-28.667 0 -55.334 4 -80.001 12s-46.167 19.667 -64.5 35s-32.833 34.166 -43.5 56.499s-16 47.833 -16 76.5v144c0 28.667 5.5 54.167 16.5 76.5
s25.667 41.333 44 57s40 27.667 65 36s51.5 12.5 79.5 12.5c30 0 57.5 -4.16699 82.5 -12.5s46.667 -20.333 65 -36s32.5 -34.667 42.5 -57s15 -47.833 15 -76.5v-144zM373.001 304c0 21.333 -3.66895 39.5 -11.002 54.5s-16.833 27.167 -28.5 36.5s-24.5 16 -38.5 20
s-27.667 6 -41 6c-14 0 -28 -2 -42 -6s-26.833 -10.667 -38.5 -20s-21.167 -21.5 -28.5 -36.5s-11 -33.167 -11 -54.5v-112c0 -21.333 3.16699 -39.5 9.5 -54.5s14.833 -27.167 25.5 -36.5s23.334 -16 38.001 -20s30.334 -6 47.001 -6c13.333 0 27 2 41 6
s26.833 10.667 38.5 20s21.167 21.5 28.5 36.5s11 33.167 11 54.5v112zM183.999 697c0.666992 -6.66699 2.66504 -13.667 5.99805 -21s8 -14.166 14 -20.499s13.333 -11.5 22 -15.5s18.334 -6 29.001 -6c12 0 22.5 2 31.5 6s16.5 9.16699 22.5 15.5s10.5 13.166 13.5 20.499
s4.5 14.333 4.5 21h71c-1.33301 -13.333 -4.33301 -27.5 -9 -42.5s-12.5 -28.833 -23.5 -41.5s-25.333 -23.334 -43 -32.001s-40.167 -13 -67.5 -13s-50.166 4.33301 -68.499 13s-33 19.334 -44 32.001s-19 26.5 -24 41.5s-7.5 29.167 -7.5 42.5h73z" />
    <glyph glyph-name="Ohungarumlaut" unicode="&#x150;" horiz-adv-x="613" 
d="M561 225c0 -35.333 -6.50098 -67.333 -19.501 -96s-31 -53 -54 -73s-50 -35.5 -81 -46.5s-64.5 -16.5 -100.5 -16.5c-37.333 0 -71.666 5.5 -102.999 16.5s-58.166 26.5 -80.499 46.5s-39.666 44.333 -51.999 73s-18.5 60.667 -18.5 96v238
c0 34.667 6.16699 66.334 18.5 95.001s29.666 53.167 51.999 73.5s49.166 36.166 80.499 47.499s65.666 17 102.999 17c36.667 0 70.667 -5.66699 102 -17s58.333 -27.166 81 -47.499s40.334 -44.833 53.001 -73.5s19 -60.334 19 -95.001v-238zM467.999 452
c0 28 -4.33301 52 -13 72s-20.334 36.5 -35.001 49.5s-31.834 22.5 -51.501 28.5s-40.5 9 -62.5 9s-42.833 -3 -62.5 -9s-36.667 -15.5 -51 -28.5s-25.833 -29.5 -34.5 -49.5s-13 -44 -13 -72v-216c0 -28 4.33301 -52 13 -72s20.334 -36.333 35.001 -49
s31.834 -22 51.501 -28s40.167 -9 61.5 -9c22 0 42.667 3 62 9s36.5 15.333 51.5 28s26.833 29 35.5 49s13 44 13 72v216zM327.999 780l148 122l59 -61l-170 -103zM174.999 780l148 122l59 -61l-170 -103z" />
    <glyph glyph-name="ohungarumlaut" unicode="&#x151;" horiz-adv-x="505" 
d="M458 175c0 -28.667 -5.49902 -54.167 -16.499 -76.5s-26 -41.166 -45 -56.499s-40.833 -27 -65.5 -35s-51 -12 -79 -12c-28.667 0 -55.334 4 -80.001 12s-46.167 19.667 -64.5 35s-32.833 34.166 -43.5 56.499s-16 47.833 -16 76.5v144c0 28.667 5.5 54.167 16.5 76.5
s25.667 41.333 44 57s40 27.667 65 36s51.5 12.5 79.5 12.5c30 0 57.5 -4.16699 82.5 -12.5s46.667 -20.333 65 -36s32.5 -34.667 42.5 -57s15 -47.833 15 -76.5v-144zM373.001 304c0 21.333 -3.66895 39.5 -11.002 54.5s-16.833 27.167 -28.5 36.5s-24.5 16 -38.5 20
s-27.667 6 -41 6c-14 0 -28 -2 -42 -6s-26.833 -10.667 -38.5 -20s-21.167 -21.5 -28.5 -36.5s-11 -33.167 -11 -54.5v-112c0 -21.333 3.16699 -39.5 9.5 -54.5s14.833 -27.167 25.5 -36.5s23.334 -16 38.001 -20s30.334 -6 47.001 -6c13.333 0 27 2 41 6
s26.833 10.667 38.5 20s21.167 21.5 28.5 36.5s11 33.167 11 54.5v112zM152.999 571l72 177l81 -25l-100 -172zM282.999 571l72 177l81 -25l-100 -172z" />
    <glyph glyph-name="OE" unicode="&#x152;" horiz-adv-x="880" 
d="M384 0c-23.333 -4.66699 -49.332 -7 -77.999 -7c-37.333 0 -71.666 5.5 -102.999 16.5s-58.166 26.5 -80.499 46.5s-39.666 44.333 -51.999 73s-18.5 60.667 -18.5 96v238c0 34.667 6.16699 66.334 18.5 95.001s29.666 53.167 51.999 73.5s49.166 36.166 80.499 47.499
s65.666 17 102.999 17c13.333 0 26.666 -0.5 39.999 -1.5s26 -2.83301 38 -5.5h460v-84h-368v-219h315v-83h-315v-220h368v-83h-460zM306.001 78c14 0 27.498 0.831055 40.498 2.49805s25.5 4.83398 37.5 9.50098v509c-12 4.66699 -24.5 7.83398 -37.5 9.50098
s-26.5 2.5 -40.5 2.5c-22 0 -42.833 -3 -62.5 -9s-36.667 -15.5 -51 -28.5s-25.833 -29.5 -34.5 -49.5s-13 -44 -13 -72v-216c0 -28 4.33301 -52 13 -72s20.334 -36.333 35.001 -49s31.834 -22 51.501 -28s40.167 -9 61.5 -9z" />
    <glyph glyph-name="oe" unicode="&#x153;" horiz-adv-x="809" 
d="M459 216l-0.00390625 -32.999c0 -20 3.33301 -36.833 10 -50.5s15.834 -25 27.501 -34s25 -15.5 40 -19.5s30.5 -6 46.5 -6c16.667 0 36 3.33301 58 10s43.333 19.667 64 39l54 -59c-25.333 -26 -53.5 -43.833 -84.5 -53.5s-62.167 -14.5 -93.5 -14.5
c-34 0 -65.333 5.33301 -94 16s-52.667 26.667 -72 48c-19.333 -21.333 -43.166 -37.333 -71.499 -48s-58.833 -16 -91.5 -16c-28.667 0 -55.334 4 -80.001 12s-46.167 19.667 -64.5 35s-32.833 34.166 -43.5 56.499s-16 47.833 -16 76.5v144c0 28.667 5.5 54.167 16.5 76.5
s25.667 41.333 44 57s40 27.667 65 36s51.5 12.5 79.5 12.5c35.333 0 67 -5.5 95 -16.5s51 -27.167 69 -48.5c18 20.667 40.333 36.5 67 47.5s56.334 16.5 89.001 16.5c29.333 0 56.333 -4.33301 81 -13s45.834 -21 63.501 -37s31.334 -35.5 41.001 -58.5
s14.5 -48.833 14.5 -77.5v-98h-314zM372.996 307.001c-0.666992 20.667 -4.66895 38.333 -12.002 53s-16.833 26.5 -28.5 35.5s-24.334 15.5 -38.001 19.5s-27.167 6 -40.5 6c-14 0 -28 -2 -42 -6s-26.833 -10.667 -38.5 -20s-21.167 -21.5 -28.5 -36.5
s-11 -33.167 -11 -54.5v-112c0 -21.333 3.16699 -39.5 9.5 -54.5s14.833 -27.167 25.5 -36.5s23.334 -16 38.001 -20s30.334 -6 47.001 -6c12.667 0 26 2 40 6s26.667 10.333 38 19s20.833 20 28.5 34s11.834 31 12.501 51v122zM685.994 305
c0 20.667 -3.00098 38.3301 -9.00098 52.9971s-14.167 26.834 -24.5 36.501s-22.333 16.667 -36 21s-28.167 6.5 -43.5 6.5s-29.666 -2.33301 -42.999 -7s-25.333 -11.667 -36 -21s-19 -21.166 -25 -35.499s-9 -31.166 -9 -50.499v-22h226v19z" />
    <glyph glyph-name="Racute" unicode="&#x154;" horiz-adv-x="572" 
d="M343 689c34.667 0 64.333 -6.16602 89 -18.499s45 -28.333 61 -48s27.667 -41.667 35 -66s11 -48.833 11 -73.5c0 -19.333 -2.66699 -38.5 -8 -57.5s-13.333 -36.833 -24 -53.5s-23.5 -31.834 -38.5 -45.501s-32.167 -24.5 -51.5 -32.5l129 -294h-102l-117 277h-178v-277
h-92v689h286zM446.999 483.001c0 37.333 -11.5 67 -34.5 89s-52.5 33 -88.5 33h-175v-243h175c36 0 65.5 10.667 88.5 32s34.5 51 34.5 89zM229.999 780.001l148 122l59 -61l-170 -103z" />
    <glyph glyph-name="racute" unicode="&#x155;" horiz-adv-x="332" 
d="M328 411c-44.667 -4 -81.4971 -11.833 -110.497 -23.5s-51.167 -22.5 -66.5 -32.5v-355h-86v496h76l9 -73h1c8.66699 8.66699 19.667 17.667 33 27s27.666 17.833 42.999 25.5s31.666 14 48.999 19s34.666 7.5 51.999 7.5v-91zM121.003 571l72 177l81 -25l-100 -172z" />
    <glyph glyph-name="Rcommaaccent" unicode="&#x156;" horiz-adv-x="572" 
d="M343 689c34.667 0 64.333 -6.16602 89 -18.499s45 -28.333 61 -48s27.667 -41.667 35 -66s11 -48.833 11 -73.5c0 -19.333 -2.66699 -38.5 -8 -57.5s-13.333 -36.833 -24 -53.5s-23.5 -31.834 -38.5 -45.501s-32.167 -24.5 -51.5 -32.5l129 -294h-102l-117 277h-178v-277
h-92v689h286zM446.999 483.001c0 37.333 -11.5 67 -34.5 89s-52.5 33 -88.5 33h-175v-243h175c36 0 65.5 10.667 88.5 32s34.5 51 34.5 89zM216.999 -83.999c0 14.667 5.33203 28.0039 15.999 40.0039s25.334 18 44.001 18c12.667 0 23.334 -2.5 32.001 -7.5
s15.667 -11.333 21 -19s9.16602 -16.334 11.499 -26.001s3.5 -18.834 3.5 -27.501c0 -18.667 -2.83301 -35.834 -8.5 -51.501s-13.334 -30 -23.001 -43s-20.667 -24.5 -33 -34.5s-25.166 -18 -38.499 -24l-30 39c15.333 11.333 27.333 22.166 36 32.499s13.667 25.5 15 45.5
c-14 1.33301 -25.167 7.5 -33.5 18.5s-12.5 24.167 -12.5 39.5z" />
    <glyph glyph-name="rcommaaccent" unicode="&#x157;" horiz-adv-x="332" 
d="M328 411c-44.667 -4 -81.4971 -11.833 -110.497 -23.5s-51.167 -22.5 -66.5 -32.5v-355h-86v496h76l9 -73h1c8.66699 8.66699 19.667 17.667 33 27s27.666 17.833 42.999 25.5s31.666 14 48.999 19s34.666 7.5 51.999 7.5v-91zM41.0029 -104
c0 14.667 5.33203 28.0039 15.999 40.0039s25.334 18 44.001 18c12.667 0 23.334 -2.5 32.001 -7.5s15.667 -11.333 21 -19s9.16602 -16.334 11.499 -26.001s3.5 -18.834 3.5 -27.501c0 -18.667 -2.83301 -35.834 -8.5 -51.501s-13.334 -30 -23.001 -43
s-20.667 -24.5 -33 -34.5s-25.166 -18 -38.499 -24l-30 39c15.333 11.333 27.333 22.166 36 32.499s13.667 25.5 15 45.5c-14 1.33301 -25.167 7.5 -33.5 18.5s-12.5 24.167 -12.5 39.5z" />
    <glyph glyph-name="Rcaron" unicode="&#x158;" horiz-adv-x="572" 
d="M343 689c34.667 0 64.333 -6.16602 89 -18.499s45 -28.333 61 -48s27.667 -41.667 35 -66s11 -48.833 11 -73.5c0 -19.333 -2.66699 -38.5 -8 -57.5s-13.333 -36.833 -24 -53.5s-23.5 -31.834 -38.5 -45.501s-32.167 -24.5 -51.5 -32.5l129 -294h-102l-117 277h-178v-277
h-92v689h286zM446.999 483.001c0 37.333 -11.5 67 -34.5 89s-52.5 33 -88.5 33h-175v-243h175c36 0 65.5 10.667 88.5 32s34.5 51 34.5 89zM406.999 908.001l30 -39l-143 -127h-53l-150 129l29 38l144 -87z" />
    <glyph glyph-name="rcaron" unicode="&#x159;" horiz-adv-x="332" 
d="M328 411c-44.667 -4 -81.4971 -11.833 -110.497 -23.5s-51.167 -22.5 -66.5 -32.5v-355h-86v496h76l9 -73h1c8.66699 8.66699 19.667 17.667 33 27s27.666 17.833 42.999 25.5s31.666 14 48.999 19s34.666 7.5 51.999 7.5v-91zM300.003 743l40 -39l-143 -151h-53
l-150 153l39 38l134 -107z" />
    <glyph glyph-name="Sacute" unicode="&#x15a;" horiz-adv-x="556" 
d="M525 191c0 -30.667 -5.83105 -58.1641 -17.498 -82.4971s-28.334 -45 -50.001 -62s-47.5 -30 -77.5 -39s-63.333 -13.5 -100 -13.5c-47.333 0 -91.833 6.66699 -133.5 20s-81.834 35 -120.501 65l52 66c30.667 -21.333 63.167 -38 97.5 -50s69.5 -18 105.5 -18
c46.667 0 83.334 10 110.001 30s40 48 40 84c0 22.667 -5.16699 41.167 -15.5 55.5s-23.666 25.833 -39.999 34.5s-34.333 15.334 -54 20.001s-38.834 9 -57.501 13c-27.333 5.33301 -53.666 12.166 -78.999 20.499s-47.666 19.833 -66.999 34.5s-35 32.834 -47 54.501
s-18 48.5 -18 80.5c0 28.667 5.16699 55.167 15.5 79.5s25.166 45.166 44.499 62.499s42.666 31 69.999 41s58.333 15 93 15c40 0 79 -3.66699 117 -11s74.333 -21.666 109 -42.999l-43 -78c-29.333 17.333 -59.833 29.666 -91.5 36.999s-62.5 11 -92.5 11
c-18 0 -35 -2.33301 -51 -7s-30 -11.834 -42 -21.501s-21.5 -21.834 -28.5 -36.501s-10.5 -31.667 -10.5 -51s5 -35 15 -47s22.667 -21.833 38 -29.5s32 -13.834 50 -18.501s35 -8.66699 51 -12c28.667 -6.66699 56.667 -14.167 84 -22.5s51.666 -19.833 72.999 -34.5
s38.5 -33.667 51.5 -57s19.5 -53.333 19.5 -90zM220.002 780.003l148 122l59 -61l-170 -103z" />
    <glyph glyph-name="sacute" unicode="&#x15b;" horiz-adv-x="454" 
d="M425 142c0 -23.333 -5.00195 -43.999 -15.002 -61.999s-23.667 -33.5 -41 -46.5s-38 -22.833 -62 -29.5s-50.333 -10 -79 -10c-34.667 0 -68.334 4.5 -101.001 13.5s-65.667 26.167 -99 51.5l47 63c24.667 -20.667 50 -34.834 76 -42.501s54.333 -11.5 85 -11.5
c12 0 24.167 1.5 36.5 4.5s23.333 7.5 33 13.5s17.5 13.833 23.5 23.5s9 21.167 9 34.5c0 21.333 -7.66699 36.666 -23 45.999s-34.666 16 -57.999 20c-25.333 4 -50.5 8.5 -75.5 13.5s-47.5 12.5 -67.5 22.5s-36.333 23.333 -49 40s-19 38.667 -19 66
c0 22.667 4.66699 43.334 14 62.001s22.333 34.334 39 47.001s35.834 22.5 57.501 29.5s45.167 10.5 70.5 10.5c37.333 0 70.333 -3.83301 99 -11.5s56.334 -21.167 83.001 -40.5l-43 -64c-23.333 14.667 -46 25 -68 31s-45.667 9 -71 9c-29.333 0 -53 -6.83301 -71 -20.5
s-27 -30.834 -27 -51.501c0 -17.333 7.33301 -30.333 22 -39s33 -15.5 55 -20.5s45.667 -9.66699 71 -14s49 -11.5 71 -21.5s40.333 -24 55 -42s22 -42.667 22 -74zM192.998 571.001l72 177l81 -25l-100 -172z" />
    <glyph glyph-name="Scircumflex" unicode="&#x15c;" horiz-adv-x="556" 
d="M525 191c0 -30.667 -5.83105 -58.1641 -17.498 -82.4971s-28.334 -45 -50.001 -62s-47.5 -30 -77.5 -39s-63.333 -13.5 -100 -13.5c-47.333 0 -91.833 6.66699 -133.5 20s-81.834 35 -120.501 65l52 66c30.667 -21.333 63.167 -38 97.5 -50s69.5 -18 105.5 -18
c46.667 0 83.334 10 110.001 30s40 48 40 84c0 22.667 -5.16699 41.167 -15.5 55.5s-23.666 25.833 -39.999 34.5s-34.333 15.334 -54 20.001s-38.834 9 -57.501 13c-27.333 5.33301 -53.666 12.166 -78.999 20.499s-47.666 19.833 -66.999 34.5s-35 32.834 -47 54.501
s-18 48.5 -18 80.5c0 28.667 5.16699 55.167 15.5 79.5s25.166 45.166 44.499 62.499s42.666 31 69.999 41s58.333 15 93 15c40 0 79 -3.66699 117 -11s74.333 -21.666 109 -42.999l-43 -78c-29.333 17.333 -59.833 29.666 -91.5 36.999s-62.5 11 -92.5 11
c-18 0 -35 -2.33301 -51 -7s-30 -11.834 -42 -21.501s-21.5 -21.834 -28.5 -36.501s-10.5 -31.667 -10.5 -51s5 -35 15 -47s22.667 -21.833 38 -29.5s32 -13.834 50 -18.501s35 -8.66699 51 -12c28.667 -6.66699 56.667 -14.167 84 -22.5s51.666 -19.833 72.999 -34.5
s38.5 -33.667 51.5 -57s19.5 -53.333 19.5 -90zM279.002 826.003l-144 -87l-29 38l150 128h53l143 -126l-30 -39z" />
    <glyph glyph-name="scircumflex" unicode="&#x15d;" horiz-adv-x="454" 
d="M425 142c0 -23.333 -5.00195 -43.999 -15.002 -61.999s-23.667 -33.5 -41 -46.5s-38 -22.833 -62 -29.5s-50.333 -10 -79 -10c-34.667 0 -68.334 4.5 -101.001 13.5s-65.667 26.167 -99 51.5l47 63c24.667 -20.667 50 -34.834 76 -42.501s54.333 -11.5 85 -11.5
c12 0 24.167 1.5 36.5 4.5s23.333 7.5 33 13.5s17.5 13.833 23.5 23.5s9 21.167 9 34.5c0 21.333 -7.66699 36.666 -23 45.999s-34.666 16 -57.999 20c-25.333 4 -50.5 8.5 -75.5 13.5s-47.5 12.5 -67.5 22.5s-36.333 23.333 -49 40s-19 38.667 -19 66
c0 22.667 4.66699 43.334 14 62.001s22.333 34.334 39 47.001s35.834 22.5 57.501 29.5s45.167 10.5 70.5 10.5c37.333 0 70.333 -3.83301 99 -11.5s56.334 -21.167 83.001 -40.5l-43 -64c-23.333 14.667 -46 25 -68 31s-45.667 9 -71 9c-29.333 0 -53 -6.83301 -71 -20.5
s-27 -30.834 -27 -51.501c0 -17.333 7.33301 -30.333 22 -39s33 -15.5 55 -20.5s45.667 -9.66699 71 -14s49 -11.5 71 -21.5s40.333 -24 55 -42s22 -42.667 22 -74zM231.998 659.001l-134 -107l-39 38l150 153h53l143 -151l-40 -39z" />
    <glyph glyph-name="Scedilla" unicode="&#x15e;" horiz-adv-x="556" 
d="M525 191c0 -30 -5.49707 -56.9951 -16.4971 -80.9951s-26.833 -44.333 -47.5 -61s-45.334 -29.834 -74.001 -39.501s-60.334 -14.834 -95.001 -15.501l-10 -33c19.333 -1.33301 35.333 -4.83301 48 -10.5s22.834 -12.667 30.501 -21s13.167 -17.166 16.5 -26.499
s5 -18 5 -26c0 -8.66699 -1.83301 -17.834 -5.5 -27.501s-9.5 -18.667 -17.5 -27s-18.667 -15.166 -32 -20.499s-29.333 -8 -48 -8c-11.333 0 -25.833 1 -43.5 3s-34.834 6.33301 -51.501 13l16 42c14 -4.66699 27.667 -7.83398 41 -9.50098s24.666 -2.5 33.999 -2.5
c16.667 0 29 3.5 37 10.5s12 15.5 12 25.5c0 8 -3.5 16.667 -10.5 26s-20.167 14 -39.5 14h-6c-2 0 -4.66699 -0.333008 -8 -1l-31 18l18 62c-40 2.66699 -78.333 10.667 -115 24s-72 33.333 -106 60l52 66c30.667 -21.333 63.167 -38 97.5 -50s69.5 -18 105.5 -18
c46.667 0 83.334 10 110.001 30s40 48 40 84c0 22.667 -5.16699 41.167 -15.5 55.5s-23.666 25.833 -39.999 34.5s-34.333 15.334 -54 20.001s-38.834 9 -57.501 13c-27.333 5.33301 -53.666 12.166 -78.999 20.499s-47.666 19.833 -66.999 34.5s-35 32.834 -47 54.501
s-18 48.5 -18 80.5c0 28.667 5.16699 55.167 15.5 79.5s25.166 45.166 44.499 62.499s42.666 31 69.999 41s58.333 15 93 15c40 0 79 -3.66699 117 -11s74.333 -21.666 109 -42.999l-43 -78c-29.333 17.333 -59.833 29.666 -91.5 36.999s-62.5 11 -92.5 11
c-18 0 -35 -2.33301 -51 -7s-30 -11.834 -42 -21.501s-21.5 -21.834 -28.5 -36.501s-10.5 -31.667 -10.5 -51s5 -35 15 -47s22.667 -21.833 38 -29.5s32 -13.834 50 -18.501s35 -8.66699 51 -12c28.667 -6.66699 56.667 -14.167 84 -22.5s51.666 -19.833 72.999 -34.5
s38.5 -33.667 51.5 -57s19.5 -53.333 19.5 -90z" />
    <glyph glyph-name="scedilla" unicode="&#x15f;" horiz-adv-x="454" 
d="M425 142c0 -22 -4.50195 -41.834 -13.502 -59.501s-21.5 -32.667 -37.5 -45s-35.167 -22.166 -57.5 -29.499s-46.833 -11.666 -73.5 -12.999l-10 -34c19.333 -1.33301 35.333 -4.83301 48 -10.5s22.834 -12.667 30.501 -21s13.167 -17.166 16.5 -26.499s5 -18 5 -26
c0 -8.66699 -1.83301 -17.834 -5.5 -27.501s-9.5 -18.667 -17.5 -27s-18.667 -15.166 -32 -20.499s-29.333 -8 -48 -8c-11.333 0 -25.833 1 -43.5 3s-34.834 6.33301 -51.501 13l16 42c14 -4.66699 27.667 -7.83398 41 -9.50098s24.666 -2.5 33.999 -2.5
c16.667 0 29 3.5 37 10.5s12 15.5 12 25.5c0 8 -3.5 16.667 -10.5 26s-20.167 14 -39.5 14h-6c-2 0 -4.66699 -0.333008 -8 -1l-31 18l18 62c-29.333 2 -58 7.66699 -86 17s-56 25 -84 47l47 63c24.667 -20.667 50 -34.834 76 -42.501s54.333 -11.5 85 -11.5
c12 0 24.167 1.5 36.5 4.5s23.333 7.5 33 13.5s17.5 13.833 23.5 23.5s9 21.167 9 34.5c0 21.333 -7.66699 36.666 -23 45.999s-34.666 16 -57.999 20c-25.333 4 -50.5 8.5 -75.5 13.5s-47.5 12.5 -67.5 22.5s-36.333 23.333 -49 40s-19 38.667 -19 66
c0 22.667 4.66699 43.334 14 62.001s22.333 34.334 39 47.001s35.834 22.5 57.501 29.5s45.167 10.5 70.5 10.5c37.333 0 70.333 -3.83301 99 -11.5s56.334 -21.167 83.001 -40.5l-43 -64c-23.333 14.667 -46 25 -68 31s-45.667 9 -71 9c-29.333 0 -53 -6.83301 -71 -20.5
s-27 -30.834 -27 -51.501c0 -17.333 7.33301 -30.333 22 -39s33 -15.5 55 -20.5s45.667 -9.66699 71 -14s49 -11.5 71 -21.5s40.333 -24 55 -42s22 -42.667 22 -74z" />
    <glyph glyph-name="Scaron" unicode="&#x160;" horiz-adv-x="556" 
d="M525 191c0 -30.667 -5.83105 -58.1641 -17.498 -82.4971s-28.334 -45 -50.001 -62s-47.5 -30 -77.5 -39s-63.333 -13.5 -100 -13.5c-47.333 0 -91.833 6.66699 -133.5 20s-81.834 35 -120.501 65l52 66c30.667 -21.333 63.167 -38 97.5 -50s69.5 -18 105.5 -18
c46.667 0 83.334 10 110.001 30s40 48 40 84c0 22.667 -5.16699 41.167 -15.5 55.5s-23.666 25.833 -39.999 34.5s-34.333 15.334 -54 20.001s-38.834 9 -57.501 13c-27.333 5.33301 -53.666 12.166 -78.999 20.499s-47.666 19.833 -66.999 34.5s-35 32.834 -47 54.501
s-18 48.5 -18 80.5c0 28.667 5.16699 55.167 15.5 79.5s25.166 45.166 44.499 62.499s42.666 31 69.999 41s58.333 15 93 15c40 0 79 -3.66699 117 -11s74.333 -21.666 109 -42.999l-43 -78c-29.333 17.333 -59.833 29.666 -91.5 36.999s-62.5 11 -92.5 11
c-18 0 -35 -2.33301 -51 -7s-30 -11.834 -42 -21.501s-21.5 -21.834 -28.5 -36.501s-10.5 -31.667 -10.5 -51s5 -35 15 -47s22.667 -21.833 38 -29.5s32 -13.834 50 -18.501s35 -8.66699 51 -12c28.667 -6.66699 56.667 -14.167 84 -22.5s51.666 -19.833 72.999 -34.5
s38.5 -33.667 51.5 -57s19.5 -53.333 19.5 -90zM429.002 908.003l30 -39l-143 -127h-53l-150 129l29 38l144 -87z" />
    <glyph glyph-name="scaron" unicode="&#x161;" horiz-adv-x="454" 
d="M425 142c0 -23.333 -5.00195 -43.999 -15.002 -61.999s-23.667 -33.5 -41 -46.5s-38 -22.833 -62 -29.5s-50.333 -10 -79 -10c-34.667 0 -68.334 4.5 -101.001 13.5s-65.667 26.167 -99 51.5l47 63c24.667 -20.667 50 -34.834 76 -42.501s54.333 -11.5 85 -11.5
c12 0 24.167 1.5 36.5 4.5s23.333 7.5 33 13.5s17.5 13.833 23.5 23.5s9 21.167 9 34.5c0 21.333 -7.66699 36.666 -23 45.999s-34.666 16 -57.999 20c-25.333 4 -50.5 8.5 -75.5 13.5s-47.5 12.5 -67.5 22.5s-36.333 23.333 -49 40s-19 38.667 -19 66
c0 22.667 4.66699 43.334 14 62.001s22.333 34.334 39 47.001s35.834 22.5 57.501 29.5s45.167 10.5 70.5 10.5c37.333 0 70.333 -3.83301 99 -11.5s56.334 -21.167 83.001 -40.5l-43 -64c-23.333 14.667 -46 25 -68 31s-45.667 9 -71 9c-29.333 0 -53 -6.83301 -71 -20.5
s-27 -30.834 -27 -51.501c0 -17.333 7.33301 -30.333 22 -39s33 -15.5 55 -20.5s45.667 -9.66699 71 -14s49 -11.5 71 -21.5s40.333 -24 55 -42s22 -42.667 22 -74zM367.998 743.001l40 -39l-143 -151h-53l-150 153l39 38l134 -107z" />
    <glyph glyph-name="Tcommaaccent" unicode="&#x162;" horiz-adv-x="522" 
d="M308 604v-604h-93v604h-199v85h490v-85h-198zM200 -104c0 14.667 5.33203 28.0039 15.999 40.0039s25.334 18 44.001 18c12.667 0 23.334 -2.5 32.001 -7.5s15.667 -11.333 21 -19s9.16602 -16.334 11.499 -26.001s3.5 -18.834 3.5 -27.501
c0 -18.667 -2.83301 -35.834 -8.5 -51.501s-13.334 -30 -23.001 -43s-20.667 -24.5 -33 -34.5s-25.166 -18 -38.499 -24l-30 39c15.333 11.333 27.333 22.166 36 32.499s13.667 25.5 15 45.5c-14 1.33301 -25.167 7.5 -33.5 18.5s-12.5 24.167 -12.5 39.5z" />
    <glyph glyph-name="tcommaaccent" unicode="&#x163;" horiz-adv-x="363" 
d="M356 12c-19.333 -6.66699 -39.499 -11.166 -60.499 -13.499s-36.5 -3.5 -46.5 -3.5c-52.667 0 -90.667 12 -114 36s-35 64 -35 120v268h-70v77h72l20 115h63v-115h138v-77h-138v-242c0 -20 1.83301 -36.5 5.5 -49.5s8.66699 -23.333 15 -31
s14.166 -12.834 23.499 -15.501s20 -4 32 -4c11.333 0 23.833 0.833008 37.5 2.5l43.5 5.5zM110.001 -103.999c0 14.667 5.33203 28.0039 15.999 40.0039s25.334 18 44.001 18c12.667 0 23.334 -2.5 32.001 -7.5s15.667 -11.333 21 -19s9.16602 -16.334 11.499 -26.001
s3.5 -18.834 3.5 -27.501c0 -18.667 -2.83301 -35.834 -8.5 -51.501s-13.334 -30 -23.001 -43s-20.667 -24.5 -33 -34.5s-25.166 -18 -38.499 -24l-30 39c15.333 11.333 27.333 22.166 36 32.499s13.667 25.5 15 45.5c-14 1.33301 -25.167 7.5 -33.5 18.5
s-12.5 24.167 -12.5 39.5z" />
    <glyph glyph-name="Tcaron" unicode="&#x164;" horiz-adv-x="522" 
d="M308 604v-604h-93v604h-199v85h490v-85h-198zM408 908l30 -39l-143 -127h-53l-150 129l29 38l144 -87z" />
    <glyph glyph-name="tcaron" unicode="&#x165;" horiz-adv-x="368" 
d="M244 715c0 14.667 5.33203 28.0039 15.999 40.0039s25.334 18 44.001 18c12.667 0 23.334 -2.5 32.001 -7.5s15.667 -11.333 21 -19s9.16602 -16.334 11.499 -26.001s3.5 -18.834 3.5 -27.501c0 -18.667 -2.83301 -35.834 -8.5 -51.501s-13.334 -30 -23.001 -43
s-20.667 -24.5 -33 -34.5s-25.166 -18 -38.499 -24l-30 39c15.333 11.333 27.333 22.166 36 32.499s13.667 25.5 15 45.5c-14 1.33301 -25.167 7.5 -33.5 18.5s-12.5 24.167 -12.5 39.5zM355.999 12.0039c-19.333 -6.66699 -39.499 -11.166 -60.499 -13.499
s-36.5 -3.5 -46.5 -3.5c-52.667 0 -90.667 12 -114 36s-35 64 -35 120v268h-70v77h72l20 115h63v-115h138v-77h-138v-242c0 -20 1.83301 -36.5 5.5 -49.5s8.66699 -23.333 15 -31s14.166 -12.834 23.499 -15.501s20 -4 32 -4c11.333 0 23.833 0.833008 37.5 2.5l43.5 5.5z
" />
    <glyph glyph-name="Tbar" unicode="&#x166;" horiz-adv-x="522" 
d="M308 604v-201h146v-70h-146v-333h-93v333h-149v70h149v201h-199v85h490v-85h-198z" />
    <glyph glyph-name="tbar" unicode="&#x167;" horiz-adv-x="363" 
d="M356 12c-19.333 -6.66699 -39.499 -11.166 -60.499 -13.499s-36.5 -3.5 -46.5 -3.5c-52.667 0 -90.667 12 -114 36s-35 64 -35 120v93h-70v67h70v108h-70v77h72l20 115h63v-115h138v-77h-138v-108h138v-67h-138v-67c0 -20 1.83301 -36.5 5.5 -49.5
s8.66699 -23.333 15 -31s14.166 -12.834 23.499 -15.501s20 -4 32 -4c11.333 0 23.833 0.833008 37.5 2.5l43.5 5.5z" />
    <glyph glyph-name="Utilde" unicode="&#x168;" horiz-adv-x="610" 
d="M561 218c0 -35.333 -6.83496 -67 -20.502 -95s-32.167 -51.667 -55.5 -71s-50.333 -34 -81 -44s-63.334 -15 -98.001 -15s-67.5 5 -98.5 15s-58 24.667 -81 44s-41.167 43 -54.5 71s-20 59.667 -20 95v471h93v-454c0 -28 4.33301 -52 13 -72s20.334 -36.333 35.001 -49
s31.834 -22 51.501 -28s40.167 -9 61.5 -9c20.667 0 40.834 3 60.501 9s37 15.333 52 28s27 29 36 49s13.5 44 13.5 72v454h93v-471zM235.998 869c12 0 24.168 -2.49805 36.501 -7.49805s24.166 -10.333 35.499 -16l33 -16c10.667 -5 20.334 -7.5 29.001 -7.5
c10 0 20 3.5 30 10.5s20.333 18.5 31 34.5l52 -29c-14.667 -30.667 -30.834 -53.167 -48.501 -67.5s-37.167 -21.5 -58.5 -21.5c-12 0 -23.833 2.16699 -35.5 6.5s-23.167 9.16602 -34.5 14.499s-22.166 10.166 -32.499 14.499s-20.5 6.5 -30.5 6.5
c-11.333 0 -21.5 -2.83301 -30.5 -8.5s-19.833 -16.167 -32.5 -31.5l-52 29c13.333 28 29.666 49.833 48.999 65.5s39 23.5 59 23.5z" />
    <glyph glyph-name="utilde" unicode="&#x169;" horiz-adv-x="505" 
d="M382 0l-9.99805 53.001c-20.667 -12.667 -38.834 -22.834 -54.501 -30.501s-29.667 -13.5 -42 -17.5s-23.333 -6.66699 -33 -8s-18.834 -2 -27.501 -2c-52.667 0 -93.667 15.333 -123 46s-44 74.334 -44 131.001v324h86v-315c0 -38.667 8.5 -65.834 25.5 -81.501
s38.167 -23.167 63.5 -22.5c20 0 43.167 5.33301 69.5 16s52.833 25.667 79.5 45v358h86v-496h-76zM181.002 699.001c12 0 24.168 -2.49805 36.501 -7.49805s24.166 -10.333 35.499 -16l33 -16c10.667 -5 20.334 -7.5 29.001 -7.5c10 0 20 3.5 30 10.5s20.333 18.5 31 34.5
l52 -29c-14.667 -30.667 -30.834 -53.167 -48.501 -67.5s-37.167 -21.5 -58.5 -21.5c-12 0 -23.833 2.16699 -35.5 6.5s-23.167 9.16602 -34.5 14.499s-22.166 10.166 -32.499 14.499s-20.5 6.5 -30.5 6.5c-11.333 0 -21.5 -2.83301 -30.5 -8.5s-19.833 -16.167 -32.5 -31.5
l-52 29c13.333 28 29.666 49.833 48.999 65.5s39 23.5 59 23.5z" />
    <glyph glyph-name="Umacron" unicode="&#x16a;" horiz-adv-x="610" 
d="M561 218c0 -35.333 -6.83496 -67 -20.502 -95s-32.167 -51.667 -55.5 -71s-50.333 -34 -81 -44s-63.334 -15 -98.001 -15s-67.5 5 -98.5 15s-58 24.667 -81 44s-41.167 43 -54.5 71s-20 59.667 -20 95v471h93v-454c0 -28 4.33301 -52 13 -72s20.334 -36.333 35.001 -49
s31.834 -22 51.501 -28s40.167 -9 61.5 -9c20.667 0 40.834 3 60.501 9s37 15.333 52 28s27 29 36 49s13.5 44 13.5 72v454h93v-471zM169.998 780v75h268v-75h-268z" />
    <glyph glyph-name="umacron" unicode="&#x16b;" horiz-adv-x="505" 
d="M382 0l-9.99805 53.001c-20.667 -12.667 -38.834 -22.834 -54.501 -30.501s-29.667 -13.5 -42 -17.5s-23.333 -6.66699 -33 -8s-18.834 -2 -27.501 -2c-52.667 0 -93.667 15.333 -123 46s-44 74.334 -44 131.001v324h86v-315c0 -38.667 8.5 -65.834 25.5 -81.501
s38.167 -23.167 63.5 -22.5c20 0 43.167 5.33301 69.5 16s52.833 25.667 79.5 45v358h86v-496h-76zM121.002 600.001v75h268v-75h-268z" />
    <glyph glyph-name="Ubreve" unicode="&#x16c;" horiz-adv-x="610" 
d="M561 218c0 -35.333 -6.83496 -67 -20.502 -95s-32.167 -51.667 -55.5 -71s-50.333 -34 -81 -44s-63.334 -15 -98.001 -15s-67.5 5 -98.5 15s-58 24.667 -81 44s-41.167 43 -54.5 71s-20 59.667 -20 95v471h93v-454c0 -28 4.33301 -52 13 -72s20.334 -36.333 35.001 -49
s31.834 -22 51.501 -28s40.167 -9 61.5 -9c20.667 0 40.834 3 60.501 9s37 15.333 52 28s27 29 36 49s13.5 44 13.5 72v454h93v-471zM237.998 847c0.666992 -6.66699 2.66504 -13.667 5.99805 -21s8 -14.166 14 -20.499s13.333 -11.5 22 -15.5s18.334 -6 29.001 -6
c12 0 22.5 2 31.5 6s16.5 9.16699 22.5 15.5s10.5 13.166 13.5 20.499s4.5 14.333 4.5 21h71c-1.33301 -13.333 -4.33301 -27.5 -9 -42.5s-12.5 -28.833 -23.5 -41.5s-25.333 -23.334 -43 -32.001s-40.167 -13 -67.5 -13s-50.166 4.33301 -68.499 13s-33 19.334 -44 32.001
s-19 26.5 -24 41.5s-7.5 29.167 -7.5 42.5h73z" />
    <glyph glyph-name="ubreve" unicode="&#x16d;" horiz-adv-x="505" 
d="M382 0l-9.99805 53.001c-20.667 -12.667 -38.834 -22.834 -54.501 -30.501s-29.667 -13.5 -42 -17.5s-23.333 -6.66699 -33 -8s-18.834 -2 -27.501 -2c-52.667 0 -93.667 15.333 -123 46s-44 74.334 -44 131.001v324h86v-315c0 -38.667 8.5 -65.834 25.5 -81.501
s38.167 -23.167 63.5 -22.5c20 0 43.167 5.33301 69.5 16s52.833 25.667 79.5 45v358h86v-496h-76zM187.002 697.001c0.666992 -6.66699 2.66504 -13.667 5.99805 -21s8 -14.166 14 -20.499s13.333 -11.5 22 -15.5s18.334 -6 29.001 -6c12 0 22.5 2 31.5 6
s16.5 9.16699 22.5 15.5s10.5 13.166 13.5 20.499s4.5 14.333 4.5 21h71c-1.33301 -13.333 -4.33301 -27.5 -9 -42.5s-12.5 -28.833 -23.5 -41.5s-25.333 -23.334 -43 -32.001s-40.167 -13 -67.5 -13s-50.166 4.33301 -68.499 13s-33 19.334 -44 32.001s-19 26.5 -24 41.5
s-7.5 29.167 -7.5 42.5h73z" />
    <glyph glyph-name="Uring" unicode="&#x16e;" horiz-adv-x="610" 
d="M561 218c0 -35.333 -6.83496 -67 -20.502 -95s-32.167 -51.667 -55.5 -71s-50.333 -34 -81 -44s-63.334 -15 -98.001 -15s-67.5 5 -98.5 15s-58 24.667 -81 44s-41.167 43 -54.5 71s-20 59.667 -20 95v471h93v-454c0 -28 4.33301 -52 13 -72s20.334 -36.333 35.001 -49
s31.834 -22 51.501 -28s40.167 -9 61.5 -9c20.667 0 40.834 3 60.501 9s37 15.333 52 28s27 29 36 49s13.5 44 13.5 72v454h93v-471zM415.998 806c0 -14 -2.66699 -27.333 -8 -40s-12.666 -23.667 -21.999 -33s-20.333 -16.666 -33 -21.999s-26 -8 -40 -8
s-27.333 2.66699 -40 8s-23.834 12.666 -33.501 21.999s-17.167 20.333 -22.5 33s-8 26 -8 40s2.66699 27.333 8 40s12.833 23.5 22.5 32.5s20.834 16.167 33.501 21.5s26 8 40 8s27.333 -2.66699 40 -8s23.667 -12.5 33 -21.5s16.666 -19.833 21.999 -32.5s8 -26 8 -40z
M367.998 806c0 15.333 -5.33301 28.166 -16 38.499s-23.667 15.5 -39 15.5s-28.5 -5.16699 -39.5 -15.5s-16.5 -23.166 -16.5 -38.499s5.5 -28.333 16.5 -39s24.167 -16 39.5 -16s28.333 5.33301 39 16s16 23.667 16 39z" />
    <glyph glyph-name="uring" unicode="&#x16f;" horiz-adv-x="505" 
d="M382 0l-9.99805 53.001c-20.667 -12.667 -38.834 -22.834 -54.501 -30.501s-29.667 -13.5 -42 -17.5s-23.333 -6.66699 -33 -8s-18.834 -2 -27.501 -2c-52.667 0 -93.667 15.333 -123 46s-44 74.334 -44 131.001v324h86v-315c0 -38.667 8.5 -65.834 25.5 -81.501
s38.167 -23.167 63.5 -22.5c20 0 43.167 5.33301 69.5 16s52.833 25.667 79.5 45v358h86v-496h-76zM358.002 644.001c0 -14 -2.66699 -27.333 -8 -40s-12.666 -23.667 -21.999 -33s-20.333 -16.666 -33 -21.999s-26 -8 -40 -8s-27.333 2.66699 -40 8
s-23.834 12.666 -33.501 21.999s-17.167 20.333 -22.5 33s-8 26 -8 40s2.66699 27.333 8 40s12.833 23.5 22.5 32.5s20.834 16.167 33.501 21.5s26 8 40 8s27.333 -2.66699 40 -8s23.667 -12.5 33 -21.5s16.666 -19.833 21.999 -32.5s8 -26 8 -40zM310.002 644.001
c0 15.333 -5.33301 28.166 -16 38.499s-23.667 15.5 -39 15.5s-28.5 -5.16699 -39.5 -15.5s-16.5 -23.166 -16.5 -38.499s5.5 -28.333 16.5 -39s24.167 -16 39.5 -16s28.333 5.33301 39 16s16 23.667 16 39z" />
    <glyph glyph-name="Uhungarumlaut" unicode="&#x170;" horiz-adv-x="610" 
d="M561 218c0 -35.333 -6.83496 -67 -20.502 -95s-32.167 -51.667 -55.5 -71s-50.333 -34 -81 -44s-63.334 -15 -98.001 -15s-67.5 5 -98.5 15s-58 24.667 -81 44s-41.167 43 -54.5 71s-20 59.667 -20 95v471h93v-454c0 -28 4.33301 -52 13 -72s20.334 -36.333 35.001 -49
s31.834 -22 51.501 -28s40.167 -9 61.5 -9c20.667 0 40.834 3 60.501 9s37 15.333 52 28s27 29 36 49s13.5 44 13.5 72v454h93v-471zM339.998 780l148 122l59 -61l-170 -103zM186.998 780l148 122l59 -61l-170 -103z" />
    <glyph glyph-name="uhungarumlaut" unicode="&#x171;" horiz-adv-x="505" 
d="M382 0l-9.99805 53.001c-20.667 -12.667 -38.834 -22.834 -54.501 -30.501s-29.667 -13.5 -42 -17.5s-23.333 -6.66699 -33 -8s-18.834 -2 -27.501 -2c-52.667 0 -93.667 15.333 -123 46s-44 74.334 -44 131.001v324h86v-315c0 -38.667 8.5 -65.834 25.5 -81.501
s38.167 -23.167 63.5 -22.5c20 0 43.167 5.33301 69.5 16s52.833 25.667 79.5 45v358h86v-496h-76zM156.002 571.001l72 177l81 -25l-100 -172zM286.002 571.001l72 177l81 -25l-100 -172z" />
    <glyph glyph-name="Uogonek" unicode="&#x172;" horiz-adv-x="610" 
d="M248 -90c0 12.667 2.33203 25.501 6.99902 38.501s12.667 28.167 24 45.5c-32 2.66699 -61.667 9.5 -89 20.5s-51.333 26 -72 45s-36.834 41.833 -48.501 68.5s-17.5 56.667 -17.5 90v471h93v-454c0 -28 4.33301 -52 13 -72s20.334 -36.333 35.001 -49
s31.834 -22 51.501 -28s40.167 -9 61.5 -9c20.667 0 40.834 3 60.501 9s37 15.333 52 28s27 29 36 49s13.5 44 13.5 72v454h93v-471c0 -32.667 -5.83301 -62 -17.5 -88s-27.5 -48.5 -47.5 -67.5s-43.333 -34.333 -70 -46s-55.334 -18.834 -86.001 -21.501
c-9.33301 -13.333 -16.166 -25.666 -20.499 -36.999s-6.5 -22.333 -6.5 -33c0 -14 4.16699 -24.833 12.5 -32.5s20.166 -11.5 35.499 -11.5c8 0 16.333 1.66699 25 5s19 7.66602 31 12.999l21 -52c-13.333 -7.33301 -28 -13.333 -44 -18s-32.333 -7 -49 -7
c-28.667 0 -52 8.66699 -70 26s-27 38 -27 62z" />
    <glyph glyph-name="uogonek" unicode="&#x173;" horiz-adv-x="505" 
d="M345 -90c0 13.333 2.6709 27.1699 8.00391 41.5029s14.666 31.166 27.999 50.499l-9 51c-20.667 -12.667 -38.834 -22.834 -54.501 -30.501s-29.667 -13.5 -42 -17.5s-23.333 -6.66699 -33 -8s-18.834 -2 -27.501 -2c-52.667 0 -93.667 15.333 -123 46
s-44 74.334 -44 131.001v324h86v-315c0 -38.667 8.5 -65.834 25.5 -81.501s38.167 -23.167 63.5 -22.5c20 0 43.167 5.33301 69.5 16s52.833 25.667 79.5 45v358h86v-496h-18c-20 -28.667 -30 -53.667 -30 -75c0 -14 4.16699 -24.833 12.5 -32.5s20.166 -11.5 35.499 -11.5
c8 0 16.333 1.66699 25 5s19 7.66602 31 12.999l21 -52c-13.333 -7.33301 -28 -13.333 -44 -18s-32.333 -7 -49 -7c-28.667 0 -52 8.66699 -70 26s-27 38 -27 62z" />
    <glyph glyph-name="Wcircumflex" unicode="&#x174;" horiz-adv-x="862" 
d="M428 524l-52 -216l-80 -308h-104l-182 689h100l78 -317l54 -228h5l55 229l80 316h97l82 -326l53 -219h5l52 222l80 323h100l-182 -689h-104l-81 312l-50 212h-6zM431 826l-144 -87l-29 38l150 128h53l143 -126l-30 -39z" />
    <glyph glyph-name="wcircumflex" unicode="&#x175;" horiz-adv-x="702" 
d="M352 340l-50 -158l-59 -182h-82l-141 496h89l46 -180l47 -186h4l59 181l47 137h87l52 -156l52 -162h5l43 175l48 191h85l-134 -496h-82l-61 185l-51 155h-4zM352 659l-134 -107l-39 38l150 153h53l143 -151l-40 -39z" />
    <glyph glyph-name="Ycircumflex" unicode="&#x176;" horiz-adv-x="537" 
d="M272 364l74 166l78 159h100l-209 -424v-265h-93v264l-210 425h101l80 -164l72 -161h7zM268 826l-144 -87l-29 38l150 128h53l143 -126l-30 -39z" />
    <glyph glyph-name="ycircumflex" unicode="&#x177;" horiz-adv-x="468" 
d="M113 -201l73 210l-42 35l-134 452h93l60 -218l55 -198h3l70 198l75 218h92l-253 -697h-92zM227 659l-134 -107l-39 38l150 153h53l143 -151l-40 -39z" />
    <glyph glyph-name="Ydieresis" unicode="&#x178;" horiz-adv-x="537" 
d="M272 364l74 166l78 159h100l-209 -424v-265h-93v264l-210 425h101l80 -164l72 -161h7zM415 811c0 -13.333 -4.83301 -24.833 -14.5 -34.5s-21.167 -14.5 -34.5 -14.5s-24.833 4.83301 -34.5 14.5s-14.5 21.167 -14.5 34.5s4.83301 24.666 14.5 33.999s21.167 14 34.5 14
s24.833 -4.66699 34.5 -14s14.5 -20.666 14.5 -33.999zM219 811c0 -13.333 -4.83301 -24.833 -14.5 -34.5s-21.167 -14.5 -34.5 -14.5s-24.666 4.83301 -33.999 14.5s-14 21.167 -14 34.5s4.66699 24.666 14 33.999s20.666 14 33.999 14s24.833 -4.66699 34.5 -14
s14.5 -20.666 14.5 -33.999z" />
    <glyph glyph-name="Zacute" unicode="&#x179;" horiz-adv-x="523" 
d="M488 610l-344 -527h343v-83h-450v81l340 524h-326v84h437v-79zM201 780l148 122l59 -61l-170 -103z" />
    <glyph glyph-name="zacute" unicode="&#x17a;" horiz-adv-x="450" 
d="M41 0v68l261 351h-247v76h356v-70l-261 -349h261v-76h-370zM193 571l72 177l81 -25l-100 -172z" />
    <glyph glyph-name="Zdotaccent" unicode="&#x17b;" horiz-adv-x="523" 
d="M488 610l-344 -527h343v-83h-450v81l340 524h-326v84h437v-79zM222 814c0 12.667 4.33301 24.5 13 35.5s21.667 16.5 39 16.5c18 0 31.833 -5.5 41.5 -16.5s14.5 -22.833 14.5 -35.5c0 -15.333 -4.83301 -28.333 -14.5 -39s-23.5 -16 -41.5 -16
c-17.333 0 -30.333 5.16699 -39 15.5s-13 23.5 -13 39.5z" />
    <glyph glyph-name="zdotaccent" unicode="&#x17c;" horiz-adv-x="450" 
d="M41 0v68l261 351h-247v76h356v-70l-261 -349h261v-76h-370zM188 644c0 12.667 4.33301 24.5 13 35.5s21.667 16.5 39 16.5c18 0 31.833 -5.5 41.5 -16.5s14.5 -22.833 14.5 -35.5c0 -15.333 -4.83301 -28.333 -14.5 -39s-23.5 -16 -41.5 -16
c-17.333 0 -30.333 5.16699 -39 15.5s-13 23.5 -13 39.5z" />
    <glyph glyph-name="Zcaron" unicode="&#x17d;" horiz-adv-x="523" 
d="M488 610l-344 -527h343v-83h-450v81l340 524h-326v84h437v-79zM405 908l30 -39l-143 -127h-53l-150 129l29 38l144 -87z" />
    <glyph glyph-name="zcaron" unicode="&#x17e;" horiz-adv-x="450" 
d="M41 0v68l261 351h-247v76h356v-70l-261 -349h261v-76h-370zM364 743l40 -39l-143 -151h-53l-150 153l39 38l134 -107z" />
    <glyph glyph-name="florin" unicode="&#x192;" horiz-adv-x="500" 
d="M120 420l98.002 0.000976562l11 73c3.33301 22.667 8.66602 46.334 15.999 71.001s18.166 47 32.499 67s32.666 36.5 54.999 49.5s50.166 19.5 83.499 19.5c15.333 0 30 -1.33301 44 -4s26 -6 36 -10l-19 -75c-9.33301 3.33301 -20.166 5.83301 -32.499 7.5
s-23.166 2.5 -32.499 2.5c-15.333 0 -28.5 -3.33301 -39.5 -10s-20.167 -15.834 -27.5 -27.501s-13.333 -24.834 -18 -39.501s-8 -30 -10 -46l-11 -78h106l1 -69h-117l-32 -228c-4 -32 -10 -61 -18 -87s-18.667 -48.333 -32 -67s-29.833 -33.167 -49.5 -43.5
s-43.167 -15.5 -70.5 -15.5c-14 0 -29.833 1.83301 -47.5 5.5s-33.5 8.16699 -47.5 13.5l25 67c22 -8.66699 42 -13 60 -13c28 0 48.667 12.667 62 38s23 59 29 101l33 229h-87z" />
    <glyph glyph-name="Ohorn" unicode="&#x1a0;" horiz-adv-x="613" 
d="M561 225c0 -35.333 -6.50098 -67.333 -19.501 -96s-31 -53 -54 -73s-50 -35.5 -81 -46.5s-64.5 -16.5 -100.5 -16.5c-37.333 0 -71.666 5.5 -102.999 16.5s-58.166 26.5 -80.499 46.5s-39.666 44.333 -51.999 73s-18.5 60.667 -18.5 96v238
c0 34.667 6.16699 66.334 18.5 95.001s29.666 53.167 51.999 73.5s49.166 36.166 80.499 47.499s65.666 17 102.999 17c30 0 58 -3.83301 84 -11.5s49.667 -18.167 71 -31.5c26.667 0.666992 45 8 55 22s15 40 15 78v21h77v-33c0 -40 -6.66699 -72.5 -20 -97.5
s-34.666 -42.5 -63.999 -52.5c11.333 -18 20.333 -37.667 27 -59s10 -44.333 10 -69v-238zM467.999 452c0 28 -4.33301 52 -13 72s-20.334 36.5 -35.001 49.5s-31.834 22.5 -51.501 28.5s-40.5 9 -62.5 9s-42.833 -3 -62.5 -9s-36.667 -15.5 -51 -28.5
s-25.833 -29.5 -34.5 -49.5s-13 -44 -13 -72v-216c0 -28 4.33301 -52 13 -72s20.334 -36.333 35.001 -49s31.834 -22 51.501 -28s40.167 -9 61.5 -9c22 0 42.667 3 62 9s36.5 15.333 51.5 28s26.833 29 35.5 49s13 44 13 72v216z" />
    </font>
</defs>
</svg>
